<!-- Generated by IcoMoon.io -->
<svg version="1.1" xmlns="http://www.w3.org/2000/svg" width="32" height="32" viewBox="0 0 32 32">
<title>md-bus-boradcast-white</title>
<path fill="#fff" d="M13.417 6.065c0.001-0.162-0.060-0.324-0.183-0.448s-0.286-0.185-0.447-0.183h-0c-1.419 0.003-2.836 0.546-3.919 1.628s-1.625 2.5-1.628 3.919v-0c0.004 0.155 0.066 0.309 0.185 0.428 0.247 0.247 0.646 0.247 0.893 0 0.119-0.119 0.18-0.273 0.185-0.428v0c0.002-1.099 0.423-2.197 1.261-3.035s1.936-1.259 3.035-1.261h-0c0.158-0.001 0.316-0.063 0.437-0.183s0.182-0.279 0.183-0.437v0z"></path>
<path fill="#fff" d="M5.046 11.003c0.004-1.982 0.762-3.963 2.275-5.476s3.494-2.271 5.476-2.275h-0c0.168 0.005 0.337-0.057 0.465-0.185 0.247-0.247 0.247-0.646 0-0.893-0.128-0.128-0.297-0.189-0.465-0.185h-0c-2.302 0.004-4.604 0.884-6.361 2.641s-2.637 4.058-2.641 6.361v-0c0.005 0.153 0.066 0.305 0.183 0.422 0.245 0.245 0.641 0.245 0.886 0 0.114-0.114 0.175-0.262 0.183-0.412l-0 0.001z"></path>
<path fill="#fff" d="M24.592 9.089h-10.629c-0.089-0.009-0.193-0.014-0.297-0.014-1.8 0-3.26 1.459-3.26 3.26 0 0.105 0.005 0.208 0.015 0.31l-0.001-0.013v19.487h1.772v-2.657h14.172v2.657h1.772v-19.487c0.009-0.089 0.014-0.193 0.014-0.297 0-1.8-1.459-3.26-3.26-3.26-0.105 0-0.208 0.005-0.31 0.015l0.013-0.001zM26.364 27.69h-14.172v-15.055c0.067-0.95 0.821-1.705 1.766-1.771l0.006-0h10.629c0.95 0.067 1.705 0.821 1.771 1.766l0 0.006zM15.734 25.919v-1.772h-1.771v1.772zM24.591 24.147h-1.771v1.772h1.772zM8.648 22.375h21.259v-1.772h-21.259zM20.163 21.932v-6.644h-1.769v6.644zM10.417 16.175h17.718v-1.772h-17.716z"></path>
</svg>
