<!-- Generated by IcoMoon.io -->
<svg version="1.1" xmlns="http://www.w3.org/2000/svg" width="32" height="32" viewBox="0 0 32 32">
<title>md-broadcast-red</title>
<path fill="#ed1b2e" d="M31.257 16.344c0.003-0.436-0.161-0.874-0.494-1.206s-0.77-0.497-1.206-0.494h-0c-3.823 0.008-7.644 1.471-10.562 4.388s-4.38 6.739-4.388 10.562v-0.001c0.012 0.418 0.178 0.833 0.498 1.153 0.664 0.664 1.742 0.664 2.406 0 0.32-0.32 0.486-0.735 0.498-1.154l-0 0.001c0.007-2.96 1.14-5.92 3.399-8.179s5.218-3.392 8.179-3.399h-0.001c0.426-0.004 0.852-0.169 1.177-0.494s0.49-0.751 0.494-1.178v0z"></path>
<path fill="#ed1b2e" d="M8.699 29.653c0.011-5.342 2.055-10.681 6.131-14.757s9.416-6.12 14.758-6.131h-0.001c0.453 0.013 0.909-0.153 1.253-0.498 0.664-0.664 0.664-1.742 0-2.406-0.345-0.345-0.801-0.511-1.252-0.498l-0.001 0c-6.205 0.011-12.407 2.383-17.142 7.118s-7.107 10.937-7.118 17.143v-0.001c0.013 0.412 0.178 0.821 0.493 1.136 0.659 0.659 1.728 0.659 2.386 0 0.308-0.308 0.472-0.706 0.492-1.109l-0 0.002z"></path>
</svg>
