<!-- Generated by IcoMoon.io -->
<svg version="1.1" xmlns="http://www.w3.org/2000/svg" width="32" height="32" viewBox="0 0 32 32">
<title>md-circle-green-lrt</title>
<path fill="#008244" d="M32 16c0 8.837-7.163 16-16 16s-16-7.163-16-16c0-8.837 7.163-16 16-16s16 7.163 16 16z"></path>
<path fill="#fff" d="M13.060 23.917h6.741c0.013 0 0.028 0 0.043 0 1.838 0 3.328-1.49 3.328-3.328 0-0.015-0-0.030-0-0.045l0 0.002v-10.113c0-0.016 0-0.035 0-0.054 0-1.832-1.485-3.317-3.317-3.317-0.019 0-0.038 0-0.057 0l0.003-0h-6.741c-0.013-0-0.028-0-0.043-0-1.838 0-3.328 1.49-3.328 3.328 0 0.015 0 0.030 0 0.045l-0-0.002v10.112c-0 0.010-0 0.022-0 0.034 0 1.843 1.494 3.338 3.338 3.338 0.012 0 0.023-0 0.035-0h-0.002zM10.953 27.288h1.905l2.107-3.371h-1.905zM20.020 27.288h1.888l-2.107-3.371h-1.887zM16.429 20.547c0.907-0.062 1.627-0.782 1.689-1.683l0-0.006c-0.062-0.907-0.782-1.627-1.683-1.689l-0.006-0c-0.907 0.062-1.627 0.782-1.689 1.683l-0 0.006c0.062 0.907 0.783 1.628 1.684 1.689l0.006 0zM13.059 22.236c-0.041 0.004-0.089 0.006-0.137 0.006-0.861 0-1.558-0.698-1.558-1.558 0-0.048 0.002-0.096 0.006-0.143l-0 0.006v-10.113c-0.004-0.044-0.007-0.094-0.007-0.146 0-0.856 0.694-1.55 1.55-1.55 0.051 0 0.102 0.002 0.152 0.007l-0.006-0.001h6.741c0.046-0.005 0.1-0.008 0.154-0.008 0.852 0 1.542 0.69 1.542 1.542 0 0.054-0.003 0.108-0.008 0.161l0.001-0.007v10.112c0.004 0.044 0.007 0.094 0.007 0.145 0 0.856-0.694 1.55-1.55 1.55-0.051 0-0.102-0.003-0.152-0.007l0.006 0zM11.378 15.491h10.109v-1.689h-10.109zM15.591 7.064h1.689v-1.689h2.528v-1.689h-6.748v1.689h2.528z"></path>
</svg>
