<!-- Generated by IcoMoon.io -->
<svg version="1.1" xmlns="http://www.w3.org/2000/svg" width="32" height="32" viewBox="0 0 32 32">
<title>md-circle-dollar-green</title>
<path fill="#a5cf4c" d="M16 1.707c7.895 0 14.294 6.4 14.294 14.294s-6.4 14.294-14.294 14.294c-7.894 0-14.294-6.4-14.294-14.294 0-0.001 0-0.002 0-0.003v0c0.011-7.89 6.404-14.283 14.293-14.292h0.001zM16 0c-8.837 0-16 7.163-16 16s7.163 16 16 16c8.837 0 16-7.163 16-16 0-0.001 0-0.001 0-0.002v0c0-8.836-7.163-15.998-15.998-15.998-0.001 0-0.001 0-0.002 0h0z"></path>
<path fill="#a5cf4c" d="M16.935 15.128c-2.655-0.818-3.4-2.26-3.23-3.247 0.152-0.894 1.105-1.798 2.885-1.798 0.018-0 0.039-0.001 0.060-0.001 1.366 0 2.505 0.973 2.762 2.263l0.003 0.018c0.126 0.497 0.57 0.859 1.098 0.859 0.067 0 0.132-0.006 0.196-0.017l-0.007 0.001c0.495-0.072 0.871-0.493 0.871-1.002 0-0.073-0.008-0.145-0.023-0.214l0.001 0.007c-0.392-2.016-1.982-3.571-3.985-3.906l-0.029-0.004v-1.809c0-0.569-0.461-1.030-1.030-1.030s-1.030 0.461-1.030 1.030v1.815c-2.060 0.362-3.64 1.683-3.943 3.458-0.306 1.798 0.737 4.334 4.723 5.562 2.096 0.646 3.23 1.68 3.046 2.77-0.159 0.935-1.36 1.907-3.1 1.907-2.975 0-3.189-1.52-3.201-1.805-0.020-0.581-0.495-1.045-1.080-1.045-0.012 0-0.024 0-0.035 0.001l0.002-0c-0.009-0-0.019-0-0.030-0-0.58 0-1.051 0.466-1.058 1.044v0.001c0 1.262 0.898 3.578 4.674 3.865v1.468c0 0.569 0.461 1.030 1.030 1.030s1.030-0.461 1.030-1.030v-1.599c2.060-0.451 3.612-1.809 3.899-3.508 0.139-0.82 0.279-3.612-4.501-5.082z"></path>
</svg>
