<svg xmlns="http://www.w3.org/2000/svg" xmlns:xlink="http://www.w3.org/1999/xlink" width="28.746" height="22.838" viewBox="0 0 28.746 22.838"><defs><style>.a{fill:none;}.b{clip-path:url(#a);}.c{fill:#a5cf4c;}</style><clipPath id="a"><rect class="a" width="28.746" height="22.838"/></clipPath></defs><g class="b"><path class="c" d="M53.726,48.908a2.954,2.954,0,1,0-2.954,2.954A2.954,2.954,0,0,0,53.726,48.908Zm-4.581,0a1.627,1.627,0,1,1,1.627,1.627A1.627,1.627,0,0,1,49.145,48.908Z" transform="translate(-27.037 -29.025)"/><path class="c" d="M18.768,15.212l-.432-1.892a3.353,3.353,0,0,0-3.253-2.556H13.291a.664.664,0,1,0,0,1.328h1.792a2.025,2.025,0,0,1,1.958,1.527l.5,2.091a.365.365,0,0,0-.033.166.73.73,0,0,0,.166.465l2.39,9.925H31.68a3.95,3.95,0,0,0,3.851-3.021l1.992-8.033Zm15.5,7.7a2.656,2.656,0,0,1-2.589,2.025H21.125L19.1,16.54H35.83Z" transform="translate(-8.776 -10.764)"/><path class="c" d="M32.4,48.908a2.954,2.954,0,1,0-2.954,2.954A2.954,2.954,0,0,0,32.4,48.908Zm-4.581,0a1.627,1.627,0,1,1,1.627,1.627A1.627,1.627,0,0,1,27.824,48.908Z" transform="translate(-15.973 -29.025)"/><path class="c" d="M10.143,23.227a.664.664,0,0,0,.664.664H13.6a.664.664,0,1,0,0-1.328H10.807A.664.664,0,0,0,10.143,23.227Z" transform="translate(-7.487 -16.887)"/><path class="c" d="M5.287,32.861h6.44a.664.664,0,1,0,0-1.328H5.287a.664.664,0,1,0,0,1.328Z" transform="translate(-4.623 -21.541)"/><path class="c" d="M17.3,41.167a.664.664,0,0,0-.664-.664H12.187a.664.664,0,1,0,0,1.328h4.448A.664.664,0,0,0,17.3,41.167Z" transform="translate(-8.204 -26.196)"/></g></svg>