<!-- Generated by IcoMoon.io -->
<svg version="1.1" xmlns="http://www.w3.org/2000/svg" width="32" height="32" viewBox="0 0 32 32">
<title>circle-flickr-gray</title>
<path fill="#626462" d="M12.175 12.914c-1.792 0-3.264 1.472-3.264 3.264s1.472 3.264 3.264 3.264 3.264-1.472 3.264-3.264-1.472-3.264-3.264-3.264c0 0 0 0 0 0zM12.175 18.29c-1.152 0-2.112-0.96-2.112-2.112s0.96-2.112 2.112-2.112 2.112 0.96 2.112 2.112c0 1.152-0.96 2.112-2.112 2.112z"></path>
<path fill="#626462" d="M20.047 12.914c-1.792 0-3.264 1.472-3.264 3.264s1.472 3.264 3.264 3.264 3.264-1.472 3.264-3.264-1.472-3.264-3.264-3.264v0zM20.047 18.29c-1.152 0-2.112-0.96-2.112-2.112s0.96-2.112 2.112-2.112c1.152 0 2.112 0.96 2.112 2.112 0 0 0 0 0 0 0.064 1.152-0.896 2.112-2.112 2.112z"></path>
<path fill="#626462" d="M16 32c-8.832 0-16-7.168-16-16s7.168-16 16-16 16 7.168 16 16-7.168 16-16 16zM16 0.96c-8.32 0-15.040 6.72-15.040 15.040s6.72 15.040 15.040 15.040 15.040-6.72 15.040-15.040-6.72-15.040-15.040-15.040z"></path>
</svg>
