<!-- Generated by IcoMoon.io -->
<svg version="1.1" xmlns="http://www.w3.org/2000/svg" width="32" height="32" viewBox="0 0 32 32">
<title>circle-gray-bus</title>
<path fill="#8a8b8a" d="M16 0c8.837 0 16 7.163 16 16s-7.163 16-16 16c-8.837 0-16-7.163-16-16v0c0-8.837 7.163-16 16-16v0z"></path>
<path fill="#fff" d="M20.926 5.588h-9.354c-0.078-0.008-0.169-0.012-0.262-0.012-1.584 0-2.868 1.284-2.868 2.868 0 0.092 0.004 0.183 0.013 0.273l-0.001-0.011v17.149h1.559v-2.339h12.472v2.339h1.559v-17.149c0.008-0.078 0.012-0.169 0.012-0.262 0-1.584-1.284-2.868-2.868-2.868-0.092 0-0.183 0.004-0.273 0.013l0.011-0.001zM22.485 21.957h-12.472v-13.248c0.059-0.836 0.723-1.5 1.554-1.559l0.005-0h9.354c0.836 0.059 1.5 0.723 1.559 1.554l0 0.005zM13.131 20.398v-1.559h-1.558v1.559zM20.925 18.839h-1.558v1.559h1.559zM6.895 17.28h18.708v-1.559h-18.708zM17.028 16.89v-5.846h-1.557v5.846zM8.452 11.823h15.592v-1.559h-15.59z"></path>
</svg>
