<!-- Generated by IcoMoon.io -->
<svg version="1.1" xmlns="http://www.w3.org/2000/svg" width="32" height="32" viewBox="0 0 32 32">
<title>circle-gray-train</title>
<path fill="#8a8b8a" d="M16.024-0.015c8.832 0 16 7.168 16 16s-7.168 16-16 16-16-7.168-16-16 7.168-16 16-16z"></path>
<path fill="#fff" d="M16.133 8.864l-4.352 1.92c-0.448 0.448-1.216 1.408-1.216 2.432v4.608c0 1.28 1.024 2.368 2.24 2.368h6.4c1.216 0 2.24-1.088 2.24-2.368v-4.608c0-1.024-0.768-1.984-1.216-2.432l-4.096-1.92zM16.133 7.072l4.992 2.368c0 0 1.92 1.6 1.92 3.776v4.608c0 2.176-1.728 3.968-3.84 3.968h-6.4c-2.112 0-3.84-1.792-3.84-3.968v-4.608c0-2.176 1.92-3.776 1.92-3.776l5.248-2.368z"></path>
<path fill="#fff" d="M14.080 17.002c0 0.53-0.43 0.96-0.96 0.96s-0.96-0.43-0.96-0.96c0-0.53 0.43-0.96 0.96-0.96s0.96 0.43 0.96 0.96z"></path>
<path fill="#fff" d="M20.48 17.002c0 0.53-0.43 0.96-0.96 0.96s-0.96-0.43-0.96-0.96c0-0.53 0.43-0.96 0.96-0.96s0.96 0.43 0.96 0.96z"></path>
<path fill="#fff" d="M15.040 4.522h1.92v3.2h-1.92v-3.2z"></path>
<path fill="#fff" d="M16.064 5.418c-0.32 0-0.832 0.256-1.088 0.448l-0.128 0.064-0.064 0.064c0 0-0.896 0.448-1.536 1.024v0 0c-1.28 0.96-1.408 1.536-1.408 1.728v0.256l0.192-0.128 0.192-0.064 3.2-1.28 0.576-0.256 0.576 0.256 3.2 1.28 0.192 0.064 0.192 0.128v-0.256c0-0.32-0.32-0.96-1.28-1.664-0.768-0.64-1.664-1.088-1.664-1.088l-0.256-0.128c-0.128-0.192-0.64-0.448-0.896-0.448zM16.064 3.818c0.96 0 1.92 0.704 1.92 0.704s3.776 1.92 3.776 4.224v3.456l-2.56-1.92-3.2-1.28-3.2 1.28-2.56 1.92v-3.456c0-1.088 0.896-2.112 1.984-3.008 0.832-0.704 1.856-1.216 1.856-1.216s1.024-0.704 1.984-0.704z"></path>
<path fill="#fff" d="M17.28 12.202c0 0.707-0.573 1.28-1.28 1.28s-1.28-0.573-1.28-1.28c0-0.707 0.573-1.28 1.28-1.28s1.28 0.573 1.28 1.28z"></path>
<path fill="#fff" d="M10.24 20.522l-2.56 6.4h1.28l2.56-6.4h-1.28z"></path>
<path fill="#fff" d="M9.152 27.242h-1.984l2.816-7.040h1.984l-2.816 7.040zM8.128 26.602h0.576l2.304-5.76h-0.576l-2.304 5.76z"></path>
<path fill="#fff" d="M21.76 20.522l2.56 6.4h-1.28l-2.56-6.4h1.28z"></path>
<path fill="#fff" d="M24.768 27.242h-1.984l-2.816-7.040h1.984l2.816 7.040zM23.232 26.602h0.576l-2.304-5.76h-0.576l2.304 5.76z"></path>
<path fill="#fff" d="M9.6 23.082h12.16v0.96h-12.16v-0.96z"></path>
<path fill="#fff" d="M22.080 24.362h-12.8v-1.6h12.8v1.6zM9.92 23.722h11.52v-0.32h-11.52v0.32z"></path>
<path fill="#fff" d="M8.96 25.962h14.080v0.96h-14.080v-0.96z"></path>
<path fill="#fff" d="M23.36 27.242h-14.72v-1.6h14.72v1.6zM9.28 26.602h13.44v-0.32h-13.44v0.32z"></path>
</svg>
