<!-- Generated by IcoMoon.io -->
<svg version="1.1" xmlns="http://www.w3.org/2000/svg" width="32" height="32" viewBox="0 0 32 32">
<title>clock-white</title>
<path fill="#fff" d="M16 1.28c-1.984 0-3.904 0.384-5.76 1.152-1.728 0.768-3.328 1.792-4.672 3.136s-2.368 2.944-3.136 4.672c-0.768 1.856-1.152 3.776-1.152 5.76s0.384 3.904 1.152 5.76c0.768 1.728 1.792 3.328 3.136 4.672s2.944 2.432 4.672 3.136c1.792 0.768 3.712 1.152 5.76 1.152s3.904-0.384 5.76-1.152c1.728-0.768 3.328-1.792 4.672-3.136s2.432-2.944 3.136-4.672c0.768-1.792 1.152-3.712 1.152-5.76s-0.384-3.904-1.152-5.76c-0.768-1.728-1.792-3.328-3.136-4.672s-2.944-2.368-4.672-3.136c-1.856-0.768-3.776-1.152-5.76-1.152zM16 0c8.832 0 16 7.168 16 16s-7.168 16-16 16-16-7.168-16-16 7.168-16 16-16z"></path>
<path fill="#fff" d="M15.829 8.656v8z"></path>
<path fill="#fff" d="M15.829 17.296c-0.384 0-0.64-0.256-0.64-0.64v-8c0-0.384 0.256-0.64 0.64-0.64s0.64 0.256 0.64 0.64v8c0 0.32-0.256 0.64-0.64 0.64z"></path>
<path fill="#fff" d="M16.981 18.896l6.144 4.352z"></path>
<path fill="#fff" d="M23.125 23.952c-0.128 0-0.256-0.064-0.384-0.128l-6.144-4.352c-0.32-0.192-0.384-0.576-0.128-0.896 0.192-0.32 0.576-0.384 0.896-0.128l6.144 4.352c0.32 0.192 0.384 0.576 0.128 0.896-0.128 0.128-0.32 0.256-0.512 0.256z"></path>
</svg>
