<!-- Generated by IcoMoon.io -->
<svg version="1.1" xmlns="http://www.w3.org/2000/svg" width="34" height="32" viewBox="0 0 34 32">
<title>date-time-color</title>
<path fill="#0097d0" d="M30.264 14.836v-8.523c0-2.181-1.768-3.949-3.949-3.949v0h-0.276v-1.575c0-0.436-0.353-0.789-0.789-0.789s-0.789 0.353-0.789 0.789v1.539h-3.472v-1.539c0-0.436-0.353-0.789-0.789-0.789s-0.789 0.353-0.789 0.789v1.539h-3.472v-1.539c0-0.436-0.353-0.789-0.789-0.789s-0.789 0.353-0.789 0.789v0 1.539h-3.508v-1.539c0-0.436-0.353-0.789-0.789-0.789s-0.789 0.353-0.789 0.789v1.539h-3.472v-1.539c0-0.436-0.353-0.789-0.789-0.789s-0.789 0.353-0.789 0.789v0 1.539h-0.273c-2.181 0-3.949 1.768-3.949 3.949v0 15.938c0 2.181 1.768 3.949 3.949 3.949h11.758c1.486 3.46 4.865 5.839 8.799 5.839 5.274 0 9.549-4.275 9.549-9.549 0-3.101-1.478-5.856-3.768-7.601l-0.023-0.017zM3.949 24.581c-1.307 0-2.367-1.060-2.367-2.367v0-15.901c0.002-1.306 1.061-2.365 2.367-2.365h0.272v1.144c0 0.436 0.353 0.789 0.789 0.789s0.789-0.353 0.789-0.789v0-1.144h3.472v1.144c0 0.436 0.353 0.789 0.789 0.789s0.789-0.353 0.789-0.789v0-1.144h3.472v1.144c0 0.436 0.353 0.789 0.789 0.789s0.789-0.353 0.789-0.789v0-1.144h3.512v1.144c0 0.436 0.353 0.789 0.789 0.789s0.789-0.353 0.789-0.789v-1.144h3.472v1.144c0 0.436 0.353 0.789 0.789 0.789s0.789-0.353 0.789-0.789v0-1.144h0.276c1.307 0 2.367 1.060 2.367 2.367v7.534c-1.248-0.628-2.72-0.995-4.278-0.995-2.028 0-3.91 0.623-5.466 1.687l0.033-0.021c-0.136-0.102-2.207 1.498-1.77 1.498v0c-1.457 1.652-2.346 3.835-2.346 6.226 0 0.83 0.107 1.635 0.309 2.402l-0.015-0.066zM24.503 30.461c-4.385-0.022-7.931-3.582-7.931-7.971 0-4.402 3.569-7.971 7.971-7.971 4.388 0 7.949 3.546 7.971 7.93v0.002c0 0.012 0 0.025 0 0.039 0 4.402-3.569 7.971-7.971 7.971-0.014 0-0.028-0-0.042-0h0.002z"></path>
<path fill="#f68b1f" d="M12.264 8.272h-1.43c-0.451 0-0.817 0.366-0.817 0.817s0.366 0.817 0.817 0.817h1.43c0.451 0 0.817-0.366 0.817-0.817s-0.366-0.817-0.817-0.817v0z"></path>
<path fill="#f68b1f" d="M6.544 8.272h-1.43c-0.451 0-0.817 0.366-0.817 0.817s0.366 0.817 0.817 0.817h1.43c0.451 0 0.817-0.366 0.817-0.817s-0.366-0.817-0.817-0.817v0z"></path>
<path fill="#f68b1f" d="M16.554 9.906h1.43c0.451 0 0.817-0.366 0.817-0.817s-0.366-0.817-0.817-0.817h-1.43c-0.451 0-0.817 0.366-0.817 0.817s0.366 0.817 0.817 0.817v0z"></path>
<path fill="#f68b1f" d="M22.274 9.906h1.43c0.451 0 0.817-0.366 0.817-0.817s-0.366-0.817-0.817-0.817h-1.43c-0.451 0-0.817 0.366-0.817 0.817s0.366 0.817 0.817 0.817v0z"></path>
<path fill="#f68b1f" d="M12.264 13.052h-1.43c-0.451 0-0.817 0.366-0.817 0.817s0.366 0.817 0.817 0.817h1.43c0.451 0 0.817-0.366 0.817-0.817s-0.366-0.817-0.817-0.817v0z"></path>
<path fill="#f68b1f" d="M6.544 13.052h-1.43c-0.451 0-0.817 0.366-0.817 0.817s0.366 0.817 0.817 0.817h1.43c0.451 0 0.817-0.366 0.817-0.817s-0.366-0.817-0.817-0.817v0z"></path>
<path fill="#f68b1f" d="M12.264 17.791h-1.43c-0.451 0-0.817 0.366-0.817 0.817s0.366 0.817 0.817 0.817h1.43c0.451 0 0.817-0.366 0.817-0.817s-0.366-0.817-0.817-0.817v0z"></path>
<path fill="#f68b1f" d="M6.544 17.791h-1.43c-0.451 0-0.817 0.366-0.817 0.817s0.366 0.817 0.817 0.817h1.43c0.451 0 0.817-0.366 0.817-0.817s-0.366-0.817-0.817-0.817v0z"></path>
<path fill="#f68b1f" d="M27.463 22.626h-2.983v-4.208c0-0.451-0.366-0.817-0.817-0.817s-0.817 0.366-0.817 0.817v0 5.025c0 0.451 0.366 0.817 0.817 0.817v0h3.841c0.451 0 0.817-0.366 0.817-0.817s-0.366-0.817-0.817-0.817v0z"></path>
<path fill="#f68b1f" d="M16.758 13.052h-1.43c-0.451 0-0.817 0.366-0.817 0.817s0.366 0.817 0.817 0.817h1.43c0.451 0 0.817-0.366 0.817-0.817s-0.366-0.817-0.817-0.817v0z"></path>
</svg>
