<!-- Generated by IcoMoon.io -->
<svg version="1.1" xmlns="http://www.w3.org/2000/svg" width="32" height="32" viewBox="0 0 32 32">
<title>magnifying-glass-gray</title>
<path fill="#8a8b8a" d="M12.888-0.002c-0.009-0-0.019-0-0.030-0-7.118 0-12.888 5.77-12.888 12.888s5.77 12.888 12.888 12.888c3.098 0 5.94-1.093 8.163-2.914l-0.023 0.018 8.722 8.722c0.242 0.241 0.576 0.39 0.944 0.39s0.702-0.149 0.944-0.39l-0 0c0.241-0.239 0.391-0.571 0.391-0.938s-0.149-0.698-0.391-0.938l-8.722-8.722c1.799-2.198 2.889-5.036 2.889-8.13 0-7.115-5.768-12.883-12.883-12.883-0.002 0-0.004 0-0.006 0h0zM12.888 2.666c5.646 0 10.222 4.577 10.222 10.222s-4.577 10.222-10.222 10.222c-5.646 0-10.222-4.577-10.222-10.222v0c-0-0.007-0-0.015-0-0.022 0-5.634 4.567-10.202 10.202-10.202 0.007 0 0.015 0 0.022 0h-0.001z"></path>
</svg>
