<!-- Generated by IcoMoon.io -->
<svg version="1.1" xmlns="http://www.w3.org/2000/svg" width="32" height="32" viewBox="0 0 32 32">
<title>map-bus-stop-active</title>
<path fill="#0097d0" d="M8 0h16c4.418 0 8 3.582 8 8v16c0 4.418-3.582 8-8 8h-16c-4.418 0-8-3.582-8-8v-16c0-4.418 3.582-8 8-8z"></path>
<path fill="#fff" d="M20.652 5.908h-8.972c-0.078-0.008-0.169-0.012-0.26-0.012-1.52 0-2.752 1.232-2.752 2.752 0 0.092 0.004 0.182 0.013 0.272l-0.001-0.011v16.438h1.514v-2.244h11.952v2.244h1.496v-16.448c0.007-0.075 0.011-0.162 0.011-0.249 0-1.52-1.232-2.752-2.752-2.752-0.088 0-0.175 0.004-0.26 0.012l0.011-0.001zM22.146 21.608h-11.952v-12.71c0.052-0.804 0.692-1.444 1.491-1.496l0.005-0h8.962c0.804 0.052 1.444 0.692 1.496 1.491l0 0.005zM13.174 20.112v-1.496h-1.494v1.496zM20.652 18.616h-1.496v1.496h1.496zM7.194 17.122h17.942v-1.496h-17.942zM16.914 16.756v-5.6h-1.496v5.6zM8.69 11.888h14.952v-1.496h-14.952z"></path>
</svg>
