<!-- Generated by IcoMoon.io -->
<svg version="1.1" xmlns="http://www.w3.org/2000/svg" width="32" height="32" viewBox="0 0 32 32">
<title>map-bus-stop-inactive</title>
<path fill="#8a8b8a" d="M10.058 0h12.308c5.438 0 9.846 4.408 9.846 9.846v12.308c0 5.438-4.408 9.846-9.846 9.846h-12.308c-5.438 0-9.846-4.408-9.846-9.846v-12.308c0-5.438 4.408-9.846 9.846-9.846z"></path>
<path fill="#fff" d="M20.625 5.908h-8.972c-0.075-0.007-0.162-0.011-0.25-0.011-1.52 0-2.752 1.232-2.752 2.752 0 0.087 0.004 0.173 0.012 0.259l-0.001-0.011v16.45h1.494v-2.245h11.963v2.245h1.494v-16.45c0.007-0.074 0.011-0.16 0.011-0.247 0-1.52-1.232-2.752-2.752-2.752-0.087 0-0.173 0.004-0.258 0.012l0.011-0.001zM22.119 21.607h-11.961v-12.711c0.056-0.802 0.693-1.438 1.489-1.494l0.005-0h8.972c0.802 0.056 1.438 0.693 1.494 1.489l0 0.005zM13.15 20.111v-1.494h-1.497v1.494zM20.625 18.617h-1.494v1.494h1.494zM7.168 17.12h17.942v-1.494h-17.942zM16.886 16.748v-5.612h-1.494v5.612zM8.662 11.887h14.954v-1.489h-14.954z"></path>
</svg>
