<!-- Generated by IcoMoon.io -->
<svg version="1.1" xmlns="http://www.w3.org/2000/svg" width="32" height="32" viewBox="0 0 32 32">
<title>map-close</title>
<path fill="#8a8b8a" d="M31.317 0.68c0.421 0.421 0.681 1.003 0.681 1.645s-0.26 1.224-0.681 1.645l-12.027 12.027 12.027 12.027c0.453 0.426 0.734 1.028 0.734 1.697 0 1.286-1.042 2.328-2.328 2.328-0.669 0-1.271-0.282-1.696-0.733l-0.001-0.001-12.027-12.027-12.027 12.027c-0.426 0.453-1.029 0.736-1.698 0.736-1.286 0-2.328-1.042-2.328-2.328 0-0.668 0.281-1.27 0.732-1.695l0.001-0.001 12.027-12.027-12.027-12.027c-0.421-0.421-0.682-1.004-0.682-1.647 0-1.286 1.043-2.329 2.329-2.329 0.643 0 1.225 0.261 1.647 0.682l12.027 12.027 12.027-12.027c0.421-0.421 1.003-0.681 1.645-0.681s1.224 0.26 1.645 0.681l-0-0z"></path>
</svg>
