<!-- Generated by IcoMoon.io -->
<svg version="1.1" xmlns="http://www.w3.org/2000/svg" width="32" height="32" viewBox="0 0 32 32">
<title>md-circle-train-gray</title>
<path fill="#8a8b8a" d="M16.125 8.813l-4.042 1.853c-0.421 0.337-1.095 1.179-1.095 2.105v4.379c0 1.179 0.842 2.105 1.937 2.105h6.063c1.095 0 1.937-0.926 1.937-2.105v-4.379c0-0.926-0.674-1.768-1.095-2.189l-3.705-1.768zM16.125 6.961l4.716 2.274c0 0 1.853 1.516 1.853 3.621v4.379c0 2.105-1.6 3.789-3.621 3.789h-6.147c-2.021 0-3.621-1.684-3.621-3.789v-4.463c0-2.105 1.853-3.621 1.853-3.621l4.968-2.189z"></path>
<path fill="#8a8b8a" d="M14.143 16.435c0 0.512-0.415 0.926-0.926 0.926s-0.926-0.415-0.926-0.926c0-0.512 0.415-0.926 0.926-0.926s0.926 0.415 0.926 0.926z"></path>
<path fill="#8a8b8a" d="M20.291 16.435c0 0.512-0.415 0.926-0.926 0.926s-0.926-0.415-0.926-0.926c0-0.512 0.415-0.926 0.926-0.926s0.926 0.415 0.926 0.926z"></path>
<path fill="#8a8b8a" d="M15.154 4.562h1.684v3.032h-1.684v-3.032z"></path>
<path fill="#8a8b8a" d="M16.075 5.544c-0.253 0-0.674 0.168-1.011 0.421h-0.084l-0.084 0.084c0 0-0.842 0.421-1.432 0.926v0 0c-1.095 0.926-1.263 1.347-1.263 1.516l0.084-0.084 3.032-1.179 0.589-0.253 0.589 0.253 3.032 1.179 0.253 0.084c0-0.253-0.337-0.758-1.095-1.432-0.758-0.589-1.516-1.011-1.516-1.011l-0.168-0.084-0.084-0.084c-0.253-0.084-0.674-0.337-0.842-0.337zM16.075 3.859c0.926 0 1.853 0.674 1.853 0.674s3.537 1.853 3.537 4.042v3.284l-2.442-1.853-3.032-1.179-3.032 1.179-2.442 1.853v-3.284c0-1.095 0.842-2.021 1.853-2.863 0.758-0.674 1.768-1.179 1.768-1.179s1.011-0.674 1.937-0.674z"></path>
<path fill="#8a8b8a" d="M17.175 11.888c0 0.651-0.528 1.179-1.179 1.179s-1.179-0.528-1.179-1.179c0-0.651 0.528-1.179 1.179-1.179s1.179 0.528 1.179 1.179z"></path>
<path fill="#8a8b8a" d="M10.522 19.804l-2.442 6.063h1.179l2.442-6.063h-1.179z"></path>
<path fill="#8a8b8a" d="M9.512 26.204h-1.937l2.695-6.737h1.937l-2.695 6.737zM8.585 25.53h0.505l2.189-5.474h-0.589l-2.105 5.474z"></path>
<path fill="#8a8b8a" d="M21.469 19.804l2.442 6.063h-1.179l-2.442-6.063h1.179z"></path>
<path fill="#8a8b8a" d="M24.417 26.204h-1.937l-2.695-6.737h1.937l2.695 6.737zM22.901 25.53h0.505l-2.189-5.474h-0.505l2.189 5.474z"></path>
<path fill="#8a8b8a" d="M9.933 22.246h11.537v0.926h-11.537v-0.926z"></path>
<path fill="#8a8b8a" d="M21.806 23.425h-12.211v-1.516h12.211v1.516zM10.185 22.835h10.947v-0.253h-10.947v0.253z"></path>
<path fill="#8a8b8a" d="M9.259 24.941h13.389v0.926h-13.389v-0.926z"></path>
<path fill="#8a8b8a" d="M22.985 26.204h-13.979v-1.516h14.063v1.516zM9.596 25.53h12.8v-0.253h-12.8v0.253z"></path>
<path fill="#8a8b8a" d="M16 32c-8.842 0-16-7.158-16-16s7.158-16 16-16 16 7.158 16 16-7.158 16-16 16zM16 1.684c-7.916 0-14.316 6.4-14.316 14.316s6.4 14.316 14.316 14.316 14.316-6.4 14.316-14.316-6.4-14.316-14.316-14.316z"></path>
</svg>
