<!-- Generated by IcoMoon.io -->
<svg version="1.1" xmlns="http://www.w3.org/2000/svg" width="32" height="32" viewBox="0 0 32 32">
<title>triangle-exclamation-white</title>
<path fill="#fff" d="M27.541 30.481h-23.441c-0.002 0-0.004 0-0.005 0-2.258 0-4.088-1.83-4.088-4.088 0-0.754 0.204-1.46 0.56-2.066l-0.010 0.019 11.723-20.3c0.72-1.23 2.035-2.043 3.54-2.043s2.82 0.813 3.53 2.024l0.010 0.019 11.72 20.3c0.345 0.587 0.548 1.292 0.548 2.045 0 2.258-1.83 4.088-4.087 4.089h-0zM15.818 4.636c-0.005-0-0.011-0-0.018-0-0.529 0-0.991 0.29-1.235 0.719l-0.004 0.007-11.725 20.302c-0.123 0.209-0.196 0.46-0.196 0.728 0 0.802 0.651 1.453 1.453 1.453 0.002 0 0.004 0 0.006 0h23.441c0.802-0.001 1.451-0.651 1.451-1.453 0-0.268-0.072-0.518-0.199-0.734l0.004 0.007-11.72-20.3c-0.249-0.438-0.712-0.729-1.244-0.729-0.005 0-0.011 0-0.016 0h0.001z"></path>
<path fill="#fff" d="M16.042 20.401c-0 0-0.001 0-0.001 0-0.727 0-1.317-0.59-1.317-1.317 0-0 0-0.001 0-0.001v0-7.257c0-0.728 0.59-1.318 1.318-1.318s1.318 0.59 1.318 1.318v0 7.256c0 0.001 0 0.001 0 0.002 0 0.727-0.59 1.317-1.317 1.317-0 0-0.001 0-0.001 0h0z"></path>
<path fill="#fff" d="M17.624 23.474c0 0.874-0.708 1.582-1.582 1.582s-1.582-0.708-1.582-1.582c0-0.874 0.708-1.582 1.582-1.582s1.582 0.708 1.582 1.582z"></path>
</svg>
