<!-- Generated by IcoMoon.io -->
<svg version="1.1" xmlns="http://www.w3.org/2000/svg" width="32" height="32" viewBox="0 0 32 32">
<title>lg-circle-bus-gray</title>
<path fill="#8a8b8a" d="M16 32c-8.8 0-16-7.2-16-16s7.2-16 16-16c8.8 0 16 7.2 16 16s-7.2 16-16 16zM16 1.231c-8.123 0-14.769 6.646-14.769 14.769s6.646 14.769 14.769 14.769 14.769-6.646 14.769-14.769-6.646-14.769-14.769-14.769z"></path>
<path fill="#8a8b8a" d="M20.722 5.988h-8.985c-1.538-0.123-2.831 0.985-3.015 2.523 0 0.185 0 0.308 0 0.492v16.492h1.477v-2.277h12v2.277h1.477v-16.492c0.185-1.538-0.923-2.892-2.462-3.015-0.123 0-0.308 0-0.492 0zM22.261 21.742h-12v-12.738c0.062-0.8 0.677-1.477 1.477-1.538h8.985c0.8 0.062 1.415 0.677 1.477 1.477v12.8zM13.215 20.204v-1.477h-1.477v1.477h1.477zM20.722 18.727h-1.477v1.477h1.477v-1.477zM7.246 17.25h17.969v-1.477h-17.969v1.477zM16.969 16.881v-5.662h-1.477v5.6l1.477 0.062zM8.722 11.958h15.015v-1.477h-15.015v1.477z"></path>
</svg>
