<!-- Generated by IcoMoon.io -->
<svg version="1.1" xmlns="http://www.w3.org/2000/svg" width="32" height="32" viewBox="0 0 32 32">
<title>lg-circle-linkedin-gray</title>
<path fill="#626462" d="M13.974 11.741h-2.432c-0.256 0-0.512 0.192-0.512 0.512 0 0 0 0 0 0v9.152c0 0.256 0.192 0.512 0.512 0.512h2.432c0.256 0 0.512-0.192 0.512-0.512v-9.152c0-0.32-0.256-0.512-0.512-0.512zM13.59 21.021h-1.728v-8.448h1.728v8.448z"></path>
<path fill="#626462" d="M12.758 7.453c-0.96 0-1.728 0.768-1.728 1.728s0.768 1.728 1.728 1.728 1.728-0.768 1.728-1.728v0c0-0.96-0.768-1.728-1.728-1.728zM12.758 10.077c-0.512 0-0.896-0.384-0.896-0.896s0.384-0.896 0.896-0.896c0.512 0 0.896 0.384 0.896 0.896 0 0 0 0 0 0 0 0.512-0.384 0.896-0.896 0.896z"></path>
<path fill="#626462" d="M22.358 12.829c-0.576-0.512-1.344-0.768-2.112-0.704-0.448 0-0.96 0.128-1.344 0.32v-0.256c0-0.256-0.192-0.448-0.448-0.448v0h-2.496c-0.256 0-0.448 0.192-0.448 0.448v0 9.216c0 0.256 0.192 0.448 0.448 0.448v0h2.496c0.256 0 0.448-0.192 0.448-0.448v-5.504c0-0.448 0.384-0.832 0.832-0.896 0.448 0 0.896 0.384 0.896 0.832 0 0 0 0 0 0v5.504c0 0.256 0.192 0.384 0.384 0.384h2.432c0.256 0 0.384-0.192 0.384-0.384v-5.376c0.064-1.152-0.512-2.368-1.472-3.136zM23.062 21.021h-1.536v-5.056c0-0.96-0.768-1.728-1.728-1.728s-1.728 0.768-1.728 1.728v5.056h-1.728v-8.448h1.728v0.64c0 0.256 0.192 0.448 0.448 0.448 0.128 0 0.192-0.064 0.256-0.128 0.448-0.384 0.96-0.576 1.536-0.576s1.088 0.192 1.536 0.512c0.768 0.64 1.28 1.664 1.216 2.688v4.864z"></path>
<path fill="#626462" d="M16 32c-8.832 0-16-7.168-16-16s7.168-16 16-16 16 7.168 16 16-7.168 16-16 16zM16 0.96c-8.32 0-15.040 6.72-15.040 15.040s6.72 15.040 15.040 15.040 15.040-6.72 15.040-15.040-6.72-15.040-15.040-15.040z"></path>
</svg>
