<!-- Generated by IcoMoon.io -->
<svg version="1.1" xmlns="http://www.w3.org/2000/svg" width="32" height="32" viewBox="0 0 32 32">
<title>lg-circle-twitter-gray</title>
<path fill="#626462" d="M14.4 22.080c-2.432 0-4.352-0.448-5.312-1.152v0 0c-0.192-0.192-0.32-0.512-0.192-0.768v0c0.128-0.256 0.384-0.448 0.704-0.448 0.576 0 1.152-0.064 1.664-0.256-0.768-0.384-1.408-1.088-1.664-1.92-0.128-0.32 0-0.64 0.256-0.768 0.064-0.064 0.128-0.064 0.192-0.128-0.448-0.512-0.768-1.088-0.96-1.664v0 0c-0.064-0.32 0.064-0.576 0.32-0.768 0.128-0.064 0.192-0.064 0.32-0.064-0.128-0.256-0.192-0.512-0.256-0.832-0.128-0.768 0-1.6 0.384-2.304l0.064-0.192c0.128-0.256 0.448-0.384 0.704-0.256 0.064 0 0.064 0.064 0.128 0.128l0.192 0.192c1.152 1.28 2.752 2.176 4.48 2.432 0.064-0.768 0.448-1.472 0.96-2.048 0.64-0.64 1.472-1.024 2.432-1.088v0c0.704 0.064 1.408 0.32 1.984 0.64 0.448-0.128 0.96-0.384 1.472-0.576 0.256-0.128 0.576-0.064 0.768 0.128s0.256 0.512 0.128 0.704c-0.064 0.128-0.064 0.192-0.128 0.32 0.064 0.064 0.128 0.064 0.192 0.128 0.192 0.192 0.256 0.448 0.192 0.704v0c-0.192 0.64-0.576 1.152-1.152 1.536-0.064 4.544-3.584 8.32-7.872 8.32zM9.92 20.48c0.896 0.512 2.496 0.768 4.48 0.768 1.92 0 3.712-0.832 4.992-2.24 1.344-1.472 2.112-3.456 2.112-5.504v0c0-0.192 0.128-0.384 0.256-0.448 0.32-0.192 0.64-0.512 0.768-0.896-0.256 0.064-0.512-0.128-0.576-0.448 0-0.128 0-0.256 0.064-0.384s0.128-0.192 0.192-0.32c-0.448 0.192-0.896 0.384-1.28 0.512-0.128 0.064-0.32 0-0.448-0.064-0.512-0.32-1.088-0.512-1.728-0.64-1.472 0.064-2.56 1.28-2.56 2.688 0 0.256-0.256 0.512-0.512 0.512-0.064 0-0.064 0-0.128 0-1.984-0.256-3.776-1.152-5.12-2.56-0.192 0.448-0.256 0.96-0.192 1.472 0.128 0.512 0.384 1.024 0.768 1.408 0.192 0.192 0.192 0.512-0.064 0.704-0.128 0.128-0.32 0.128-0.448 0.128-0.192-0.064-0.32-0.128-0.448-0.192 0.32 0.704 0.832 1.28 1.472 1.728 0.256 0.128 0.32 0.448 0.128 0.704-0.128 0.128-0.256 0.256-0.448 0.192-0.256 0-0.448-0.064-0.64-0.128 0.32 0.704 1.024 1.216 1.856 1.28 0.256 0.064 0.448 0.32 0.384 0.576 0 0.128-0.128 0.256-0.256 0.384-0.832 0.448-1.664 0.704-2.624 0.768z"></path>
<path fill="#626462" d="M16 32c-8.832 0-16-7.168-16-16s7.168-16 16-16 16 7.168 16 16-7.168 16-16 16zM16 0.96c-8.32 0-15.040 6.72-15.040 15.040s6.72 15.040 15.040 15.040 15.040-6.72 15.040-15.040-6.72-15.040-15.040-15.040z"></path>
</svg>
