<!-- Generated by IcoMoon.io -->
<svg version="1.1" xmlns="http://www.w3.org/2000/svg" width="32" height="32" viewBox="0 0 32 32">
<title>lg-circle-facebook-gray</title>
<path fill="#626462" d="M17.024 23.424h-2.368c-0.384 0-0.704-0.32-0.704-0.704v-5.312h-1.344c-0.384 0-0.704-0.32-0.704-0.704v-2.304c0-0.384 0.32-0.704 0.704-0.704h1.344v-1.152c-0.064-1.024 0.32-2.048 1.024-2.752s1.728-1.088 2.752-1.024h1.792c0.384 0 0.704 0.32 0.704 0.704v2.112c0 0.384-0.32 0.704-0.704 0.704h-1.216c-0.384 0-0.448 0.064-0.512 0.128s-0.064 0.128-0.064 0.448v0.896h1.664c0.128 0 0.256 0 0.384 0.064 0.256 0.128 0.384 0.384 0.384 0.64v2.304c0 0.384-0.32 0.704-0.704 0.704h-1.664v5.312c-0.064 0.32-0.32 0.64-0.768 0.64 0 0 0 0 0 0zM14.848 22.528h2.048v-5.568c0-0.256 0.192-0.448 0.448-0.448h1.92v-1.984h-1.92c-0.256 0-0.448-0.192-0.448-0.448v-1.28c0-0.384 0.064-0.704 0.256-1.024 0.32-0.256 0.704-0.448 1.152-0.384h1.088v-1.792h-1.664c-1.792 0-2.88 1.152-2.88 2.944v1.536c0 0.256-0.192 0.448-0.448 0.448h-1.6v1.984h1.6c0.256 0 0.448 0.192 0.448 0.448v5.568zM19.52 9.6v0z"></path>
<path fill="#626462" d="M16 32c-8.832 0-16-7.168-16-16s7.168-16 16-16 16 7.168 16 16-7.168 16-16 16zM16 0.96c-8.32 0-15.040 6.72-15.040 15.040s6.72 15.040 15.040 15.040 15.040-6.72 15.040-15.040-6.72-15.040-15.040-15.040z"></path>
</svg>
