<!-- Generated by IcoMoon.io -->
<svg version="1.1" xmlns="http://www.w3.org/2000/svg" width="32" height="32" viewBox="0 0 32 32">
<title>lg-circle-exclamation-color</title>
<path fill="#0097d0" d="M16 1.28c-1.988 0-3.915 0.389-5.729 1.156-1.753 0.741-3.327 1.803-4.679 3.155s-2.414 2.927-3.155 4.679c-0.767 1.814-1.156 3.742-1.156 5.729s0.389 3.915 1.156 5.729c0.741 1.753 1.803 3.327 3.155 4.679s2.927 2.414 4.679 3.155c1.814 0.767 3.742 1.156 5.729 1.156s3.915-0.389 5.729-1.156c1.753-0.741 3.327-1.803 4.679-3.155s2.414-2.927 3.155-4.679c0.767-1.814 1.156-3.742 1.156-5.729s-0.389-3.915-1.156-5.729c-0.741-1.753-1.803-3.327-3.155-4.679s-2.927-2.414-4.679-3.155c-1.814-0.767-3.742-1.156-5.729-1.156zM16 0c8.837 0 16 7.163 16 16s-7.163 16-16 16c-8.837 0-16-7.163-16-16s7.163-16 16-16z"></path>
<path fill="#0053a0" d="M16.374 8.396c-2.486 0.030-4.493 2.038-4.522 4.522l-0 0.003c0 0.416 0.338 0.754 0.754 0.754s0.754-0.338 0.754-0.754v0c0-1.665 1.35-3.015 3.015-3.015s3.015 1.35 3.015 3.015v0c0.012 1.307-0.695 1.984-1.625 2.827-0.514 0.434-0.974 0.901-1.387 1.406l-0.015 0.019c-0.455 0.579-0.733 1.316-0.742 2.118l-0 0.002v0.412c0 0.416 0.338 0.754 0.754 0.754s0.754-0.338 0.754-0.754v0-0.412c-0-0.005-0-0.011-0-0.018 0-0.458 0.165-0.877 0.438-1.201l-0.002 0.003c0.375-0.443 0.773-0.841 1.201-1.204l0.015-0.012c0.96-0.872 2.131-2.048 2.12-3.946 0-0.004 0-0.008 0-0.012-0.039-2.48-2.045-4.48-4.524-4.508l-0.003-0zM16.374 21.587c-0.625 0-1.131 0.506-1.131 1.131s0.506 1.131 1.131 1.131c0.625 0 1.131-0.506 1.131-1.131v0c-0-0.624-0.507-1.13-1.131-1.13v0z"></path>
</svg>
