<!-- Generated by IcoMoon.io -->
<svg version="1.1" xmlns="http://www.w3.org/2000/svg" width="32" height="32" viewBox="0 0 32 32">
<title>lg-circle-instagram-gray</title>
<path fill="#626462" d="M19.528 8.733h-6.656c-2.176 0-3.904 1.728-3.904 3.904v6.656c0 2.176 1.728 3.904 3.904 3.904h6.656c2.176 0 3.904-1.728 3.904-3.904v-6.656c0-2.176-1.728-3.904-3.904-3.904zM22.6 19.293c0 1.728-1.344 3.072-3.072 3.072h-6.656c-1.728 0-3.072-1.344-3.072-3.072v-6.656c0-1.728 1.344-3.072 3.072-3.072 0 0 0 0 0 0h6.656c1.728 0 3.072 1.344 3.072 3.072v6.656z"></path>
<path fill="#626462" d="M16.2 11.997c-2.176 0-3.968 1.792-3.968 3.968s1.792 3.968 3.968 3.968c2.176 0 3.968-1.792 3.968-3.968s-1.792-3.968-3.968-3.968zM16.2 19.101c-1.728 0-3.136-1.408-3.136-3.136s1.408-3.136 3.136-3.136 3.136 1.408 3.136 3.136c0 1.728-1.408 3.136-3.136 3.136v0z"></path>
<path fill="#626462" d="M20.232 10.589c-0.64 0-1.152 0.512-1.152 1.152s0.512 1.152 1.152 1.152 1.152-0.512 1.152-1.152c0.064-0.64-0.448-1.152-1.152-1.152zM20.232 12.125c-0.192 0-0.32-0.128-0.32-0.32s0.128-0.32 0.32-0.32 0.32 0.128 0.32 0.32c0 0.128-0.128 0.32-0.32 0.32z"></path>
<path fill="#626462" d="M16 32c-8.832 0-16-7.168-16-16s7.168-16 16-16 16 7.168 16 16-7.168 16-16 16zM16 0.96c-8.32 0-15.040 6.72-15.040 15.040s6.72 15.040 15.040 15.040 15.040-6.72 15.040-15.040-6.72-15.040-15.040-15.040z"></path>
</svg>
