<!-- Generated by IcoMoon.io -->
<svg version="1.1" xmlns="http://www.w3.org/2000/svg" width="37" height="32" viewBox="0 0 37 32">
<title>lg-directions-color</title>
<path fill="#f68b1f" d="M6.519 15.158c-3.63 0-6.519 2.889-6.519 6.519s2.889 6.519 6.519 6.519h10l-2.37 2.37c-0.296 0.296-0.296 0.889 0 1.185s0.889 0.296 1.185 0l3.778-3.778c0.296-0.296 0.296-0.889 0-1.185 0 0 0 0 0 0l-3.778-3.778c0 0 0-0.074-0.074-0.074-0.37-0.296-0.889-0.296-1.185 0.074s-0.296 0.889 0.074 1.185v0l2.37 2.37h-10c-2.667 0-4.815-2.222-4.815-4.889 0-2.593 2.148-4.741 4.815-4.815h20.815c0.444 0 0.815-0.37 0.815-0.815s-0.37-0.815-0.815-0.815c0 0 0 0 0 0l-20.815-0.074z"></path>
<path fill="#ed1b2e" d="M11.324 0c-2.519 0-4.593 2.074-4.593 4.593 0 2.593 2.074 4.667 4.593 4.667 2.222 0 4.148-1.556 4.519-3.778h14.593c2.667 0 4.815 2.148 4.815 4.815 0 0 0 0 0 0.074 0.148 2.519-1.852 4.741-4.37 4.815-0.074 0-0.148 0-0.222 0-0.444 0-0.815 0.37-0.815 0.815s0.37 0.815 0.815 0.815c3.556 0 6.37-2.889 6.296-6.444 0 0 0-0.074 0-0.074 0-3.63-2.889-6.519-6.519-6.519h-14.519c-0.444-2.148-2.296-3.778-4.593-3.778zM11.324 1.704c1.63 0 2.963 1.333 2.963 2.963s-1.333 2.963-2.963 2.963-2.963-1.333-2.963-2.963v0c0.074-1.63 1.333-2.963 2.963-2.963 0 0 0 0 0 0z"></path>
<path fill="#0097d0" d="M11.324 0c-2.519 0-4.593 2.074-4.593 4.593 0 2.593 2.074 4.667 4.593 4.667 2.222 0 4.148-1.556 4.519-3.778h14.593c2.667 0 4.815 2.148 4.815 4.815 0 0 0 0 0 0.074 0.148 2.519-1.852 4.741-4.37 4.815-0.074 0-0.148 0-0.222 0-0.444 0-0.815 0.37-0.815 0.815s0.37 0.815 0.815 0.815c3.556 0 6.37-2.889 6.296-6.444 0 0 0-0.074 0-0.074 0-3.63-2.889-6.519-6.519-6.519h-14.519c-0.444-2.148-2.296-3.778-4.593-3.778zM11.324 1.704c1.63 0 2.963 1.333 2.963 2.963s-1.333 2.963-2.963 2.963-2.963-1.333-2.963-2.963v0c0.074-1.63 1.333-2.963 2.963-2.963 0 0 0 0 0 0z"></path>
<path fill="#ed1b2e" d="M26.235 31.687c-2.593 0-4.667-2.074-4.667-4.593s2.074-4.667 4.667-4.667 4.667 2.074 4.667 4.667-2.148 4.593-4.667 4.593zM26.235 23.91c-1.778 0-3.185 1.407-3.185 3.185s1.407 3.185 3.185 3.185 3.185-1.407 3.185-3.185-1.481-3.185-3.185-3.185z"></path>
</svg>
