<!-- Generated by IcoMoon.io -->
<svg version="1.1" xmlns="http://www.w3.org/2000/svg" width="60" height="32" viewBox="0 0 60 32">
<title>sm-chevron-up-white</title>
<path fill="#fff" d="M57.584 32c-0.757-0.004-1.44-0.314-1.934-0.812l-0-0-25.491-24.633-25.484 24.633c-0.503 0.547-1.222 0.889-2.021 0.889-1.515 0-2.743-1.228-2.743-2.743 0-0.83 0.369-1.574 0.951-2.077l0.004-0.003 27.396-26.475c0.493-0.477 1.165-0.771 1.906-0.771s1.413 0.294 1.907 0.771l-0.001-0.001 27.396 26.475c0.54 0.502 0.877 1.217 0.877 2.010 0 1.515-1.228 2.743-2.743 2.743-0.004 0-0.008 0-0.013-0h0.001z"></path>
</svg>
