<!-- Generated by IcoMoon.io -->
<svg version="1.1" xmlns="http://www.w3.org/2000/svg" width="32" height="32" viewBox="0 0 32 32">
<title>sm-circle-lrt-green</title>
<path fill="none" stroke="#008244" stroke-linejoin="miter" stroke-linecap="butt" stroke-miterlimit="4" stroke-width="1.6842" d="M31.158 16c0 8.371-6.786 15.158-15.158 15.158s-15.158-6.786-15.158-15.158c0-8.371 6.786-15.158 15.158-15.158s15.158 6.786 15.158 15.158z"></path>
<path fill="#008244" d="M13.214 23.501h6.387c0.012 0 0.026 0 0.041 0 1.741 0 3.153-1.412 3.153-3.153 0-0.014-0-0.029-0-0.043l0 0.002v-9.581c0-0.015 0-0.033 0-0.051 0-1.736-1.407-3.143-3.143-3.143-0.018 0-0.036 0-0.054 0l0.003-0h-6.387c-0.012-0-0.026-0-0.041-0-1.741 0-3.153 1.412-3.153 3.153 0 0.014 0 0.029 0 0.043l-0-0.002v9.58c-0 0.010-0 0.021-0 0.032 0 1.746 1.416 3.162 3.162 3.162 0.011 0 0.022-0 0.033-0h-0.002zM11.219 26.694h1.805l1.996-3.193h-1.805zM19.808 26.694h1.789l-1.996-3.193h-1.788zM16.407 20.307c0.859-0.059 1.541-0.741 1.6-1.595l0-0.005c-0.059-0.859-0.741-1.541-1.595-1.6l-0.005-0c-0.859 0.059-1.541 0.741-1.6 1.595l-0 0.005c0.059 0.859 0.741 1.542 1.596 1.6l0.005 0zM13.213 21.907c-0.039 0.004-0.084 0.006-0.129 0.006-0.815 0-1.476-0.661-1.476-1.476 0-0.046 0.002-0.091 0.006-0.135l-0 0.006v-9.581c-0.004-0.041-0.006-0.089-0.006-0.138 0-0.811 0.658-1.469 1.469-1.469 0.049 0 0.097 0.002 0.144 0.007l-0.006-0h6.387c0.044-0.005 0.095-0.007 0.146-0.007 0.807 0 1.461 0.654 1.461 1.461 0 0.052-0.003 0.102-0.008 0.153l0.001-0.006v9.58c0.004 0.041 0.006 0.089 0.006 0.138 0 0.811-0.658 1.469-1.469 1.469-0.049 0-0.097-0.002-0.144-0.007l0.006 0zM11.621 15.517h9.577v-1.6h-9.577zM15.613 7.534h1.6v-1.6h2.395v-1.6h-6.393v1.6h2.395z"></path>
</svg>
