<!-- Generated by IcoMoon.io -->
<svg version="1.1" xmlns="http://www.w3.org/2000/svg" width="32" height="32" viewBox="0 0 32 32">
<title>sm-circle-train-gray</title>
<path fill="#8a8b8a" d="M16.108 8.828l-4.047 1.814c-0.36 0.361-1.073 1.243-1.073 2.169v4.401c0 1.152 0.884 2.088 1.971 2.088h6.092c1.087 0 1.971-0.937 1.971-2.088v-4.401c0-0.915-0.698-1.791-1.094-2.18l-3.819-1.803zM16.126 6.974l4.747 2.242c0 0 1.832 1.512 1.832 3.596v4.401c0 2.084-1.636 3.773-3.655 3.773h-6.092c-2.019 0-3.655-1.689-3.655-3.773v-4.401c0-2.084 1.822-3.596 1.822-3.596l5-2.242z"></path>
<path fill="#8a8b8a" d="M14.172 16.417c0 0.505-0.409 0.914-0.914 0.914s-0.914-0.409-0.914-0.914c0-0.505 0.409-0.914 0.914-0.914s0.914 0.409 0.914 0.914z"></path>
<path fill="#8a8b8a" d="M20.264 16.417c0 0.505-0.409 0.914-0.914 0.914s-0.914-0.409-0.914-0.914c0-0.505 0.409-0.914 0.914-0.914s0.914 0.409 0.914 0.914z"></path>
<path fill="#8a8b8a" d="M16.060 5.572c-0.221 0-0.696 0.2-0.977 0.38l-0.073 0.050-0.103 0.051c-0.008 0.004-0.82 0.415-1.448 0.932l-0.004 0.004c-1.064 0.871-1.228 1.358-1.251 1.516l3.795-1.518 3.796 1.518c-0.031-0.269-0.338-0.788-1.129-1.437-0.747-0.614-1.529-1.016-1.533-1.018l-0.107-0.049-0.111-0.083c-0.241-0.165-0.655-0.347-0.856-0.347zM16.060 3.888c0.914 0 1.834 0.66 1.834 0.66s3.589 1.815 3.589 4.001v3.299l-2.437-1.828-3.046-1.218-3.046 1.218-2.437 1.828v-3.299c0-1.056 0.848-2.025 1.872-2.863 0.793-0.653 1.765-1.138 1.765-1.138s0.993-0.66 1.907-0.66z"></path>
<path fill="#8a8b8a" d="M17.219 11.848c0 0.673-0.546 1.219-1.219 1.219s-1.219-0.546-1.219-1.219c0-0.673 0.546-1.219 1.219-1.219s1.219 0.546 1.219 1.219z"></path>
<path fill="#8a8b8a" stroke="#8a8b8a" stroke-linejoin="miter" stroke-linecap="butt" stroke-miterlimit="4" stroke-width="0.6316" d="M10.517 19.767l-2.437 6.092h1.219l2.437-6.092z"></path>
<path fill="#8a8b8a" stroke="#8a8b8a" stroke-linejoin="miter" stroke-linecap="butt" stroke-miterlimit="4" stroke-width="0.6316" d="M21.483 19.769l2.437 6.091h-1.219l-2.437-6.091z"></path>
<path fill="#8a8b8a" stroke="#8a8b8a" stroke-linejoin="miter" stroke-linecap="butt" stroke-miterlimit="4" stroke-width="0.6316" d="M9.907 22.205h11.575v0.915h-11.575z"></path>
<path fill="#8a8b8a" stroke="#8a8b8a" stroke-linejoin="miter" stroke-linecap="butt" stroke-miterlimit="4" stroke-width="0.6316" d="M9.299 24.947h13.403v0.915h-13.403z"></path>
<path fill="none" stroke="#8a8b8a" stroke-linejoin="miter" stroke-linecap="butt" stroke-miterlimit="4" stroke-width="1.6842" d="M16 0.842c8.371 0 15.158 6.786 15.158 15.158s-6.786 15.158-15.158 15.158c-8.371 0-15.158-6.786-15.158-15.158v0c0-8.371 6.786-15.158 15.158-15.158v0z"></path>
</svg>
