<!-- Generated by IcoMoon.io -->
<svg version="1.1" xmlns="http://www.w3.org/2000/svg" width="32" height="32" viewBox="0 0 32 32">
<title>sm-circle-person-color</title>
<path fill="none" stroke="#a5cf4c" stroke-linejoin="miter" stroke-linecap="butt" stroke-miterlimit="4" stroke-width="1.6842" d="M16 0.842c4.184 0.011 7.97 1.705 10.719 4.44l-0.001-0.001c2.742 2.714 4.44 6.478 4.44 10.639 0 0.028-0 0.056-0 0.084l0-0.004c0 8.371-6.786 15.158-15.158 15.158s-15.158-6.786-15.158-15.158c0-8.371 6.786-15.158 15.158-15.158v0z"></path>
<path fill="#8a8b8a" d="M15.789 12.126c1.425-0.001 2.58-1.157 2.58-2.583s-1.156-2.583-2.583-2.583-2.583 1.156-2.583 2.583v0c0.001 1.427 1.158 2.583 2.585 2.583v0zM15.789 8.253c0.713 0 1.291 0.578 1.291 1.291s-0.578 1.291-1.291 1.291c-0.713 0-1.291-0.578-1.291-1.291v0c0-0.713 0.578-1.291 1.291-1.292h0z"></path>
<path fill="#8a8b8a" d="M11.267 17.938c0.003-2.851 2.314-5.162 5.165-5.165h0.646c0.357 0 0.646 0.289 0.646 0.646v0 0.646c0.001 1.426 1.157 2.581 2.583 2.583h0c0.347 0.013 0.623 0.297 0.623 0.645s-0.276 0.633-0.621 0.645l-0.001 0c-0.001 0-0.002 0-0.004 0-0.993 0-1.899-0.375-2.583-0.992l0.003 0.003v1.635c-0.013 0.347-0.297 0.623-0.645 0.623s-0.633-0.276-0.645-0.621l-0-0.001v-4.52c-0.463 0.001-0.907 0.084-1.318 0.234l0.027-0.009v3.699c0 0.002-0 0.005-0 0.008 0 0.609 0.282 1.151 0.723 1.505l0.004 0.003 2.259 1.807c0.072 0.058 0.131 0.13 0.173 0.212l0.002 0.004 1.291 2.583c0.045 0.085 0.071 0.187 0.071 0.294 0 0.357-0.289 0.646-0.646 0.646-0.253 0-0.473-0.146-0.578-0.358l-0.002-0.004-1.228-2.456-1.035-0.828-0.421 1.263c-0.034 0.099-0.087 0.183-0.156 0.253l-1.937 1.937c-0.115 0.107-0.27 0.173-0.44 0.173-0.357 0-0.646-0.289-0.646-0.646 0-0.17 0.066-0.325 0.173-0.44l-0 0 1.829-1.829 0.523-1.569-0.039-0.031c-0.741-0.593-1.212-1.498-1.212-2.513 0-0.003 0-0.005 0-0.008v0-2.936c-0.793 0.71-1.29 1.736-1.291 2.879v0c-0.013 0.347-0.297 0.623-0.645 0.623s-0.633-0.276-0.645-0.621l-0-0.001z"></path>
</svg>
