<!-- Generated by IcoMoon.io -->
<svg version="1.1" xmlns="http://www.w3.org/2000/svg" width="32" height="32" viewBox="0 0 32 32">
<title>sm-circle-location-pin-color</title>
<path fill="none" stroke="#a5cf4c" stroke-linejoin="miter" stroke-linecap="butt" stroke-miterlimit="4" stroke-width="1.6842" d="M16 0.842c4.184 0.011 7.97 1.705 10.719 4.44l-0.001-0.001c2.742 2.714 4.44 6.478 4.44 10.639 0 0.028-0 0.056-0 0.084l0-0.004c0 8.371-6.786 15.158-15.158 15.158s-15.158-6.786-15.158-15.158c0-8.371 6.786-15.158 15.158-15.158v0z"></path>
<path fill="none" stroke="#ed1b2e" stroke-linejoin="miter" stroke-linecap="butt" stroke-miterlimit="4" stroke-width="1.6842" d="M16 0.842c4.184 0.011 7.97 1.705 10.719 4.44l-0.001-0.001c2.742 2.714 4.44 6.478 4.44 10.639 0 0.028-0 0.056-0 0.084l0-0.004c0 8.371-6.786 15.158-15.158 15.158s-15.158-6.786-15.158-15.158c0-8.371 6.786-15.158 15.158-15.158v0z"></path>
<path fill="#8a8b8a" d="M15.979 8.627c-3.66 0.133-6.521 3.203-6.399 6.863l0 0.001c0.034 0.895 0.259 1.737 0.637 2.488l-0.017-0.037c0.672 1.378 1.453 2.558 2.364 3.623l-0.028-0.033c0.996 1.28 2.092 2.597 2.921 3.746 0.115 0.159 0.303 0.258 0.511 0.251 0.185-0.006 0.348-0.096 0.454-0.231l0.001-0.001c0.936-1.206 2.24-2.605 3.399-3.957 1.045-1.070 1.901-2.314 2.523-3.683l0.031-0.076c0.325-0.752 0.499-1.627 0.467-2.543-0-0.003-0-0.006-0-0.009l0 0c-0.132-3.66-3.201-6.523-6.861-6.401l-0.001 0zM16.021 9.833c0.003-0 0.006-0 0.009-0 2.992-0.105 5.502 2.235 5.607 5.227 0 0.003 0 0.007 0 0.010l-0-0.001c0 0.011 0.001 0.025 0.002 0.039 0.026 0.732-0.117 1.432-0.394 2.060l0.011-0.029c-0.005 0.011-0.011 0.026-0.016 0.042l0 0.004c-0.629 1.284-1.406 2.394-2.329 3.364l-0.002 0.002c-0.971 1.129-2.021 2.304-2.938 3.423-0.785-1.042-1.66-2.128-2.485-3.184-0.809-0.954-1.535-2.042-2.129-3.21l-0.047-0.102c-0.006-0.016-0.012-0.027-0.017-0.039v0c-0.295-0.57-0.479-1.245-0.504-1.962-0-0.010-0.001-0.019-0.001-0.029l0 0.002c-0-0.003-0-0.006-0-0.009-0.105-2.992 2.235-5.502 5.227-5.607 0.003-0 0.006-0 0.010-0l-0 0zM16.106 12.244c-1.665 0.058-2.967 1.455-2.909 3.12s1.455 2.967 3.12 2.909c1.665-0.058 2.967-1.455 2.909-3.12v0c-0.064-1.662-1.457-2.961-3.119-2.908l-0 0zM16.148 13.45c0-0 0.001-0 0.002-0 0.999-0.035 1.837 0.746 1.872 1.745s-0.746 1.837-1.745 1.872c-0.999 0.035-1.837-0.746-1.872-1.744v-0c-0-0.002-0-0.005-0-0.008-0.035-0.994 0.743-1.829 1.737-1.863 0.002-0 0.005-0 0.007-0h-0z"></path>
</svg>
