<!-- Generated by IcoMoon.io -->
<svg version="1.1" xmlns="http://www.w3.org/2000/svg" width="28" height="32" viewBox="0 0 28 32">
<title>sm-radio-waves-bus-white</title>
<path fill="#fff" d="M11.556 6.042c0.001-0.161-0.060-0.323-0.183-0.446s-0.285-0.184-0.446-0.183h-0c-1.413 0.003-2.826 0.544-3.905 1.622s-1.619 2.491-1.622 3.905v-0c0.004 0.154 0.066 0.308 0.184 0.426 0.246 0.246 0.644 0.246 0.889 0 0.118-0.118 0.179-0.272 0.184-0.427v0c0.002-1.095 0.421-2.188 1.257-3.024s1.929-1.254 3.024-1.257h-0c0.158-0.001 0.315-0.062 0.435-0.183s0.181-0.278 0.183-0.435v0z"></path>
<path fill="#fff" d="M3.216 10.963c0.004-1.975 0.76-3.949 2.267-5.456s3.481-2.263 5.456-2.267h-0c0.167 0.005 0.336-0.057 0.463-0.184 0.246-0.246 0.246-0.644 0-0.889-0.127-0.127-0.296-0.189-0.463-0.184h-0c-2.294 0.004-4.587 0.881-6.337 2.632s-2.628 4.043-2.632 6.338v-0c0.005 0.152 0.066 0.303 0.182 0.42 0.244 0.244 0.639 0.244 0.882 0 0.114-0.114 0.175-0.261 0.182-0.41l-0 0.001z"></path>
<path fill="#fff" d="M22.69 9.055h-10.59c-0.089-0.009-0.192-0.014-0.296-0.014-1.794 0-3.248 1.454-3.248 3.248 0 0.104 0.005 0.207 0.015 0.309l-0.001-0.013v19.415h1.765v-2.648h14.12v2.648h1.765v-19.415c0.009-0.089 0.014-0.192 0.014-0.296 0-1.794-1.454-3.248-3.248-3.248-0.104 0-0.207 0.005-0.309 0.015l0.013-0.001zM24.455 27.588h-14.12v-14.999c0.066-0.947 0.818-1.699 1.759-1.765l0.006-0h10.59c0.947 0.066 1.699 0.818 1.765 1.759l0 0.006zM13.864 25.823v-1.765h-1.764v1.765zM22.689 24.058h-1.764v1.765h1.765zM6.805 22.293h21.18v-1.765h-21.18zM18.277 21.851v-6.619h-1.763v6.619zM8.568 16.115h17.652v-1.765h-17.65z"></path>
</svg>
