<!-- Generated by IcoMoon.io -->
<svg version="1.1" xmlns="http://www.w3.org/2000/svg" width="36" height="32" viewBox="0 0 36 32">
<title>sm-triangle-exclamation-white</title>
<path fill="#fff" d="M30.945 32.001h-26.338c-0.002 0-0.004 0-0.006 0-2.537 0-4.593-2.056-4.593-4.593 0-0.847 0.229-1.64 0.629-2.322l-0.012 0.022 13.172-22.809c0.809-1.382 2.287-2.296 3.978-2.296s3.169 0.914 3.966 2.274l0.012 0.022 13.169 22.809c0.387 0.659 0.616 1.452 0.616 2.298 0 2.537-2.056 4.593-4.592 4.594h-0zM17.773 2.962c-0.006-0-0.013-0-0.020-0-0.595 0-1.113 0.325-1.387 0.808l-0.004 0.008-13.174 22.811c-0.138 0.235-0.22 0.517-0.22 0.818 0 0.902 0.731 1.633 1.633 1.633 0.002 0 0.004 0 0.007 0h26.338c0.901-0.001 1.63-0.732 1.63-1.633 0-0.301-0.081-0.583-0.223-0.825l0.004 0.008-13.169-22.809c-0.279-0.492-0.8-0.819-1.397-0.819-0.006 0-0.012 0-0.018 0h0.001z"></path>
<path fill="#fff" d="M18.025 20.675c-0 0-0.001 0-0.001 0-0.817 0-1.48-0.663-1.48-1.48 0-0 0-0.001 0-0.001v0-8.154c0-0.818 0.663-1.481 1.481-1.481s1.481 0.663 1.481 1.481v0 8.153c0 0.001 0 0.001 0 0.002 0 0.817-0.663 1.48-1.48 1.48-0 0-0.001 0-0.001 0h0z"></path>
<path fill="#fff" d="M19.802 24.128c0 0.982-0.796 1.778-1.778 1.778s-1.778-0.796-1.778-1.778c0-0.982 0.796-1.778 1.778-1.778s1.778 0.796 1.778 1.778z"></path>
</svg>
