<!-- Generated by IcoMoon.io -->
<svg version="1.1" xmlns="http://www.w3.org/2000/svg" width="32" height="32" viewBox="0 0 32 32">
<title>xs-arrow-left</title>
<path fill="#0097d0" d="M0.37 15.090l10.734-10.736c0.212-0.212 0.504-0.344 0.828-0.344 0.645 0 1.169 0.523 1.169 1.169 0 0.322-0.13 0.613-0.341 0.825l-8.755 8.749h26.818c0.65 0 1.178 0.527 1.178 1.178s-0.527 1.178-1.178 1.178v0h-26.818l8.755 8.75c0.218 0.208 0.353 0.501 0.353 0.825s-0.136 0.617-0.353 0.824l-0 0c-0.218 0.209-0.515 0.337-0.842 0.337s-0.623-0.128-0.842-0.337l0 0-10.741-10.736c-0.208-0.203-0.337-0.487-0.337-0.801 0-0.014 0-0.029 0.001-0.043l-0 0.002c0.017-0.329 0.155-0.622 0.37-0.84l-0 0z"></path>
</svg>
