<!-- Generated by IcoMoon.io -->
<svg version="1.1" xmlns="http://www.w3.org/2000/svg" width="32" height="32" viewBox="0 0 32 32">
<title>xs-avatar</title>
<path fill="#8a8b8a" d="M16 32c8.837 0 16-7.163 16-16s-7.163-16-16-16c-8.837 0-16 7.163-16 16v0c0.010 8.833 7.167 15.99 15.999 16h0.001zM16 29.539c-0.003 0-0.006 0-0.009 0-3.742 0-7.128-1.523-9.573-3.983l-0.001-0.001c2.449-2.46 5.838-3.982 9.582-3.982s7.133 1.522 9.582 3.981l0 0c-2.445 2.461-5.832 3.984-9.574 3.984-0.003 0-0.006 0-0.009 0h0zM11.077 14.189c0-2.719 2.204-4.923 4.923-4.923s4.923 2.204 4.923 4.923c0 2.719-2.204 4.923-4.923 4.923v0c-2.718-0.003-4.92-2.205-4.923-4.923v-0zM16 2.461c0.002 0 0.005 0 0.008 0 7.472 0 13.53 6.057 13.53 13.53 0 2.863-0.889 5.519-2.407 7.705l0.029-0.045c-1.754-1.708-3.903-3.019-6.298-3.78l-0.113-0.031c1.617-1.364 2.638-3.391 2.638-5.657 0-4.079-3.307-7.386-7.386-7.386s-7.386 3.307-7.386 7.386c0 2.266 1.020 4.293 2.627 5.648l0.011 0.009c-2.509 0.793-4.659 2.105-6.416 3.819l0.003-0.003c-1.49-2.143-2.381-4.8-2.381-7.666 0-7.472 6.057-13.53 13.53-13.53 0.004 0 0.008 0 0.012 0h-0.001z"></path>
</svg>
