<!-- Generated by IcoMoon.io -->
<svg version="1.1" xmlns="http://www.w3.org/2000/svg" width="32" height="32" viewBox="0 0 32 32">
<title>xs-bus</title>
<path fill="#8a8b8a" d="M24.097 0h-16.065c-3.346 0-5.355 1.846-5.355 4.923v27.079h2.677v-3.693h21.42v3.693h2.677v-27.079c0-3.077-2.008-4.923-5.355-4.923zM26.774 25.847h-21.42v-20.925c0.158-1.366 1.288-2.422 2.673-2.461l0.004-0h16.065c1.389 0.040 2.52 1.096 2.676 2.448l0.001 0.013zM10.709 23.386v-2.461h-2.677v2.461zM24.096 20.925h-2.676v2.461h2.677zM0 18.462h32.129v-2.461h-32.129zM17.403 17.846v-9.231h-2.677v9.231zM2.677 9.852h26.774v-2.461h-26.774z"></path>
</svg>
