<!-- Generated by IcoMoon.io -->
<svg version="1.1" xmlns="http://www.w3.org/2000/svg" width="32" height="32" viewBox="0 0 32 32">
<title>xs-calendar</title>
<path fill="#8a8b8a" d="M27.625 4.215h-4.214v-3.122c0-0.603-0.489-1.091-1.091-1.091s-1.091 0.489-1.091 1.091v3.122h-10.159v-3.122c0-0.603-0.489-1.091-1.091-1.091s-1.091 0.489-1.091 1.091v0 3.122h-4.214c-2.262 0.007-4.095 1.839-4.102 4.101v19.341c0.007 2.262 1.839 4.095 4.101 4.102h22.953c2.262-0.007 4.095-1.839 4.102-4.101v-19.341c-0.007-2.262-1.839-4.095-4.101-4.102h-0.001zM4.673 6.398h4.214v1.505c0 0.603 0.489 1.091 1.091 1.091s1.091-0.489 1.091-1.091v0-1.505h10.121v1.505c0 0.603 0.489 1.091 1.091 1.091s1.091-0.489 1.091-1.091v0-1.505h4.214c1.058 0.005 1.914 0.861 1.919 1.918v3.651h-26.752v-3.65c0.005-1.058 0.861-1.914 1.918-1.919h0zM27.625 29.576h-22.952c-1.058-0.005-1.914-0.861-1.919-1.918v-13.471h26.79v13.471c-0.005 1.058-0.861 1.914-1.918 1.919h-0z"></path>
<path fill="#8a8b8a" d="M8.962 15.767c-2.099 0-3.801 1.702-3.801 3.801s1.702 3.801 3.801 3.801v0c0.013 0 0.027 0 0.042 0 2.075 0 3.758-1.682 3.758-3.758 0-0.002 0-0.003 0-0.005v0c0-0.005 0-0.011 0-0.017 0-2.103-1.699-3.809-3.799-3.822h-0.001zM8.962 21.223c-0.896-0.011-1.618-0.74-1.618-1.638 0-0.006 0-0.013 0-0.019v0.001c-0-0.013-0.001-0.028-0.001-0.043 0-0.894 0.725-1.618 1.618-1.618s1.618 0.725 1.618 1.618c0 0.015-0 0.030-0.001 0.045l0-0.002c0 0.005 0 0.012 0 0.018 0 0.897-0.722 1.626-1.616 1.638h-0.001z"></path>
<path fill="#8a8b8a" d="M10.577 25.023h-3.27c-0.603 0-1.091 0.489-1.091 1.091s0.489 1.091 1.091 1.091h3.27c0.603 0 1.091-0.489 1.091-1.091s-0.489-1.091-1.091-1.091v0z"></path>
<path fill="#8a8b8a" d="M18.331 25.023h-3.273c-0.603 0-1.091 0.489-1.091 1.091s0.489 1.091 1.091 1.091h3.273c0.603 0 1.091-0.489 1.091-1.091s-0.489-1.091-1.091-1.091v0z"></path>
<path fill="#8a8b8a" d="M18.331 18.513h-3.273c-0.603 0-1.091 0.489-1.091 1.091s0.489 1.091 1.091 1.091h3.273c0.603 0 1.091-0.489 1.091-1.091s-0.489-1.091-1.091-1.091v0z"></path>
<path fill="#8a8b8a" d="M26.082 25.023h-3.273c-0.603 0-1.091 0.489-1.091 1.091s0.489 1.091 1.091 1.091h3.273c0.603 0 1.091-0.489 1.091-1.091s-0.489-1.091-1.091-1.091v0z"></path>
<path fill="#8a8b8a" d="M26.082 18.513h-3.273c-0.603 0-1.091 0.489-1.091 1.091s0.489 1.091 1.091 1.091h3.273c0.603 0 1.091-0.489 1.091-1.091s-0.489-1.091-1.091-1.091v0z"></path>
</svg>
