<!-- Generated by IcoMoon.io -->
<svg version="1.1" xmlns="http://www.w3.org/2000/svg" width="32" height="32" viewBox="0 0 32 32">
<title>xs-pencil</title>
<path fill="#0097d0" d="M31.502 6.594v0l-6.058-6.021c-0.354-0.356-0.845-0.576-1.387-0.576-0.447 0-0.858 0.15-1.188 0.402l0.005-0.003c-0.119 0.088-0.224 0.181-0.32 0.284l-0.001 0.001-19.663 19.633c-0.375 0.379-0.606 0.901-0.606 1.476 0 0.008 0 0.016 0 0.024v-0.001c-0.035 0.107-0.107 0.214-0.142 0.321l-2.102 8.046c-0.023 0.116-0.037 0.249-0.037 0.385 0 0.027 0.001 0.055 0.002 0.082l-0-0.004c-0.003 0.030-0.004 0.066-0.004 0.102 0 0.337 0.138 0.642 0.361 0.862l0 0c0.226 0.235 0.54 0.383 0.889 0.392l0.002 0h0.214c0.014 0.001 0.031 0.001 0.048 0.001 0.11 0 0.216-0.013 0.318-0.038l-0.009 0.002 8.088-1.927c0.178-0.037 0.334-0.112 0.466-0.216l-0.002 0.002c0.569-0.009 1.083-0.238 1.461-0.606l19.668-19.668c0.382-0.377 0.619-0.9 0.619-1.478 0-0.159-0.018-0.314-0.052-0.463l0.003 0.014c-0.121-0.397-0.317-0.74-0.573-1.028l0.002 0.003zM23.664 1.535c0.095-0.089 0.223-0.143 0.364-0.143 0.010 0 0.019 0 0.029 0.001l-0.001-0c0.155 0.006 0.293 0.073 0.392 0.177l0 0 0.107 0.107 5.952 5.945c0.099 0.107 0.16 0.251 0.16 0.41s-0.061 0.302-0.16 0.41l0-0-2.743 2.743c-0.107 0.099-0.251 0.16-0.41 0.16s-0.302-0.061-0.41-0.16l0 0-6.060-6.051c-0.109-0.096-0.178-0.236-0.178-0.392s0.069-0.296 0.177-0.391l0.001-0zM25.552 13.436c-0.107 0.099-0.251 0.16-0.41 0.16s-0.302-0.061-0.41-0.16l0 0-6.058-6.062c-0.099-0.107-0.16-0.251-0.16-0.41s0.061-0.302 0.16-0.41l-0 0 0.926-0.926c0.088 0.165 0.195 0.306 0.321 0.428l0 0 6.051 6.060c0.139 0.147 0.305 0.267 0.489 0.352l0.010 0.004zM3.924 30.040l-1.889-1.927 1.178-4.525 5.345 5.345zM10.836 28.22c-0.132 0.132-0.315 0.214-0.517 0.214s-0.384-0.082-0.517-0.214v0l-5.914-5.912c-0.131-0.127-0.212-0.303-0.214-0.499v-0c-0-0.006-0-0.013-0-0.020 0-0.19 0.083-0.361 0.214-0.479l0.001-0.001 13.468-13.468c0.118 0.205 0.236 0.38 0.364 0.546l-0.008-0.011 6.057 6.057c0.145 0.155 0.325 0.276 0.526 0.353l0.010 0.003z"></path>
</svg>
