<!-- Generated by IcoMoon.io -->
<svg version="1.1" xmlns="http://www.w3.org/2000/svg" width="17" height="32" viewBox="0 0 17 32">
<title>xs-pedestrian</title>
<path fill="#8a8b8a" d="M8.001 9.143c2.524-0.001 4.57-2.047 4.57-4.571s-2.047-4.571-4.571-4.571c-2.524 0-4.571 2.046-4.571 4.57v0c0.002 2.524 2.048 4.57 4.572 4.572h0zM8.001 2.286c1.263 0 2.286 1.024 2.286 2.286s-1.024 2.286-2.286 2.286c-1.263 0-2.286-1.024-2.286-2.286v0c0.001-1.262 1.024-2.285 2.286-2.286h0z"></path>
<path fill="#8a8b8a" d="M0 19.428c0.006-5.047 4.096-9.137 9.143-9.143h1.143c0.631 0 1.143 0.512 1.143 1.143v0 1.143c0.003 2.524 2.048 4.569 4.572 4.571h0c0.631 0 1.143 0.512 1.143 1.143s-0.512 1.143-1.143 1.143v0c-0.002 0-0.004 0-0.006 0-1.758 0-3.361-0.664-4.572-1.756l0.006 0.005v2.894c0 0.631-0.512 1.143-1.143 1.143s-1.143-0.512-1.143-1.143v0-8.001c-0.82 0.002-1.606 0.148-2.333 0.415l0.047-0.015v6.546c0 0.002 0 0.005 0 0.008 0 1.078 0.5 2.039 1.281 2.664l0.007 0.005 3.998 3.198c0.128 0.103 0.232 0.229 0.306 0.374l0.003 0.006 2.286 4.571c0.076 0.149 0.121 0.325 0.121 0.511 0 0.631-0.512 1.143-1.143 1.143-0.445 0-0.831-0.254-1.020-0.626l-0.003-0.006-2.174-4.347-1.831-1.46-0.74 2.234c-0.060 0.175-0.154 0.324-0.276 0.446l-3.429 3.429c-0.207 0.208-0.494 0.336-0.811 0.336-0.632 0-1.145-0.513-1.145-1.145 0-0.316 0.128-0.601 0.334-0.809l3.238-3.238 0.926-2.778-0.069-0.055c-1.312-1.051-2.144-2.652-2.144-4.448 0-0.005 0-0.010 0-0.015v0.001-5.185c-1.404 1.256-2.285 3.073-2.286 5.096v0c0 0.631-0.512 1.143-1.143 1.143s-1.143-0.512-1.143-1.143v0z"></path>
</svg>
