<!-- Generated by IcoMoon.io -->
<svg version="1.1" xmlns="http://www.w3.org/2000/svg" width="32" height="32" viewBox="0 0 32 32">
<title>xs-train</title>
<path fill="#fff" d="M11.312 27.867h9.291c0.018 0 0.039 0 0.060 0 2.532 0 4.585-2.053 4.585-4.585 0-0.021-0-0.042-0-0.064l0 0.003v-13.931c0-0.022 0.001-0.048 0.001-0.074 0-2.525-2.047-4.572-4.572-4.572-0.026 0-0.052 0-0.078 0.001l0.004-0h-9.291c-0.018-0-0.039-0-0.060-0-2.532 0-4.585 2.053-4.585 4.585 0 0.021 0 0.042 0 0.064l-0-0.003v13.936c-0 0.012-0 0.026-0 0.040 0 2.541 2.059 4.6 4.6 4.6 0.016 0 0.032-0 0.048-0l-0.002 0zM8.408 32.517h2.624l2.904-4.651h-2.624zM20.904 32.517h2.601l-2.903-4.651h-2.603zM15.957 23.227c1.246-0.087 2.236-1.076 2.322-2.315l0-0.008c-0.087-1.246-1.076-2.236-2.315-2.322l-0.008-0c-1.246 0.087-2.236 1.076-2.322 2.315l-0 0.008c0.087 1.246 1.076 2.236 2.315 2.322l0.008 0zM11.312 25.549c-0.055 0.005-0.118 0.008-0.182 0.008-1.186 0-2.148-0.962-2.148-2.148 0-0.064 0.003-0.128 0.008-0.191l-0.001 0.008v-13.936c-0.006-0.060-0.009-0.129-0.009-0.199 0-1.178 0.955-2.133 2.133-2.133 0.070 0 0.139 0.003 0.207 0.010l-0.009-0.001h9.291c0.062-0.006 0.134-0.010 0.207-0.010 1.174 0 2.125 0.952 2.125 2.125 0 0.073-0.004 0.145-0.011 0.216l0.001-0.009v13.936c0.006 0.060 0.009 0.129 0.009 0.199 0 1.178-0.955 2.133-2.133 2.133-0.070 0-0.139-0.003-0.207-0.010l0.009 0.001zM8.989 16.259h13.936v-2.323h-13.936zM14.8 4.645h2.323v-2.323h3.484v-2.323h-9.295v2.323h3.488z"></path>
</svg>
