<?xml version="1.0" encoding="utf-8"?>
<!-- Generator: Adobe Illustrator 23.0.2, SVG Export Plug-In . SVG Version: 6.00 Build 0)  -->
<svg version="1.1" id="Layer_1" xmlns="http://www.w3.org/2000/svg" xmlns:xlink="http://www.w3.org/1999/xlink" x="0px" y="0px"
	 viewBox="0 0 50 43.2" style="enable-background:new 0 0 50 43.2;" xml:space="preserve">
<style type="text/css">
	.st0{fill:#F68B1F;}
	.st1{fill:#ED1B2E;}
	.st2{fill:#0097D0;}
	.st3{fill:none;}
</style>
<g transform="translate(-161.016 -324.844)">
	<g transform="translate(-18.889 -1.822)">
		<g transform="translate(179.905 347.129)">
			<path class="st0" d="M8.8,0C3.9,0,0,3.9,0,8.8s3.9,8.8,8.8,8.8h13.5l-3.2,3.2c-0.4,0.4-0.4,1.2,0,1.6c0.4,0.4,1.2,0.4,1.6,0
				l5.1-5.1c0.4-0.4,0.4-1.2,0-1.6c0,0,0,0,0,0l-5.1-5.1c0,0,0-0.1-0.1-0.1c-0.5-0.4-1.2-0.4-1.6,0.1s-0.4,1.2,0.1,1.6l0,0l3.2,3.2
				H8.8c-3.6,0-6.5-3-6.5-6.6c0-3.5,2.9-6.4,6.5-6.5h28.1c0.6,0,1.1-0.5,1.1-1.1c0-0.6-0.5-1.1-1.1-1.1c0,0,0,0,0,0L8.8,0z"/>
			<path class="st0" d="M8.8,0C3.9,0,0,3.9,0,8.8s3.9,8.8,8.8,8.8h13.5l-3.2,3.2c-0.4,0.4-0.4,1.2,0,1.6c0.4,0.4,1.2,0.4,1.6,0
				l5.1-5.1c0.4-0.4,0.4-1.2,0-1.6c0,0,0,0,0,0l-5.1-5.1c0,0,0-0.1-0.1-0.1c-0.5-0.4-1.2-0.4-1.6,0.1s-0.4,1.2,0.1,1.6l0,0l3.2,3.2
				H8.8c-3.6,0-6.5-3-6.5-6.6c0-3.5,2.9-6.4,6.5-6.5h28.1c0.6,0,1.1-0.5,1.1-1.1c0-0.6-0.5-1.1-1.1-1.1c0,0,0,0,0,0L8.8,0z"/>
		</g>
		<g transform="translate(188.992 326.666)">
			<path class="st1" d="M6.3,0C2.8,0,0,2.8,0,6.2c0,3.5,2.8,6.3,6.2,6.3c3,0,5.6-2.1,6.1-5.1h19.7c3.6,0,6.5,2.9,6.5,6.5
				c0,0,0,0,0,0.1c0.2,3.4-2.5,6.4-5.9,6.5c-0.1,0-0.2,0-0.3,0c-0.6,0-1.1,0.5-1.1,1.1c0,0.6,0.5,1.1,1.1,1.1c4.8,0,8.6-3.9,8.5-8.7
				c0,0,0-0.1,0-0.1c0-4.9-3.9-8.8-8.8-8.8H12.4C11.8,2.2,9.3,0,6.3,0z M6.3,2.3c2.2,0,4,1.8,4,4s-1.8,4-4,4s-4-1.8-4-4l0,0
				C2.3,4.1,4,2.3,6.3,2.3C6.2,2.3,6.2,2.3,6.3,2.3z"/>
			<path class="st2" d="M6.3,0C2.8,0,0,2.8,0,6.2c0,3.5,2.8,6.3,6.2,6.3c3,0,5.6-2.1,6.1-5.1h19.7c3.6,0,6.5,2.9,6.5,6.5
				c0,0,0,0,0,0.1c0.2,3.4-2.5,6.4-5.9,6.5c-0.1,0-0.2,0-0.3,0c-0.6,0-1.1,0.5-1.1,1.1c0,0.6,0.5,1.1,1.1,1.1c4.8,0,8.6-3.9,8.5-8.7
				c0,0,0-0.1,0-0.1c0-4.9-3.9-8.8-8.8-8.8H12.4C11.8,2.2,9.3,0,6.3,0z M6.3,2.3c2.2,0,4,1.8,4,4s-1.8,4-4,4s-4-1.8-4-4l0,0
				C2.3,4.1,4,2.3,6.3,2.3C6.2,2.3,6.2,2.3,6.3,2.3z"/>
			<g transform="translate(20.03 30.278)">
				<ellipse class="st3" cx="6.3" cy="6.3" rx="6.3" ry="6.3"/>
				<path class="st1" d="M6.3,12.5C2.8,12.5,0,9.7,0,6.3S2.8,0,6.3,0s6.3,2.8,6.3,6.3S9.7,12.5,6.3,12.5z M6.3,2C3.9,2,2,3.9,2,6.3
					s1.9,4.3,4.3,4.3s4.3-1.9,4.3-4.3S8.6,2,6.3,2z"/>
			</g>
		</g>
	</g>
</g>
</svg>
