<svg xmlns="http://www.w3.org/2000/svg" width="50" height="43.182" viewBox="0 0 50 43.182"><defs><style>.a{fill:#fff;}</style></defs><g transform="translate(-40.72 3.092)"><g transform="translate(0 -1.396)"><g transform="translate(40.72 18.758)"><g transform="translate(0 0)"><path class="a" d="M12.947,36.363a8.807,8.807,0,0,0,0,17.614H26.405l-3.178,3.178a1.136,1.136,0,1,0,1.616,1.6l5.1-5.1a1.136,1.136,0,0,0,0-1.616l-5.114-5.114a1.132,1.132,0,0,0-.071-.089,1.144,1.144,0,1,0-1.545,1.687l3.2,3.178H12.947a6.534,6.534,0,0,1,0-13.068H41.072a1.136,1.136,0,1,0,0-2.273ZM38.8,46.591a6.25,6.25,0,1,0,6.25,6.25A6.267,6.267,0,0,0,38.8,46.591Zm0,2.273a3.977,3.977,0,1,1-3.977,3.977A3.96,3.96,0,0,1,38.8,48.863Z" transform="translate(-4.14 -36.363)"/></g></g><g transform="translate(49.811 -1.696)"><g transform="translate(0)"><path class="a" d="M22.871,8.28a6.25,6.25,0,1,0,6.143,7.386H48.724A6.5,6.5,0,0,1,55.258,22.2a6.231,6.231,0,0,1-6.25,6.534,1.136,1.136,0,1,0,0,2.273A8.606,8.606,0,0,0,57.53,22.2a8.813,8.813,0,0,0-8.807-8.807H29.015A6.267,6.267,0,0,0,22.871,8.28Zm0,2.273a3.977,3.977,0,1,1-3.977,3.977A3.96,3.96,0,0,1,22.871,10.553ZM42.19,51.462Z" transform="translate(-16.622 -8.28)"/></g></g></g></g></svg>