<svg xmlns="http://www.w3.org/2000/svg">
    <defs>
        <symbol id="tripPlanner" viewBox="0 0 47.889 41.358">
            <g transform="translate(-166.016 -326.666)"><g transform="translate(-13.889)"><g transform="translate(179.905 346.265)"><path class="a" style="fill:#f68b1f;" d="M43.852,38.539Zm-31.28-2.176a8.432,8.432,0,1,0,0,16.864H25.458L22.415,56.27a1.088,1.088,0,1,0,1.547,1.53l4.879-4.879a1.088,1.088,0,0,0,0-1.547l-4.9-4.9q-.032-.044-.068-.085A1.095,1.095,0,0,0,22.4,48.008l3.06,3.043H12.572a6.256,6.256,0,1,1,0-12.512H39.5a1.088,1.088,0,1,0,0-2.176Z" transform="translate(-4.14 -36.363)"/><path class="a" d="M12.572,36.363a8.432,8.432,0,1,0,0,16.864H25.458L22.415,56.27a1.088,1.088,0,1,0,1.547,1.53l4.879-4.879a1.088,1.088,0,0,0,0-1.547l-4.9-4.9q-.032-.044-.068-.085A1.095,1.095,0,0,0,22.4,48.008l3.06,3.043H12.572a6.256,6.256,0,1,1,0-12.512H39.5a1.088,1.088,0,1,0,0-2.176Z" transform="translate(-4.14 -36.363)"/></g><g transform="translate(188.609 326.666)"><path class="b" d="M22.608,8.28a5.986,5.986,0,1,0,5.885,7.075H47.371a6.221,6.221,0,0,1,6.259,6.258,5.968,5.968,0,0,1-5.987,6.258,1.088,1.088,0,1,0,0,2.177,8.243,8.243,0,0,0,8.164-8.435,8.441,8.441,0,0,0-8.436-8.435H28.493A6,6,0,0,0,22.608,8.28Zm0,2.177a3.809,3.809,0,1,1-3.81,3.809A3.793,3.793,0,0,1,22.608,10.457Z" transform="translate(-16.622 -8.28)"/><path class="c" d="M22.608,8.28a5.986,5.986,0,1,0,5.885,7.075H47.371a6.221,6.221,0,0,1,6.259,6.258,5.968,5.968,0,0,1-5.987,6.258,1.088,1.088,0,1,0,0,2.177,8.243,8.243,0,0,0,8.164-8.435,8.441,8.441,0,0,0-8.436-8.435H28.493A6,6,0,0,0,22.608,8.28Zm0,2.177a3.809,3.809,0,1,1-3.81,3.809A3.793,3.793,0,0,1,22.608,10.457Z" transform="translate(-16.622 -8.28)"/><g class="d" transform="translate(19.186 29)"><circle class="e" cx="6" cy="6" r="6"/><circle class="f" cx="6" cy="6" r="5"/></g></g></g></g>
        </symbol>
    </defs>    
</svg>