<svg aria-hidden="true" style="position: absolute; width: 0; height: 0; overflow: hidden;" version="1.1" xmlns="http://www.w3.org/2000/svg" xmlns:xlink="http://www.w3.org/1999/xlink">
<defs>
<symbol id="nextripWhite" viewBox="0 0 32 32">
<title>nextrip-white</title>
<path fill="#fff" style="fill: var(--color1, #fff)" d="M16 1.456c-1.964 0-3.869 0.384-5.661 1.142-1.732 0.732-3.287 1.781-4.623 3.117s-2.385 2.892-3.117 4.623c-0.758 1.792-1.142 3.697-1.142 5.661s0.384 3.869 1.142 5.661c0.732 1.732 1.781 3.287 3.117 4.623s2.892 2.385 4.623 3.117c1.792 0.758 3.697 1.142 5.661 1.142s3.869-0.384 5.661-1.142c1.732-0.732 3.287-1.781 4.623-3.117s2.385-2.892 3.117-4.623c0.758-1.792 1.142-3.697 1.142-5.661s-0.384-3.869-1.142-5.661c-0.732-1.732-1.781-3.287-3.117-4.623s-2.892-2.385-4.623-3.117c-1.792-0.758-3.697-1.142-5.661-1.142zM16 0c8.837 0 16 7.163 16 16s-7.163 16-16 16c-8.837 0-16-7.163-16-16s7.163-16 16-16z"></path>
<path fill="#fff" style="fill: var(--color1, #fff)" stroke="#fff" style="stroke: var(--color1, #fff)" stroke-linejoin="miter" stroke-linecap="round" stroke-miterlimit="4" stroke-width="1.4562" d="M15.823 5.465v9.386"></path>
<path fill="#fff" style="fill: var(--color1, #fff)" stroke="#fff" style="stroke: var(--color1, #fff)" stroke-linejoin="miter" stroke-linecap="round" stroke-miterlimit="4" stroke-width="1.4562" d="M17.036 17.371l6.863 4.81"></path>
</symbol>
<symbol id="tripPlanner" viewBox="0 0 37 32">
<title>trip-planner</title>
<path fill="#f68b1f" style="fill: var(--color2, #f68b1f)" d="M6.524 15.164c-3.603 0-6.524 2.921-6.524 6.524s2.921 6.524 6.524 6.524v0h9.97l-2.354 2.354c-0.155 0.153-0.251 0.365-0.251 0.6 0 0.465 0.377 0.842 0.842 0.842 0.238 0 0.453-0.099 0.606-0.258l3.775-3.775c0.154-0.153 0.25-0.364 0.25-0.598s-0.096-0.446-0.25-0.598l-3.791-3.791q-0.025-0.034-0.053-0.066c-0.147-0.126-0.339-0.202-0.549-0.202-0.468 0-0.847 0.379-0.847 0.847 0 0.238 0.098 0.453 0.257 0.607l0 0 2.368 2.354h-9.972c-2.673 0-4.84-2.167-4.84-4.84s2.167-4.84 4.84-4.84v0h20.835c0.465 0 0.842-0.377 0.842-0.842s-0.377-0.842-0.842-0.842v0z"></path>
<path fill="#f68b1f" style="fill: var(--color2, #f68b1f)" d="M6.524 15.164c-3.603 0-6.524 2.921-6.524 6.524s2.921 6.524 6.524 6.524v0h9.97l-2.354 2.354c-0.155 0.153-0.251 0.365-0.251 0.6 0 0.465 0.377 0.842 0.842 0.842 0.238 0 0.453-0.099 0.606-0.258l3.775-3.775c0.154-0.153 0.25-0.364 0.25-0.598s-0.096-0.446-0.25-0.598l-3.791-3.791q-0.025-0.034-0.053-0.066c-0.147-0.126-0.339-0.202-0.549-0.202-0.468 0-0.847 0.379-0.847 0.847 0 0.238 0.098 0.453 0.257 0.607l0 0 2.368 2.354h-9.972c-2.673 0-4.84-2.167-4.84-4.84s2.167-4.84 4.84-4.84v0h20.835c0.465 0 0.842-0.377 0.842-0.842s-0.377-0.842-0.842-0.842v0z"></path>
<path fill="#ed1b2e" style="fill: var(--color3, #ed1b2e)" d="M11.366 0c-0 0-0.001 0-0.001 0-2.558 0-4.632 2.074-4.632 4.632s2.074 4.632 4.632 4.632c2.26 0 4.142-1.619 4.55-3.76l0.005-0.029h14.607c0.009-0 0.019-0 0.029-0 2.658 0 4.813 2.155 4.813 4.813 0 0.010-0 0.020-0 0.030v-0.002c0.003 0.067 0.005 0.146 0.005 0.224 0 2.55-2.067 4.618-4.618 4.618-0.007 0-0.014-0-0.021-0h0.001c-0.465 0-0.842 0.377-0.842 0.842s0.377 0.842 0.842 0.842v0c3.497-0.034 6.318-2.876 6.318-6.378 0-0.052-0.001-0.104-0.002-0.157l0 0.008c-0.003-3.604-2.923-6.524-6.527-6.526h-14.607c-0.416-2.168-2.295-3.785-4.553-3.79h-0.001zM11.366 1.684c1.627 0 2.946 1.32 2.946 2.947s-1.319 2.947-2.947 2.947-2.947-1.319-2.947-2.947v0c-0-0.004-0-0.008-0-0.012 0-1.621 1.314-2.935 2.935-2.935 0.005 0 0.009 0 0.014 0h-0.001z"></path>
<path fill="#0097d0" style="fill: var(--color4, #0097d0)" d="M11.366 0c-0 0-0.001 0-0.001 0-2.558 0-4.632 2.074-4.632 4.632s2.074 4.632 4.632 4.632c2.26 0 4.142-1.619 4.55-3.76l0.005-0.029h14.607c0.009-0 0.019-0 0.029-0 2.658 0 4.813 2.155 4.813 4.813 0 0.010-0 0.020-0 0.030v-0.002c0.003 0.067 0.005 0.146 0.005 0.224 0 2.55-2.067 4.618-4.618 4.618-0.007 0-0.014-0-0.021-0h0.001c-0.465 0-0.842 0.377-0.842 0.842s0.377 0.842 0.842 0.842v0c3.497-0.034 6.318-2.876 6.318-6.378 0-0.052-0.001-0.104-0.002-0.157l0 0.008c-0.003-3.604-2.923-6.524-6.527-6.526h-14.607c-0.416-2.168-2.295-3.785-4.553-3.79h-0.001zM11.366 1.684c1.627 0 2.946 1.32 2.946 2.947s-1.319 2.947-2.947 2.947-2.947-1.319-2.947-2.947v0c-0-0.004-0-0.008-0-0.012 0-1.621 1.314-2.935 2.935-2.935 0.005 0 0.009 0 0.014 0h-0.001z"></path>
<path fill="#fff" style="fill: var(--color1, #fff)" stroke="#ed1b2e" style="stroke: var(--color3, #ed1b2e)" stroke-linejoin="miter" stroke-linecap="butt" stroke-miterlimit="4" stroke-width="1.5475" d="M30.864 27.081c0 2.564-2.078 4.642-4.642 4.642s-4.642-2.078-4.642-4.642c0-2.564 2.078-4.642 4.642-4.642s4.642 2.078 4.642 4.642z"></path>
<path fill="none" stroke="#ed1b2e" style="stroke: var(--color3, #ed1b2e)" stroke-linejoin="miter" stroke-linecap="butt" stroke-miterlimit="4" stroke-width="1.5475" d="M30.090 27.081c0 2.137-1.732 3.869-3.869 3.869s-3.869-1.732-3.869-3.869c0-2.137 1.732-3.869 3.869-3.869s3.869 1.732 3.869 3.869z"></path>
</symbol>
</defs>
</svg>