<svg xmlns="http://www.w3.org/2000/svg">
<defs>
<symbol id="icon-trip-planner" viewBox="0 0 56 48">
<path d="M9.79 22.736c-5.407 0-9.79 4.383-9.79 9.79s4.383 9.79 9.79 9.79v0h14.96l-3.533 3.533c-0.226 0.228-0.366 0.542-0.366 0.889 0 0.698 0.566 1.264 1.264 1.264 0.351 0 0.669-0.143 0.898-0.375l5.669-5.669c0.232-0.229 0.375-0.547 0.375-0.898s-0.143-0.669-0.375-0.898l-0-0-5.685-5.685c-0.027-0.037-0.053-0.069-0.080-0.1l0.001 0.001c-0.228-0.217-0.537-0.351-0.877-0.351-0.702 0-1.272 0.569-1.272 1.272 0 0.379 0.166 0.72 0.43 0.953l0.001 0.001 3.557 3.533h-14.968c-4.011 0-7.263-3.252-7.263-7.263s3.252-7.263 7.263-7.263h31.263c0.698 0 1.263-0.566 1.263-1.263s-0.566-1.263-1.263-1.263v0zM38.527 34.105c-3.837 0-6.947 3.11-6.947 6.947s3.11 6.947 6.947 6.947c3.837 0 6.947-3.11 6.947-6.947v0c-0.011-3.833-3.115-6.937-6.946-6.947h-0.001zM38.527 36.632c2.441 0 4.421 1.979 4.421 4.421s-1.979 4.421-4.421 4.421c-2.441 0-4.421-1.979-4.421-4.421v0c-0-0.006-0-0.013-0-0.020 0-2.431 1.971-4.402 4.402-4.402 0.007 0 0.013 0 0.020 0h-0.001z"></path>
<path d="M17.052 0c-0.001 0-0.002 0-0.003 0-3.837 0-6.947 3.11-6.947 6.947s3.11 6.947 6.947 6.947c3.39 0 6.214-2.429 6.825-5.641l0.007-0.043h21.909c0.011-0 0.025-0 0.038-0 3.99 0 7.225 3.235 7.225 7.225 0 0.013-0 0.027-0 0.040v-0.002c0.005 0.101 0.008 0.218 0.008 0.337 0 3.825-3.101 6.926-6.926 6.926-0.010 0-0.021 0-0.031-0h0.002c-0.698 0-1.263 0.566-1.263 1.263s0.566 1.263 1.263 1.263v0c5.244-0.051 9.475-4.314 9.475-9.566 0-0.079-0.001-0.157-0.003-0.235l0 0.012c-0.004-5.405-4.385-9.786-9.789-9.79h-21.907c-0.625-3.251-3.443-5.675-6.829-5.684h-0.001zM17.052 2.527c2.441 0 4.421 1.979 4.421 4.421s-1.979 4.421-4.421 4.421c-2.441 0-4.421-1.979-4.421-4.421v0c-0-0.006-0-0.012-0-0.019 0-2.431 1.971-4.402 4.402-4.402 0.007 0 0.013 0 0.020 0h-0.001z"></path>
</symbol>
</defs></svg>