<svg xmlns="http://www.w3.org/2000/svg" viewBox="0 0 8 6"><defs><style>.cls-1{fill:#006f45}</style></defs><g id="Layer_2" data-name="Layer 2"><g id="Layer_1-2" data-name="Layer 1"><g id="NiceRide"><rect class="cls-1" width="8" height="5" rx="1" ry="1"/><path d="M6.14 1.43H6V1.3a.6.6 0 0 0-.6-.57H4.05v2a.06.06 0 0 1-.09 0v-1.4a.6.6 0 0 0-.6-.6h-.89a.64.64 0 0 0-.35.11.35.35 0 0 0-.26-.11h-.22V1h.16c.11 0 .11 0 .11.05v.34a1.47 1.47 0 1 0 .4.06h-.06V1.3a.26.26 0 0 1 .23-.3h.87a.29.29 0 0 1 .27.29v1.48a.39.39 0 0 0 .1.23.37.37 0 0 0 .28.13.38.38 0 0 0 .27-.13.38.38 0 0 0 .09-.24v-.58h.48a1.47 1.47 0 1 0 1.29-.76zm-1 .81l.57.66A.41.41 0 0 0 6 3h.3v-.3h-.22l-.49-.56a.63.63 0 0 0 .23-.08.58.58 0 0 0 .18-.31h.13a1.16 1.16 0 0 1 0 2.32A1.17 1.17 0 0 1 5 2.9a1.16 1.16 0 0 1 .2-.65zm.56-.66a.29.29 0 0 1-.29.29H4.36V1h1.09a.29.29 0 0 1 .29.29zm-3.47.22a1.16 1.16 0 1 1-.37-.06v.9c0 .09 0 .11-.14.11h-.08v.31h.23a.32.32 0 0 0 .26-.11.34.34 0 0 0 .08-.22v-.94z" fill="#b3d23e"/><path class="cls-1" d="M5 5L4 6 3 5h2z"/></g></g></g></svg>