<svg xmlns="http://www.w3.org/2000/svg" width="24" height="30.535"><defs><clipPath id="a"><path fill="none" d="M0 0h24v30.534H0z"/></clipPath></defs><g clip-path="url(#a)"><path d="M12 0A12 12 0 0 0 0 12a11.058 11.058 0 0 0 .947 4.458 30.07 30.07 0 0 0 4 6.626c1.71 2.382 3.634 4.824 5.038 6.962a1.077 1.077 0 0 0 .916.489 1.028 1.028 0 0 0 .824-.4c1.8-2.107 4.244-4.55 6.412-6.931 2.168-2.351 4.092-4.55 4.855-6.626A10.91 10.91 0 0 0 24 12 12 12 0 0 0 12 0z" fill="#fff"/><path d="M12 0A12 12 0 0 0 0 12a11.058 11.058 0 0 0 .947 4.458 30.07 30.07 0 0 0 4 6.626c1.71 2.382 3.634 4.824 5.038 6.962a1.077 1.077 0 0 0 .916.489 1.028 1.028 0 0 0 .824-.4c1.8-2.107 4.244-4.55 6.412-6.931 2.168-2.351 4.092-4.55 4.855-6.626A10.91 10.91 0 0 0 24 12 12 12 0 0 0 12 0zm0 2.168a9.774 9.774 0 0 1 9.8 9.8 8.42 8.42 0 0 1-.824 3.725.107.107 0 0 1-.031.061c-.489 1.374-2.29 3.6-4.427 5.924-1.832 1.985-3.786 4.031-5.527 5.985-1.344-1.924-2.87-3.939-4.275-5.924A31.2 31.2 0 0 1 2.992 15.6a.107.107 0 0 0-.031-.061 8.706 8.706 0 0 1-.794-3.634A9.826 9.826 0 0 1 12 2.168zm0 4.366A5.466 5.466 0 1 0 17.466 12 5.48 5.48 0 0 0 12 6.534zm0 2.2A3.267 3.267 0 1 1 8.733 12 3.251 3.251 0 0 1 12 8.733z" fill="#ed1b2e"/></g></svg>