<!-- Generated by IcoMoon.io -->
<svg version="1.1" xmlns="http://www.w3.org/2000/svg" width="32" height="32" viewBox="0 0 32 32">
<title>sm-circle-plus-blue</title>
<path fill="#0097d0" d="M8.020 14.854h-0.022c-0.616 0.023-1.107 0.527-1.107 1.147s0.491 1.124 1.105 1.147l0.002 0h16c0.616-0.023 1.107-0.527 1.107-1.147s-0.491-1.124-1.105-1.147l-0.002-0h-15.978z"></path>
<path fill="#0097d0" d="M17.148 8.022v-0.022c-0.023-0.616-0.527-1.107-1.147-1.107s-1.124 0.491-1.147 1.105l-0 0.002v16c0.023 0.616 0.527 1.107 1.147 1.107s1.124-0.491 1.147-1.105l0-0.002v-0.017z"></path>
<path fill="#0097d0" d="M15.999 0c-8.837 0-16 7.163-16 16s7.163 16 16 16c8.837 0 16-7.163 16-16v0c-0.010-8.833-7.167-15.99-15.999-16h-0.001zM15.999 2.287c0 0 0.001 0 0.001 0 7.575 0 13.715 6.14 13.715 13.715s-6.14 13.715-13.715 13.715c-7.575 0-13.715-6.14-13.715-13.715 0-0 0-0.001 0-0.002v0c0-0.005 0-0.010 0-0.016 0-7.565 6.133-13.697 13.697-13.697 0.006 0 0.011 0 0.017 0h-0.001z"></path>
</svg>
