<!-- Generated by IcoMoon.io -->
<svg version="1.1" xmlns="http://www.w3.org/2000/svg" width="32" height="32" viewBox="0 0 32 32">
<title>sm-clock-gray</title>
<path fill="#8a8b8a" d="M16 0c-0 0-0.001 0-0.001 0-8.837 0-16 7.163-16 16s7.163 16 16 16c8.837 0 16-7.163 16-16v0c-0.010-8.832-7.167-15.989-15.998-16h-0.001zM16 2.283c7.575 0 13.715 6.14 13.715 13.715s-6.14 13.715-13.715 13.715c-7.575 0-13.715-6.14-13.715-13.715v0c0-0.004 0-0.009 0-0.014 0-7.567 6.134-13.701 13.701-13.701 0.005 0 0.010 0 0.015 0h-0.001z"></path>
<path fill="#8a8b8a" d="M15.983 4.557c-0.624 0.009-1.126 0.517-1.126 1.142 0 0 0 0 0 0v0 10.303c0 0 0 0 0 0.001 0 0.38 0.186 0.717 0.472 0.925l0.003 0.002 8.001 5.709c0.185 0.134 0.416 0.214 0.666 0.214 0.631 0 1.142-0.511 1.142-1.142 0-0.381-0.186-0.718-0.473-0.925l-0.003-0.002-7.521-5.372v-9.709c0-0.631-0.511-1.142-1.142-1.142v0h-0.019z"></path>
</svg>
