<!-- Generated by IcoMoon.io -->
<svg version="1.1" xmlns="http://www.w3.org/2000/svg" width="32" height="32" viewBox="0 0 32 32">
<title>lg-circle-question-white</title>
<path fill="#fff" d="M16 1.28c-1.988 0-3.915 0.389-5.729 1.156-1.753 0.741-3.327 1.803-4.679 3.155s-2.414 2.927-3.155 4.679c-0.767 1.814-1.156 3.742-1.156 5.729s0.389 3.915 1.156 5.729c0.741 1.753 1.803 3.327 3.155 4.679s2.927 2.414 4.679 3.155c1.814 0.767 3.742 1.156 5.729 1.156s3.915-0.389 5.729-1.156c1.753-0.741 3.327-1.803 4.679-3.155s2.414-2.927 3.155-4.679c0.767-1.814 1.156-3.742 1.156-5.729s-0.389-3.915-1.156-5.729c-0.741-1.753-1.803-3.327-3.155-4.679s-2.927-2.414-4.679-3.155c-1.814-0.767-3.742-1.156-5.729-1.156zM16 0c8.837 0 16 7.163 16 16s-7.163 16-16 16c-8.837 0-16-7.163-16-16s7.163-16 16-16z"></path>
<path fill="#fff" d="M16.331 8.531c-2.451 0.030-4.43 2.010-4.459 4.458l-0 0.003c0 0.411 0.333 0.743 0.743 0.743s0.743-0.333 0.743-0.743v0c0-1.642 1.331-2.973 2.973-2.973s2.973 1.331 2.973 2.973v0c0.011 1.288-0.685 1.953-1.6 2.787-0.507 0.429-0.96 0.89-1.367 1.389l-0.015 0.019c-0.449 0.571-0.723 1.298-0.732 2.088l-0 0.002v0.406c0 0.411 0.333 0.743 0.743 0.743s0.743-0.333 0.743-0.743v0-0.406c-0-0.004-0-0.010-0-0.015 0-0.451 0.162-0.864 0.432-1.184l-0.002 0.003c0.369-0.436 0.76-0.828 1.182-1.184l0.015-0.012c0.946-0.86 2.101-2.022 2.090-3.89 0-0.004 0-0.008 0-0.012-0.034-2.449-2.013-4.424-4.46-4.452l-0.003-0zM16.331 21.537c-0.616 0-1.115 0.499-1.115 1.115s0.499 1.115 1.115 1.115c0.616 0 1.115-0.499 1.115-1.115v0c-0-0.615-0.499-1.114-1.115-1.114v0z"></path>
</svg>
