<!-- Generated by IcoMoon.io -->
<svg version="1.1" xmlns="http://www.w3.org/2000/svg" width="32" height="32" viewBox="0 0 32 32">
<title>lg-calendar-clock-color</title>
<path fill="#0097d0" d="M28.448 14.906v-8.012c0-2.050-1.662-3.712-3.712-3.712v0h-0.26v-1.481c0-0.41-0.332-0.742-0.742-0.742s-0.742 0.332-0.742 0.742v1.446h-3.264v-1.446c0-0.41-0.332-0.742-0.742-0.742s-0.742 0.332-0.742 0.742v1.446h-3.264v-1.446c0-0.41-0.332-0.742-0.742-0.742s-0.742 0.332-0.742 0.742v0 1.446h-3.298v-1.446c0-0.41-0.332-0.742-0.742-0.742s-0.742 0.332-0.742 0.742v1.446h-3.264v-1.446c0-0.41-0.332-0.742-0.742-0.742s-0.742 0.332-0.742 0.742v0 1.446h-0.257c-2.050 0-3.712 1.662-3.712 3.712v0 14.982c0 2.050 1.662 3.712 3.712 3.712h11.053c1.397 3.253 4.573 5.489 8.271 5.489 4.957 0 8.976-4.019 8.976-8.976 0-2.915-1.389-5.505-3.542-7.145l-0.022-0.016zM3.712 24.067c-1.229 0-2.225-0.996-2.225-2.225v0-14.947c0.001-1.228 0.997-2.223 2.225-2.223h0.256v1.076c0 0.41 0.332 0.742 0.742 0.742s0.742-0.332 0.742-0.742v0-1.076h3.264v1.076c0 0.41 0.332 0.742 0.742 0.742s0.742-0.332 0.742-0.742v0-1.076h3.264v1.076c0 0.41 0.332 0.742 0.742 0.742s0.742-0.332 0.742-0.742v0-1.076h3.301v1.076c0 0.41 0.332 0.742 0.742 0.742s0.742-0.332 0.742-0.742v-1.076h3.264v1.076c0 0.41 0.332 0.742 0.742 0.742s0.742-0.332 0.742-0.742v0-1.076h0.26c1.229 0 2.225 0.996 2.225 2.225v7.082c-1.173-0.59-2.557-0.936-4.022-0.936-1.906 0-3.676 0.585-5.139 1.586l0.031-0.020c-0.128-0.096-2.074 1.408-1.664 1.408v0c-1.369 1.553-2.205 3.605-2.205 5.852 0 0.78 0.101 1.537 0.29 2.258l-0.014-0.062zM23.033 29.593c-4.122-0.021-7.455-3.367-7.455-7.492 0-4.138 3.354-7.492 7.492-7.492 4.125 0 7.472 3.334 7.492 7.454v0.002c0 0.011 0 0.024 0 0.037 0 4.138-3.354 7.492-7.492 7.492-0.013 0-0.026-0-0.039-0h0.002z"></path>
<path fill="#f68b1f" d="M11.528 8.735h-1.344c-0.424 0-0.768 0.344-0.768 0.768s0.344 0.768 0.768 0.768h1.344c0.424 0 0.768-0.344 0.768-0.768s-0.344-0.768-0.768-0.768v0z"></path>
<path fill="#f68b1f" d="M6.151 8.735h-1.344c-0.424 0-0.768 0.344-0.768 0.768s0.344 0.768 0.768 0.768h1.344c0.424 0 0.768-0.344 0.768-0.768s-0.344-0.768-0.768-0.768v0z"></path>
<path fill="#f68b1f" d="M15.561 10.271h1.344c0.424 0 0.768-0.344 0.768-0.768s-0.344-0.768-0.768-0.768h-1.344c-0.424 0-0.768 0.344-0.768 0.768s0.344 0.768 0.768 0.768v0z"></path>
<path fill="#f68b1f" d="M20.938 10.271h1.344c0.424 0 0.768-0.344 0.768-0.768s-0.344-0.768-0.768-0.768h-1.344c-0.424 0-0.768 0.344-0.768 0.768s0.344 0.768 0.768 0.768v0z"></path>
<path fill="#f68b1f" d="M11.528 13.229h-1.344c-0.424 0-0.768 0.344-0.768 0.768s0.344 0.768 0.768 0.768h1.344c0.424 0 0.768-0.344 0.768-0.768s-0.344-0.768-0.768-0.768v0z"></path>
<path fill="#f68b1f" d="M6.151 13.229h-1.344c-0.424 0-0.768 0.344-0.768 0.768s0.344 0.768 0.768 0.768h1.344c0.424 0 0.768-0.344 0.768-0.768s-0.344-0.768-0.768-0.768v0z"></path>
<path fill="#f68b1f" d="M11.528 17.684h-1.344c-0.424 0-0.768 0.344-0.768 0.768s0.344 0.768 0.768 0.768h1.344c0.424 0 0.768-0.344 0.768-0.768s-0.344-0.768-0.768-0.768v0z"></path>
<path fill="#f68b1f" d="M6.151 17.684h-1.344c-0.424 0-0.768 0.344-0.768 0.768s0.344 0.768 0.768 0.768h1.344c0.424 0 0.768-0.344 0.768-0.768s-0.344-0.768-0.768-0.768v0z"></path>
<path fill="#f68b1f" d="M25.815 22.228h-2.804v-3.956c0-0.424-0.344-0.768-0.768-0.768s-0.768 0.344-0.768 0.768v0 4.724c0 0.424 0.344 0.768 0.768 0.768v0h3.61c0.424 0 0.768-0.344 0.768-0.768s-0.344-0.768-0.768-0.768v0z"></path>
<path fill="#f68b1f" d="M15.752 13.229h-1.344c-0.424 0-0.768 0.344-0.768 0.768s0.344 0.768 0.768 0.768h1.344c0.424 0 0.768-0.344 0.768-0.768s-0.344-0.768-0.768-0.768v0z"></path>
</svg>
