<!-- Generated by IcoMoon.io -->
<svg version="1.1" xmlns="http://www.w3.org/2000/svg" width="32" height="32" viewBox="0 0 32 32">
<title>lg-direction-color</title>
<path fill="#f68b1f" d="M5.632 15.336c-3.136 0-5.632 2.496-5.632 5.632s2.496 5.632 5.632 5.632h8.64l-2.048 2.048c-0.256 0.256-0.256 0.768 0 1.024s0.768 0.256 1.024 0l3.264-3.264c0.256-0.256 0.256-0.768 0-1.024v0l-3.264-3.264c0 0 0-0.064-0.064-0.064-0.32-0.256-0.768-0.256-1.024 0.064s-0.256 0.768 0.064 1.024v0l2.048 2.048h-8.64c-2.304 0-4.16-1.92-4.16-4.224 0-2.24 1.856-4.096 4.16-4.16h17.984c0.384 0 0.704-0.32 0.704-0.704s-0.32-0.704-0.704-0.704v0l-17.984-0.064z"></path>
<path fill="#ed1b2e" d="M9.848 2.24c-2.24 0-4.032 1.792-4.032 3.968 0 2.24 1.792 4.032 3.968 4.032 1.92 0 3.584-1.344 3.904-3.264h12.608c2.304 0 4.16 1.856 4.16 4.16 0 0 0 0 0 0.064 0.128 2.176-1.6 4.096-3.776 4.16-0.064 0-0.128 0-0.192 0-0.384 0-0.704 0.32-0.704 0.704s0.32 0.704 0.704 0.704c3.072 0 5.504-2.496 5.44-5.568v-0.064c0-3.136-2.496-5.632-5.632-5.632h-12.544c-0.384-1.856-1.984-3.264-3.904-3.264zM9.848 3.712c1.408 0 2.56 1.152 2.56 2.56s-1.152 2.56-2.56 2.56-2.56-1.152-2.56-2.56v0c0-1.408 1.088-2.56 2.56-2.56-0.064 0-0.064 0 0 0z"></path>
<path fill="#0097d0" d="M9.848 2.24c-2.24 0-4.032 1.792-4.032 3.968 0 2.24 1.792 4.032 3.968 4.032 1.92 0 3.584-1.344 3.904-3.264h12.608c2.304 0 4.16 1.856 4.16 4.16 0 0 0 0 0 0.064 0.128 2.176-1.6 4.096-3.776 4.16-0.064 0-0.128 0-0.192 0-0.384 0-0.704 0.32-0.704 0.704s0.32 0.704 0.704 0.704c3.072 0 5.504-2.496 5.44-5.568v-0.064c0-3.136-2.496-5.632-5.632-5.632h-12.544c-0.384-1.856-1.984-3.264-3.904-3.264zM9.848 3.712c1.408 0 2.56 1.152 2.56 2.56s-1.152 2.56-2.56 2.56-2.56-1.152-2.56-2.56v0c0-1.408 1.088-2.56 2.56-2.56-0.064 0-0.064 0 0 0z"></path>
<path fill="#ed1b2e" d="M22.667 29.618c-2.24 0-4.032-1.792-4.032-3.968s1.792-4.032 4.032-4.032 4.032 1.792 4.032 4.032-1.856 3.968-4.032 3.968zM22.667 22.898c-1.536 0-2.752 1.216-2.752 2.752s1.216 2.752 2.752 2.752 2.752-1.216 2.752-2.752-1.28-2.752-2.752-2.752z"></path>
</svg>
