<!-- Generated by IcoMoon.io -->
<svg version="1.1" xmlns="http://www.w3.org/2000/svg" width="32" height="32" viewBox="0 0 32 32">
<title>lg-direction-white</title>
<path fill="#fff" d="M5.636 15.331c-3.113 0-5.636 2.524-5.636 5.636s2.524 5.636 5.636 5.636v0h8.613l-2.034 2.034c-0.13 0.131-0.211 0.312-0.211 0.512 0 0.402 0.326 0.728 0.728 0.728 0.202 0 0.385-0.082 0.517-0.216l3.264-3.264c0.133-0.132 0.216-0.315 0.216-0.517s-0.083-0.385-0.216-0.517l-3.273-3.273c-0.015-0.021-0.030-0.040-0.046-0.058l0.001 0.001c-0.131-0.125-0.309-0.202-0.505-0.202-0.404 0-0.732 0.328-0.732 0.732 0 0.218 0.096 0.415 0.247 0.549l0.001 0.001 2.048 2.034h-8.618c-2.31 0-4.182-1.872-4.182-4.182s1.872-4.182 4.182-4.182h18c0.402 0 0.727-0.326 0.727-0.727s-0.326-0.727-0.727-0.727v0zM22.182 21.876c-2.209 0-4 1.791-4 4s1.791 4 4 4c2.209 0 4-1.791 4-4v0c-0.006-2.207-1.793-3.994-3.999-4h-0.001zM22.182 23.331c1.406 0 2.545 1.14 2.545 2.545s-1.14 2.545-2.545 2.545c-1.406 0-2.545-1.14-2.545-2.545v0c-0-0.003-0-0.007-0-0.012 0-1.4 1.135-2.534 2.534-2.534 0.004 0 0.008 0 0.012 0h-0.001z"></path>
<path fill="#fff" d="M9.818 2.24c-0.001 0-0.001 0-0.002 0-2.209 0-4 1.791-4 4s1.791 4 4 4c1.952 0 3.578-1.398 3.929-3.248l0.004-0.025h12.614c0.006-0 0.014-0 0.022-0 2.297 0 4.16 1.863 4.16 4.16 0 0.008-0 0.015-0 0.023v-0.001c0.003 0.058 0.005 0.126 0.005 0.194 0 2.202-1.785 3.988-3.988 3.988-0.006 0-0.012 0-0.018-0h0.001c-0.402 0-0.727 0.326-0.727 0.727s0.326 0.727 0.727 0.727v0c3.019-0.030 5.456-2.484 5.456-5.508 0-0.045-0.001-0.091-0.002-0.136l0 0.007c-0.002-3.112-2.524-5.634-5.636-5.636h-12.613c-0.36-1.872-1.982-3.267-3.932-3.272h-0.001zM9.818 3.695c1.406 0 2.545 1.14 2.545 2.545s-1.14 2.545-2.545 2.545c-1.406 0-2.545-1.14-2.545-2.545v0c0-0.003-0-0.007-0-0.011 0-1.4 1.135-2.534 2.534-2.534 0.004 0 0.008 0 0.011 0h-0.001z"></path>
</svg>
