<!-- Generated by IcoMoon.io -->
<svg version="1.1" xmlns="http://www.w3.org/2000/svg" width="32" height="32" viewBox="0 0 32 32">
<title>lg-trianlge-exclamation-white</title>
<path fill="#fff" d="M31.078 23.529l-10.822-19.242c-1.088-1.939-2.602-3.008-4.255-3.008s-3.164 1.068-4.254 3.008l-10.824 19.242c-1.088 1.933-1.216 3.799-0.367 5.254s2.541 2.257 4.76 2.257h21.368c2.219 0 3.908-0.802 4.76-2.257s0.72-3.321-0.367-5.254zM30.108 28.349c-0.525 0.896-1.852 1.395-3.424 1.395h-21.368c-1.572 0-2.232-0.518-3.251-1.395s-0.768-2.593 0-3.963l10.875-19.241c0.768-1.364 2.067-2.496 3.060-2.496s2.46 1.134 3.228 2.496l10.88 19.241c0.309 0.575 0.49 1.258 0.49 1.983s-0.181 1.406-0.5 2.003l0.011-0.023z"></path>
<path fill="#fff" d="M17.441 20.796v-9.848c0-0.007 0-0.016 0-0.024 0-0.504-0.409-0.913-0.913-0.913s-0.913 0.409-0.913 0.913c0 0.008 0 0.017 0 0.025l-0-0.001v9.848c-0 0.007-0 0.016-0 0.024 0 0.504 0.409 0.913 0.913 0.913s0.913-0.409 0.913-0.913c0-0.009-0-0.017-0-0.025l0 0.001z"></path>
<path fill="#fff" d="M17.773 24.477c0-0.727-0.589-1.316-1.316-1.316s-1.316 0.589-1.316 1.316c0 0.727 0.589 1.316 1.316 1.316v0c0.727-0.001 1.316-0.59 1.316-1.316v-0z"></path>
</svg>
