<!-- Generated by IcoMoon.io -->
<svg version="1.1" xmlns="http://www.w3.org/2000/svg" width="32" height="32" viewBox="0 0 32 32">
<title>lg-white-lrt-gray-bg</title>
<path fill="#8a8b8a" d="M32 16c0 8.837-7.163 16-16 16s-16-7.163-16-16c0-8.837 7.163-16 16-16s16 7.163 16 16z"></path>
<path fill="#fff" d="M12.884 23.75h7.062c0.044 0.002 0.096 0.003 0.148 0.003 1.845 0 3.346-1.477 3.383-3.314l0-0.003v-9.94c-0.031-1.839-1.529-3.318-3.373-3.318-0.056 0-0.111 0.001-0.166 0.004l0.008-0h-7.062c-0.044-0.002-0.096-0.003-0.149-0.003-1.845 0-3.346 1.477-3.383 3.314l-0 0.003v9.941c0.042 1.84 1.544 3.316 3.391 3.316 0.049 0 0.098-0.001 0.147-0.003l-0.007 0zM10.677 27.064h1.995l2.207-3.314h-1.994zM20.176 27.064h1.977l-2.207-3.314h-1.978zM16.415 20.437c0.924-0.035 1.671-0.745 1.765-1.648l0.001-0.008c-0.095-0.912-0.842-1.622-1.762-1.657l-0.003-0c-0.924 0.035-1.671 0.745-1.765 1.649l-0.001 0.008c0.095 0.912 0.842 1.621 1.762 1.656l0.003 0zM12.884 22.094c-0.055 0.007-0.119 0.011-0.183 0.011-0.875 0-1.585-0.709-1.585-1.585 0-0.029 0.001-0.058 0.002-0.087l-0 0.004v-9.941c-0.002-0.028-0.003-0.060-0.003-0.092 0-0.871 0.706-1.576 1.576-1.576 0.068 0 0.134 0.004 0.2 0.013l-0.008-0.001h7.063c0.060-0.008 0.13-0.013 0.2-0.013 0.866 0 1.569 0.702 1.569 1.569 0 0.036-0.001 0.071-0.004 0.106l0-0.005v9.941c0.002 0.028 0.003 0.060 0.003 0.092 0 0.871-0.706 1.576-1.576 1.576-0.068 0-0.134-0.004-0.2-0.013l0.008 0.001zM11.119 15.467h10.593v-1.657h-10.593zM15.535 7.183h1.766v-1.657h2.648v-1.657h-7.064v1.657h2.648z"></path>
</svg>
