<svg xmlns="http://www.w3.org/2000/svg" width="17.659" height="17.659" viewBox="0 0 17.659 17.659"><defs><style>.a{fill:#8a8b8a;}</style></defs><g transform="translate(36.719 -6.281)"><g transform="translate(-36.719 6.281)"><path class="a" d="M8.83,17.659A8.83,8.83,0,1,0,0,8.83,8.84,8.84,0,0,0,8.83,17.659Zm0-1.358a7.447,7.447,0,0,1-5.288-2.2,7.462,7.462,0,0,1,10.576,0A7.447,7.447,0,0,1,8.83,16.3ZM6.113,7.83A2.717,2.717,0,1,1,8.83,10.547,2.72,2.72,0,0,1,6.113,7.83ZM8.83,1.358a7.467,7.467,0,0,1,6.159,11.694,8.815,8.815,0,0,0-3.539-2.106,4.075,4.075,0,1,0-5.24,0,8.812,8.812,0,0,0-3.539,2.106A7.466,7.466,0,0,1,8.83,1.358Z"/></g></g></svg>