<svg xmlns="http://www.w3.org/2000/svg" width="43" height="43" viewBox="0 0 43 43"><defs><style>.a{fill:#626462;}.b,.d{fill:none;}.b{stroke:#626462;stroke-width:1.5px;}.c{stroke:none;}</style></defs><g transform="translate(-2825.9 -1318)"><g transform="translate(2838.135 1327.645)"><path class="a" d="M5.074,151.625h-3.8A.774.774,0,0,0,.5,152.4v14.326a.774.774,0,0,0,.773.773h3.8a.774.774,0,0,0,.773-.773V152.4A.774.774,0,0,0,5.074,151.625Zm-.551,14.548h-2.7V152.948h2.7Zm0,0" transform="translate(-0.478 -144.947)"/><path class="a" d="M2.7,0a2.7,2.7,0,1,0,2.7,2.7A2.7,2.7,0,0,0,2.7,0Zm0,4.068A1.372,1.372,0,1,1,4.068,2.7,1.374,1.374,0,0,1,2.7,4.068Zm0,0" transform="translate(0 0)"/><path class="a" d="M168.577,153.308a4.932,4.932,0,0,0-3.252-1.142,4.985,4.985,0,0,0-2.112.514v-.313a.738.738,0,0,0-.738-.738h-3.87a.738.738,0,0,0-.738.738v14.4a.738.738,0,0,0,.738.738h3.947a.662.662,0,0,0,.662-.661v-8.583a1.369,1.369,0,0,1,1.309-1.378,1.352,1.352,0,0,1,1.391,1.35v8.625a.648.648,0,0,0,.648.648h3.793a.648.648,0,0,0,.648-.648V158.49A6.732,6.732,0,0,0,168.577,153.308Zm1.1,12.869h-2.442v-7.95a2.673,2.673,0,0,0-5.347,0v7.95h-2.7V152.952h2.7v.962h0a.661.661,0,0,0,1.1.5,3.665,3.665,0,0,1,2.359-.92,3.605,3.605,0,0,1,2.379.835,5.412,5.412,0,0,1,1.95,4.166Zm0,0" transform="translate(-150.915 -144.951)"/></g><g class="b" transform="translate(2825.9 1318)"><circle class="c" cx="21.5" cy="21.5" r="21.5"/><circle class="d" cx="21.5" cy="21.5" r="20.75"/></g></g></svg>