<svg xmlns="http://www.w3.org/2000/svg" width="43" height="43" viewBox="0 0 43 43"><defs><style>.a{fill:#626462;}.b,.d{fill:none;}.b{stroke:#626462;stroke-width:1.5px;}.c{stroke:none;}</style></defs><g transform="translate(-2633.9 -1318)"><path class="a" d="M8.543,22.941H4.869a1.114,1.114,0,0,1-1.113-1.113V13.542H1.613A1.114,1.114,0,0,1,.5,12.429V8.878A1.114,1.114,0,0,1,1.613,7.765H3.756V5.987a6.054,6.054,0,0,1,1.6-4.338A5.766,5.766,0,0,1,9.608,0l2.8,0a1.114,1.114,0,0,1,1.111,1.113v3.3a1.114,1.114,0,0,1-1.112,1.113H10.522c-.575,0-.722.115-.753.151-.052.059-.113.224-.113.682v1.4h2.611a1.131,1.131,0,0,1,.551.14,1.117,1.117,0,0,1,.573.973v3.551a1.114,1.114,0,0,1-1.113,1.112H9.656v8.287A1.114,1.114,0,0,1,8.543,22.941ZM5.1,21.6h3.21V12.94a.744.744,0,0,1,.743-.743h2.99V9.11H9.054a.744.744,0,0,1-.743-.743V6.36a2.29,2.29,0,0,1,.45-1.572,2.279,2.279,0,0,1,1.761-.606h1.654V1.349l-2.569,0C6.828,1.345,5.1,3.124,5.1,5.987v2.38a.744.744,0,0,1-.743.743H1.845V12.2H4.358a.744.744,0,0,1,.743.743ZM12.407,1.349h0Zm0,0" transform="translate(2647.99 1327.645)"/><g class="b" transform="translate(2633.9 1318)"><circle class="c" cx="21.5" cy="21.5" r="21.5"/><circle class="d" cx="21.5" cy="21.5" r="20.75"/></g></g></svg>