<svg xmlns="http://www.w3.org/2000/svg" width="18.55" height="18.55" viewBox="0 0 18.55 18.55"><defs><style>.a{fill:#8a8b8a;}</style></defs><g transform="translate(-1106.351 -13.977)"><g transform="translate(1081.192 -11.184)"><g transform="translate(25.16 25.16)"><g transform="translate(0 0)"><path class="a" d="M17.131,666.79a7.471,7.471,0,1,0,4.7,13.268l5.056,5.056a.775.775,0,0,0,1.095,0,.765.765,0,0,0,0-1.087l-5.056-5.056a7.468,7.468,0,0,0-5.8-12.181Zm0,1.546a5.925,5.925,0,1,1-5.925,5.925A5.914,5.914,0,0,1,17.131,668.336Z" transform="translate(-9.66 -666.79)"/></g></g></g></g></svg>