<svg xmlns="http://www.w3.org/2000/svg" width="43.949" height="43.949" viewBox="0 0 43.949 43.949"><defs><style>.a{fill:none;}.b{fill:#ed1b2e;stroke:#ed1b2e;stroke-linecap:round;stroke-width:2px;}.c,.d{stroke:none;}.d{fill:#0053a0;}</style></defs><g transform="translate(-617.867 -325)"><g class="a" transform="translate(617.867 325)"><path class="c" d="M21.975,0A21.975,21.975,0,1,1,0,21.975,21.975,21.975,0,0,1,21.975,0Z"/><path class="d" d="M 21.97461128234863 2 C 19.27717208862305 2 16.66149139404297 2.527851104736328 14.20021057128906 3.568881988525391 C 11.82188034057617 4.574832916259766 9.685512542724609 6.015350341796875 7.850429534912109 7.850429534912109 C 6.015350341796875 9.685512542724609 4.574832916259766 11.82188034057617 3.568881988525391 14.20021057128906 C 2.527851104736328 16.66149139404297 2 19.27717208862305 2 21.97461128234863 C 2 24.67205047607422 2.527851104736328 27.2877311706543 3.568881988525391 29.7490119934082 C 4.574832916259766 32.12734222412109 6.015350341796875 34.26371002197266 7.850429534912109 36.09879302978516 C 9.685512542724609 37.93387222290039 11.82188034057617 39.3743896484375 14.20021057128906 40.38034057617188 C 16.66149139404297 41.42137145996094 19.27717208862305 41.94922256469727 21.97461128234863 41.94922256469727 C 24.67205047607422 41.94922256469727 27.2877311706543 41.42137145996094 29.7490119934082 40.38034057617188 C 32.12734222412109 39.3743896484375 34.26371002197266 37.93387222290039 36.09879302978516 36.09879302978516 C 37.93387222290039 34.26371002197266 39.3743896484375 32.12734222412109 40.38034057617188 29.7490119934082 C 41.42137145996094 27.2877311706543 41.94922256469727 24.67205047607422 41.94922256469727 21.97461128234863 C 41.94922256469727 19.27717208862305 41.42137145996094 16.66149139404297 40.38034057617188 14.20021057128906 C 39.3743896484375 11.82188034057617 37.93387222290039 9.685512542724609 36.09879302978516 7.850429534912109 C 34.26371002197266 6.015350341796875 32.12734222412109 4.574832916259766 29.7490119934082 3.568881988525391 C 27.2877311706543 2.527851104736328 24.67205047607422 2 21.97461128234863 2 M 21.97461128234863 0 C 34.1108512878418 0 43.94922256469727 9.838371276855469 43.94922256469727 21.97461128234863 C 43.94922256469727 34.1108512878418 34.1108512878418 43.94922256469727 21.97461128234863 43.94922256469727 C 9.838371276855469 43.94922256469727 0 34.1108512878418 0 21.97461128234863 C 0 9.838371276855469 9.838371276855469 0 21.97461128234863 0 Z"/></g><g transform="translate(5 -0.875)"><path class="b" d="M.872,0V12.891" transform="translate(633.727 334.38)"/><path class="b" d="M0,0V11.508" transform="matrix(0.574, -0.819, 0.819, 0.574, 636.264, 350.733)"/></g></g></svg>