<svg xmlns="http://www.w3.org/2000/svg" width="44.104" height="38.09" viewBox="0 0 44.104 38.09"><defs><style>.a{fill:#fff;}</style></defs><g transform="translate(0 18.042)"><path class="a" d="M40.726,38.368Zm-28.818-2a7.768,7.768,0,0,0,0,15.537H23.78l-2.8,2.8a1,1,0,1,0,1.425,1.41l4.495-4.5a1,1,0,0,0,0-1.425l-4.511-4.511a1,1,0,1,0-1.425,1.41l2.819,2.8H11.908a5.764,5.764,0,1,1,0-11.527H36.717a1,1,0,1,0,0-2Zm22.8,9.021A5.513,5.513,0,1,0,40.225,50.9,5.528,5.528,0,0,0,34.712,45.385Zm0,2A3.508,3.508,0,1,1,31.2,50.9,3.493,3.493,0,0,1,34.712,47.389Z" transform="translate(-4.14 -36.363)"/><path class="a" d="M11.908,36.363a7.768,7.768,0,0,0,0,15.537H23.78l-2.8,2.8a1,1,0,1,0,1.425,1.41l4.495-4.5a1,1,0,0,0,0-1.425l-4.511-4.511a1,1,0,1,0-1.425,1.41l2.819,2.8H11.908a5.764,5.764,0,1,1,0-11.527H36.717a1,1,0,1,0,0-2Zm22.8,9.021A5.513,5.513,0,1,0,40.225,50.9,5.528,5.528,0,0,0,34.712,45.385Zm0,2A3.508,3.508,0,1,1,31.2,50.9,3.493,3.493,0,0,1,34.712,47.389Z" transform="translate(-4.14 -36.363)"/></g><g transform="translate(8.019)"><path class="a" d="M22.135,8.28A5.513,5.513,0,1,0,27.554,14.8H44.938A5.729,5.729,0,0,1,50.7,20.559a5.5,5.5,0,0,1-5.513,5.764,1,1,0,1,0,0,2,7.591,7.591,0,0,0,7.518-7.768,7.773,7.773,0,0,0-7.768-7.768H27.554A5.528,5.528,0,0,0,22.135,8.28Zm0,2a3.508,3.508,0,1,1-3.508,3.508A3.493,3.493,0,0,1,22.135,10.285Zm17.04,25.059a5.513,5.513,0,1,0,5.513,5.513A5.528,5.528,0,0,0,39.175,35.344Zm0,2a3.508,3.508,0,1,1-3.508,3.508A3.493,3.493,0,0,1,39.175,37.348Z" transform="translate(-16.622 -8.28)"/><path class="a" d="M22.135,8.28A5.513,5.513,0,1,0,27.554,14.8H44.938A5.729,5.729,0,0,1,50.7,20.559a5.5,5.5,0,0,1-5.513,5.764,1,1,0,1,0,0,2,7.591,7.591,0,0,0,7.518-7.768,7.773,7.773,0,0,0-7.768-7.768H27.554A5.528,5.528,0,0,0,22.135,8.28Zm0,2a3.508,3.508,0,1,1-3.508,3.508A3.493,3.493,0,0,1,22.135,10.285Zm17.04,25.059a5.513,5.513,0,1,0,5.513,5.513A5.528,5.528,0,0,0,39.175,35.344Zm0,2a3.508,3.508,0,1,1-3.508,3.508A3.493,3.493,0,0,1,39.175,37.348Z" transform="translate(-16.622 -8.28)"/></g></svg>