<svg xmlns="http://www.w3.org/2000/svg" width="19.746" height="18.066" viewBox="0 0 19.746 18.066"><defs><style>.a{fill:#8a8b8a;}</style></defs><g transform="translate(-2634.213 -135)"><g transform="translate(2634.213 135)"><g transform="translate(0 0)"><g transform="translate(0 0)"><path class="a" d="M23.946,13.938a7.808,7.808,0,0,0-5.829,2.611,7.826,7.826,0,0,0-5.532,10.536v4.144h3.883a7.8,7.8,0,0,0,9.212-1.834,7.833,7.833,0,0,0,1.65-.581h3.883V24.669a7.827,7.827,0,0,0-7.267-10.731Zm-4.095,16.91a6.6,6.6,0,0,1-2.99-.714l-.121-.061h-3v-3.1l-.045-.223a6.669,6.669,0,0,1,3.312-8.6,7.819,7.819,0,0,0,6.741,11.438A6.632,6.632,0,0,1,19.852,30.848ZM30.1,24.333l-.045,3.324h-3l-.121.061c-.047.024-.095.044-.142.066A6.653,6.653,0,1,1,30.1,24.333Z" transform="translate(-12.026 -13.938)"/></g></g></g></g></svg>