<svg xmlns="http://www.w3.org/2000/svg" width="43" height="43" viewBox="0 0 43 43"><defs><style>.a{fill:#626462;}.b,.d{fill:none;}.b{stroke:#626462;stroke-width:1.5px;}.c{stroke:none;}</style></defs><g transform="translate(-2697.9 -1318)"><g transform="translate(2707.626 1330.362)"><path class="a" d="M197.422,109.426l-5.093-2.786a.935.935,0,0,0-1.384.821v5.525a.934.934,0,0,0,1.378.824l5.093-2.738a.935.935,0,0,0,.006-1.645ZM192.3,112.29v-4.129l3.806,2.083Zm0,0" transform="translate(-182.349 -101.728)"/><path class="a" d="M22.882,4.121V4.11a5.272,5.272,0,0,0-1.016-2.675A3.751,3.751,0,0,0,19.38.27L19.266.256l-.04,0C16.178.031,11.576,0,11.53,0h-.008C11.475,0,6.873.031,3.8.252l-.041,0L3.65.269a3.656,3.656,0,0,0-2.47,1.2A5.525,5.525,0,0,0,.172,4.1l0,.024C.163,4.2,0,6.036,0,7.881V9.606c0,1.845.163,3.683.17,3.761v.012a5.22,5.22,0,0,0,1.012,2.642,3.828,3.828,0,0,0,2.567,1.148c.094.011.174.02.23.03l.053.007c1.76.167,7.276.25,7.51.253h.014c.046,0,4.648-.03,7.7-.252l.04,0,.129-.015a3.572,3.572,0,0,0,2.449-1.171,5.524,5.524,0,0,0,1.008-2.627l0-.024c.007-.077.17-1.915.17-3.76V7.881C23.051,6.036,22.888,4.2,22.882,4.121ZM21.7,9.606c0,1.708-.149,3.467-.163,3.628a4.289,4.289,0,0,1-.663,1.871,2.222,2.222,0,0,1-1.594.74l-.144.016c-2.948.213-7.376.246-7.58.247-.229,0-5.665-.087-7.371-.245C4.1,15.849,4,15.838,3.9,15.827a2.526,2.526,0,0,1-1.728-.722l-.012-.013a3.891,3.891,0,0,1-.65-1.853c-.011-.122-.164-1.9-.164-3.633V7.881c0-1.706.149-3.463.163-3.628a4.2,4.2,0,0,1,.663-1.872A2.331,2.331,0,0,1,3.8,1.611l.11-.013c2.99-.214,7.451-.246,7.611-.247s4.619.033,7.583.247l.119.014a2.419,2.419,0,0,1,1.654.749l.005.006a3.954,3.954,0,0,1,.65,1.88c.01.115.164,1.9.164,3.634Zm0,0" transform="translate(0)"/></g><g class="b" transform="translate(2697.9 1318)"><circle class="c" cx="21.5" cy="21.5" r="21.5"/><circle class="d" cx="21.5" cy="21.5" r="20.75"/></g></g></svg>