<svg xmlns="http://www.w3.org/2000/svg" width="43" height="43" viewBox="0 0 43 43"><defs><style>.a{fill:#626462;}.b,.d{fill:none;}.b{stroke:#626462;stroke-width:1.5px;}.c{stroke:none;}</style></defs><g transform="translate(-2889.9 -1318)"><g transform="translate(2900.823 1335.178)"><path class="a" d="M5.066,53.67a5.066,5.066,0,1,0,5.066,5.066A5.066,5.066,0,0,0,5.066,53.67Zm0,8.405a3.339,3.339,0,1,1,3.339-3.339A3.343,3.343,0,0,1,5.066,62.075Z" transform="translate(0 -53.67)"/><path class="a" d="M112.407,53.67a5.066,5.066,0,1,0,5.066,5.066A5.066,5.066,0,0,0,112.407,53.67Zm0,8.405a3.339,3.339,0,1,1,3.339-3.339A3.343,3.343,0,0,1,112.407,62.075Z" transform="translate(-94.98 -53.67)"/></g><g class="b" transform="translate(2889.9 1318)"><circle class="c" cx="21.5" cy="21.5" r="21.5"/><circle class="d" cx="21.5" cy="21.5" r="20.75"/></g></g></svg>