<svg xmlns="http://www.w3.org/2000/svg" width="43" height="43" viewBox="0 0 43 43"><defs><style>.a{fill:#626462;}.b,.d{fill:none;}.b{stroke:#626462;stroke-width:1.5px;}.c{stroke:none;}</style></defs><g transform="translate(-2761.9 -1318)"><g transform="translate(2771.912 1328.645)"><path class="a" d="M16.5,0H6.125A6.131,6.131,0,0,0,0,6.125V16.5a6.131,6.131,0,0,0,6.125,6.124H16.5A6.131,6.131,0,0,0,22.625,16.5V6.125A6.131,6.131,0,0,0,16.5,0Zm4.8,16.5a4.8,4.8,0,0,1-4.8,4.8H6.125a4.8,4.8,0,0,1-4.8-4.8V6.125a4.8,4.8,0,0,1,4.8-4.8H16.5a4.8,4.8,0,0,1,4.8,4.8Zm0,0" transform="translate(0 0)"/><path class="a" d="M122.19,116a6.186,6.186,0,1,0,6.186,6.186A6.193,6.193,0,0,0,122.19,116Zm0,11.047a4.86,4.86,0,1,1,4.86-4.86A4.866,4.866,0,0,1,122.19,127.05Zm0,0" transform="translate(-110.878 -110.878)"/><path class="a" d="M359.8,66.285a1.828,1.828,0,1,0,1.828,1.828A1.83,1.83,0,0,0,359.8,66.285Zm0,2.33a.5.5,0,1,1,.5-.5A.5.5,0,0,1,359.8,68.615Zm0,0" transform="translate(-342.157 -63.356)"/></g><g class="b" transform="translate(2761.9 1318)"><circle class="c" cx="21.5" cy="21.5" r="21.5"/><circle class="d" cx="21.5" cy="21.5" r="20.75"/></g></g></svg>