<svg xmlns="http://www.w3.org/2000/svg" width="43" height="43" viewBox="0 0 43 43"><defs><style>.a{fill:#626462;}.b,.d{fill:none;}.b{stroke:#626462;stroke-width:1.5px;}.c{stroke:none;}</style></defs><g transform="translate(-2569.9 -1318)"><path class="a" d="M8.69,18.855c-3.812,0-6.824-.666-8.266-1.827L.4,17.005.371,16.98a1.172,1.172,0,0,1-.308-1.233l.013-.037a1.194,1.194,0,0,1,1.089-.749,9.841,9.841,0,0,0,2.6-.359,4.939,4.939,0,0,1-2.6-3.008,1.066,1.066,0,0,1,.372-1.243,1.088,1.088,0,0,1,.325-.166A7.2,7.2,0,0,1,.385,7.539l-.009-.03L.37,7.479A1.11,1.11,0,0,1,.884,6.287a1.106,1.106,0,0,1,.526-.149A5.569,5.569,0,0,1,.99,4.855a5.37,5.37,0,0,1,.572-3.578L1.7.994A.79.79,0,0,1,2.969.788l.258.258a12.177,12.177,0,0,0,7.022,3.845,5.594,5.594,0,0,1,1.51-3.225A5.3,5.3,0,0,1,15.541,0h.009a7.578,7.578,0,0,1,3.127,1.018C19.35.8,20.161.457,21,.1a1.062,1.062,0,0,1,1.188.209,1.044,1.044,0,0,1,.227,1.147q-.092.255-.208.5a1.064,1.064,0,0,1,.31.213A1.149,1.149,0,0,1,22.8,3.24l-.01.036a4.381,4.381,0,0,1-1.761,2.416C20.9,12.976,15.412,18.855,8.69,18.855ZM1.709,16.282c1.358.768,3.947,1.233,6.981,1.233a10.458,10.458,0,0,0,7.753-3.527A12.637,12.637,0,0,0,19.7,5.413V5.377a.789.789,0,0,1,.421-.7,2.844,2.844,0,0,0,1.231-1.362.79.79,0,0,1-.761-1.244,4.347,4.347,0,0,0,.3-.472c-.726.305-1.416.579-2.015.76a.857.857,0,0,1-.659-.071,6.525,6.525,0,0,0-2.658-.951,4.164,4.164,0,0,0-4.005,4.22.79.79,0,0,1-.943.775A13.846,13.846,0,0,1,2.566,2.288,3.954,3.954,0,0,0,2.305,4.6a4.887,4.887,0,0,0,1.16,2.249.79.79,0,0,1-.8,1.284,3.617,3.617,0,0,1-.736-.283A6.672,6.672,0,0,0,4.219,10.5a.79.79,0,0,1-.505,1.439,3.551,3.551,0,0,1-1.048-.227,3.6,3.6,0,0,0,2.874,2.037.79.79,0,0,1,.235,1.476A9.49,9.49,0,0,1,1.709,16.282Zm0,0" transform="translate(2581.732 1330.67)"/><g class="b" transform="translate(2569.9 1318)"><circle class="c" cx="21.5" cy="21.5" r="21.5"/><circle class="d" cx="21.5" cy="21.5" r="20.75"/></g></g></svg>