<svg xmlns="http://www.w3.org/2000/svg" width="43.819" height="40.751" viewBox="0 0 43.819 40.751"><defs><style>.a{fill:#ed1b2e;}.b{fill:#f68b1f;}</style></defs><g transform="translate(-1025.823 -366.332)"><g transform="translate(1025.823 366.332)"><g transform="translate(0)"><path class="a" d="M46.007,36.09,31.185,9.741c-1.494-2.655-3.563-4.117-5.826-4.117s-4.332,1.462-5.825,4.117L4.713,36.09c-1.49,2.648-1.668,5.2-.5,7.194s3.48,3.091,6.518,3.091H39.991c3.038,0,5.352-1.1,6.518-3.091S47.5,38.737,46.007,36.09Zm-1.327,6.6c-.719,1.227-2.536,1.91-4.689,1.91H10.729c-2.152,0-3.056-.709-4.452-1.91s-1.055-3.551,0-5.427L21.168,10.916C22.219,9.047,24,7.495,25.359,7.495s3.369,1.553,4.42,3.421l14.9,26.348A5.825,5.825,0,0,1,44.679,42.69Z" transform="translate(-3.45 -5.624)"/></g></g><g transform="translate(1046.201 377.207)"><g transform="translate(0 0)"><path class="b" d="M35.146,36.745V23.585a1.22,1.22,0,1,0-2.44,0v13.16a1.22,1.22,0,0,0,2.44,0Z" transform="translate(-32.198 -22.365)"/><path class="b" d="M35.414,49.968A1.728,1.728,0,1,0,33.686,51.7,1.729,1.729,0,0,0,35.414,49.968Z" transform="translate(-31.959 -30.653)"/></g></g></g></svg>