<svg xmlns="http://www.w3.org/2000/svg" width="43.254" height="40.226" viewBox="0 0 43.254 40.226"><defs><style>.a{fill:#fff;}</style></defs><g transform="translate(-1022.51 -355.37)"><g transform="translate(1022.51 355.371)"><g transform="translate(0)"><path class="a" d="M45.458,35.7,30.827,9.688c-1.474-2.621-3.517-4.063-5.751-4.063S20.8,7.067,19.326,9.688L4.7,35.7c-1.471,2.613-1.647,5.135-.5,7.1s3.435,3.051,6.434,3.051H39.519c3,0,5.283-1.084,6.434-3.051S46.927,38.309,45.458,35.7Zm-1.31,6.515c-.71,1.212-2.5,1.886-4.628,1.886H10.635c-2.124,0-3.017-.7-4.395-1.886s-1.041-3.506,0-5.357l14.7-26.008C21.977,9,23.734,7.47,25.077,7.47S28.4,9,29.439,10.847L44.147,36.855A5.75,5.75,0,0,1,44.147,42.212Z" transform="translate(-3.45 -5.624)"/><path class="a" d="M35.206,37.1V23.615a1.25,1.25,0,1,0-2.5,0V37.1a1.25,1.25,0,1,0,2.5,0Z" transform="translate(-12.329 -10.705)"/><path class="a" d="M35.5,50.01a1.77,1.77,0,1,0-1.771,1.77A1.772,1.772,0,0,0,35.5,50.01Z" transform="translate(-12.102 -18.558)"/></g></g><g transform="translate(1042.366 367.031)"><g transform="translate(0 0)"><path class="a" d="M35.206,37.1V23.615a1.25,1.25,0,1,0-2.5,0V37.1a1.25,1.25,0,1,0,2.5,0Z" transform="translate(-32.185 -22.365)"/><path class="a" d="M35.5,50.01a1.77,1.77,0,1,0-1.771,1.77A1.772,1.772,0,0,0,35.5,50.01Z" transform="translate(-31.959 -30.218)"/></g></g></g></svg>