<svg xmlns="http://www.w3.org/2000/svg" width="16.221" height="30.277" viewBox="0 0 16.221 30.277"><defs><style>.a{fill:#8a8b8a;}</style></defs><g transform="translate(13.18 -21.02)"><g transform="translate(-13.18 21.02)"><path class="a" d="M29.856,14.171A4.325,4.325,0,1,0,25.53,9.845,4.33,4.33,0,0,0,29.856,14.171Zm0-6.488a2.163,2.163,0,1,1-2.163,2.163A2.165,2.165,0,0,1,29.856,7.683Z" transform="translate(-22.286 -5.52)"/><path class="a" d="M19.32,32.8a8.661,8.661,0,0,1,8.651-8.651h1.081a1.081,1.081,0,0,1,1.081,1.081v1.081a4.33,4.33,0,0,0,4.326,4.325,1.081,1.081,0,1,1,0,2.163,6.463,6.463,0,0,1-4.326-1.656v2.738a1.081,1.081,0,0,1-2.163,0v-7.57a6.451,6.451,0,0,0-2.163.378v6.194a3.227,3.227,0,0,0,1.218,2.533l3.783,3.026a1.081,1.081,0,0,1,.292.36l2.163,4.325a1.081,1.081,0,0,1-1.935.967l-2.057-4.113L27.539,38.6l-.7,2.114a1.089,1.089,0,0,1-.261.422l-3.244,3.244A1.081,1.081,0,0,1,21.8,42.85l3.064-3.064.876-2.628-.065-.052a5.379,5.379,0,0,1-2.029-4.222V27.978A6.466,6.466,0,0,0,21.483,32.8a1.081,1.081,0,0,1-2.163,0Z" transform="translate(-19.32 -14.418)"/></g></g></svg>