<svg xmlns="http://www.w3.org/2000/svg" width="13.936" height="24.388" viewBox="0 0 13.936 24.388"><defs><style>.a{fill:#fff;}</style></defs><path class="a" d="M10.384-27.4h6.968a3.439,3.439,0,0,0,3.484-3.484V-41.332a3.429,3.429,0,0,0-3.484-3.484H10.384A3.439,3.439,0,0,0,6.9-41.332V-30.88A3.45,3.45,0,0,0,10.384-27.4ZM8.206-23.912h1.968L12.352-27.4H10.384Zm9.372,0h1.951L17.352-27.4H15.4Zm-3.71-6.968a1.873,1.873,0,0,0,1.742-1.742,1.873,1.873,0,0,0-1.742-1.742,1.873,1.873,0,0,0-1.742,1.742A1.873,1.873,0,0,0,13.868-30.88Zm-3.484,1.742A1.611,1.611,0,0,1,8.642-30.88V-41.332a1.6,1.6,0,0,1,1.742-1.742h6.968a1.594,1.594,0,0,1,1.742,1.742V-30.88a1.6,1.6,0,0,1-1.742,1.742ZM8.642-36.106H19.094v-1.742H8.642ZM13-44.816h1.742v-1.742h2.613V-48.3H10.384v1.742H13Zm0,0" transform="translate(-6.9 48.3)"/></svg>