<svg xmlns="http://www.w3.org/2000/svg" width="27.26" height="27.787" viewBox="0 0 27.26 27.787"><defs><style>.a{fill:#8a8b8a;}</style></defs><g transform="translate(-238.719 -10.323)"><g transform="translate(238.719 10.324)"><path class="a" d="M29.606,9.345H25.919V6.613a.955.955,0,1,0-1.91,0V9.345H15.12V6.613a.955.955,0,0,0-1.91,0V9.345H9.523a3.6,3.6,0,0,0-3.589,3.589V29.857a3.6,3.6,0,0,0,3.589,3.589H29.606a3.6,3.6,0,0,0,3.589-3.589V12.934A3.6,3.6,0,0,0,29.606,9.345ZM9.523,11.255H13.21v1.317a.955.955,0,0,0,1.91,0V11.255h8.856v1.317a.955.955,0,1,0,1.91,0V11.255h3.687a1.686,1.686,0,0,1,1.679,1.679v3.194H7.844V12.934A1.686,1.686,0,0,1,9.523,11.255ZM29.606,31.536H9.523a1.686,1.686,0,0,1-1.679-1.679V18.07H31.285V29.857A1.686,1.686,0,0,1,29.606,31.536Z" transform="translate(-5.934 -5.658)"/><path class="a" d="M17.641,34.569a3.325,3.325,0,1,0,0,6.651,3.288,3.288,0,0,0,3.325-3.292A3.344,3.344,0,0,0,17.641,34.569Zm0,4.774a1.433,1.433,0,0,1-1.416-1.449,1.416,1.416,0,1,1,2.831,0A1.433,1.433,0,0,1,17.641,39.343Z" transform="translate(-10.299 -20.774)"/><path class="a" d="M20.1,51.543H17.239a.955.955,0,1,0,0,1.91H20.1a.955.955,0,1,0,0-1.91Z" transform="translate(-11.345 -29.649)"/><path class="a" d="M34.317,51.543H31.453a.955.955,0,1,0,0,1.91h2.864a.955.955,0,1,0,0-1.91Z" transform="translate(-18.777 -29.649)"/><path class="a" d="M34.317,39.606H31.453a.955.955,0,1,0,0,1.91h2.864a.955.955,0,1,0,0-1.91Z" transform="translate(-18.777 -23.408)"/><path class="a" d="M48.531,51.543H45.667a.955.955,0,1,0,0,1.91h2.864a.955.955,0,1,0,0-1.91Z" transform="translate(-26.209 -29.649)"/><path class="a" d="M48.531,39.606H45.667a.955.955,0,0,0,0,1.91h2.864a.955.955,0,0,0,0-1.91Z" transform="translate(-26.209 -23.408)"/></g></g></svg>