<svg xmlns="http://www.w3.org/2000/svg" width="20" height="14.9" viewBox="0 0 20 14.9"><defs><style>.a{fill:#0097d0;}</style></defs><g transform="translate(-17.226 -25.539)"><g transform="translate(17.225 25.54)"><g transform="translate(0 0)"><path class="a" d="M21.494,16.969,14.785,10.26a.729.729,0,0,0-1.03,1.03l5.468,5.468H2.461a.736.736,0,1,0,0,1.472H19.222L13.754,23.7a.711.711,0,0,0,0,1.03.762.762,0,0,0,1.052,0l6.709-6.709a.7.7,0,0,0,.21-.526A.807.807,0,0,0,21.494,16.969Z" transform="translate(-1.725 -10.039)"/></g></g></g></svg>