<svg xmlns="http://www.w3.org/2000/svg" width="28.216" height="28.216" viewBox="0 0 28.216 28.216"><defs><style>.a{fill:#8a8b8a;}</style></defs><g transform="translate(-1268.736 -331.169)"><g transform="translate(1268.736 331.169)"><g transform="translate(0 0)"><path class="a" d="M9.867,682.027a6.6,6.6,0,1,0,9.329,9.329l5.183-5.183a6.607,6.607,0,0,0,0-9.329,1.1,1.1,0,0,0-1.555,1.555,4.364,4.364,0,0,1,0,6.219L17.641,689.8a4.4,4.4,0,1,1-6.219-6.219l4.924-4.924A1.1,1.1,0,1,0,14.79,677.1l-4.924,4.924Zm9.848-9.848a6.607,6.607,0,0,0,0,9.329,1.1,1.1,0,1,0,1.555-1.555,4.364,4.364,0,0,1,0-6.219l5.183-5.183a4.4,4.4,0,1,1,6.219,6.219l-4.924,4.924A1.1,1.1,0,1,0,29.3,681.25l4.924-4.924A6.6,6.6,0,1,0,24.9,667Z" transform="translate(-7.939 -665.069)"/></g></g></g></svg>