<svg xmlns="http://www.w3.org/2000/svg" width="20" height="14.902" viewBox="0 0 20 14.902"><defs><style>.a{fill:#0097d0;}</style></defs><g transform="translate(-1656.882 -475)"><g transform="translate(1656.882 475)"><g transform="translate(0 0)"><path class="a" d="M1.956,16.97,8.665,10.26A.729.729,0,0,1,9.7,11.291L4.228,16.759H20.989a.736.736,0,0,1,0,1.472H4.228L9.7,23.7a.712.712,0,0,1,0,1.031.762.762,0,0,1-1.052,0L1.935,18.021a.7.7,0,0,1-.21-.526A.807.807,0,0,1,1.956,16.97Z" transform="translate(-1.725 -10.039)"/></g></g></g></svg>