<svg xmlns="http://www.w3.org/2000/svg" width="30" height="29.888" viewBox="0 0 30 29.888"><defs><style>.a{fill:#0097d0;}</style></defs><g transform="translate(-2813 -241.953)"><g transform="translate(2813 241.953)"><g transform="translate(0 0)"><path class="a" d="M32.863,9.672h0L27.305,4.148l-.1-.1a1.828,1.828,0,0,0-2.4-.166,2.153,2.153,0,0,0-.3.266L6.14,22.485a1.962,1.962,0,0,0-.566,1.4h0c-.033.1-.1.2-.133.3L3.478,31.7a1.9,1.9,0,0,0-.033.433,1.13,1.13,0,0,0,.333.9,1.192,1.192,0,0,0,.832.366h.2a1.248,1.248,0,0,0,.333-.033l7.554-1.8a1.031,1.031,0,0,0,.433-.2,2,2,0,0,0,1.364-.566l18.37-18.37a1.938,1.938,0,0,0,.532-1.8A2.531,2.531,0,0,0,32.863,9.672ZM25.542,4.947a.5.5,0,0,1,.366-.133.534.534,0,0,1,.366.166l.1.1L31.9,10.6l.033.033a.564.564,0,0,1,0,.765l-2.562,2.562a.564.564,0,0,1-.765,0L22.946,8.308a.486.486,0,0,1,0-.732Zm1.764,11.115a.564.564,0,0,1-.765,0L20.883,10.4a.564.564,0,0,1,0-.765l.865-.865a1.564,1.564,0,0,0,.3.4L27.7,14.83h0a1.5,1.5,0,0,0,.466.333ZM7.105,31.57l-1.764-1.8,1.1-4.226,4.992,4.992Zm6.456-1.7a.683.683,0,0,1-.965,0L7.072,24.348a.657.657,0,0,1-.2-.466.6.6,0,0,1,.2-.466L19.651,10.837a4.336,4.336,0,0,0,.333.5l5.657,5.657a1.317,1.317,0,0,0,.5.333Z" transform="translate(-3.44 -3.513)"/></g></g></g></svg>