<!-- Generated by IcoMoon.io -->
<svg version="1.1" xmlns="http://www.w3.org/2000/svg" width="512" height="512" viewBox="0 0 512 512">
<title></title>
<g id="icomoon-ignore">
    <line stroke-width="1" x1="16" y1="0" x2="16" y2="512" stroke="#449FDB" opacity="0.3"></line>
    <line stroke-width="1" x1="32" y1="0" x2="32" y2="512" stroke="#449FDB" opacity="1"></line>
    <line stroke-width="1" x1="48" y1="0" x2="48" y2="512" stroke="#449FDB" opacity="0.3"></line>
    <line stroke-width="1" x1="64" y1="0" x2="64" y2="512" stroke="#449FDB" opacity="1"></line>
    <line stroke-width="1" x1="80" y1="0" x2="80" y2="512" stroke="#449FDB" opacity="0.3"></line>
    <line stroke-width="1" x1="96" y1="0" x2="96" y2="512" stroke="#449FDB" opacity="1"></line>
    <line stroke-width="1" x1="112" y1="0" x2="112" y2="512" stroke="#449FDB" opacity="0.3"></line>
    <line stroke-width="1" x1="128" y1="0" x2="128" y2="512" stroke="#449FDB" opacity="1"></line>
    <line stroke-width="1" x1="144" y1="0" x2="144" y2="512" stroke="#449FDB" opacity="0.3"></line>
    <line stroke-width="1" x1="160" y1="0" x2="160" y2="512" stroke="#449FDB" opacity="1"></line>
    <line stroke-width="1" x1="176" y1="0" x2="176" y2="512" stroke="#449FDB" opacity="0.3"></line>
    <line stroke-width="1" x1="192" y1="0" x2="192" y2="512" stroke="#449FDB" opacity="1"></line>
    <line stroke-width="1" x1="208" y1="0" x2="208" y2="512" stroke="#449FDB" opacity="0.3"></line>
    <line stroke-width="1" x1="224" y1="0" x2="224" y2="512" stroke="#449FDB" opacity="1"></line>
    <line stroke-width="1" x1="240" y1="0" x2="240" y2="512" stroke="#449FDB" opacity="0.3"></line>
    <line stroke-width="1" x1="256" y1="0" x2="256" y2="512" stroke="#449FDB" opacity="1"></line>
    <line stroke-width="1" x1="272" y1="0" x2="272" y2="512" stroke="#449FDB" opacity="0.3"></line>
    <line stroke-width="1" x1="288" y1="0" x2="288" y2="512" stroke="#449FDB" opacity="1"></line>
    <line stroke-width="1" x1="304" y1="0" x2="304" y2="512" stroke="#449FDB" opacity="0.3"></line>
    <line stroke-width="1" x1="320" y1="0" x2="320" y2="512" stroke="#449FDB" opacity="1"></line>
    <line stroke-width="1" x1="336" y1="0" x2="336" y2="512" stroke="#449FDB" opacity="0.3"></line>
    <line stroke-width="1" x1="352" y1="0" x2="352" y2="512" stroke="#449FDB" opacity="1"></line>
    <line stroke-width="1" x1="368" y1="0" x2="368" y2="512" stroke="#449FDB" opacity="0.3"></line>
    <line stroke-width="1" x1="384" y1="0" x2="384" y2="512" stroke="#449FDB" opacity="1"></line>
    <line stroke-width="1" x1="400" y1="0" x2="400" y2="512" stroke="#449FDB" opacity="0.3"></line>
    <line stroke-width="1" x1="416" y1="0" x2="416" y2="512" stroke="#449FDB" opacity="1"></line>
    <line stroke-width="1" x1="432" y1="0" x2="432" y2="512" stroke="#449FDB" opacity="0.3"></line>
    <line stroke-width="1" x1="448" y1="0" x2="448" y2="512" stroke="#449FDB" opacity="1"></line>
    <line stroke-width="1" x1="464" y1="0" x2="464" y2="512" stroke="#449FDB" opacity="0.3"></line>
    <line stroke-width="1" x1="480" y1="0" x2="480" y2="512" stroke="#449FDB" opacity="1"></line>
    <line stroke-width="1" x1="496" y1="0" x2="496" y2="512" stroke="#449FDB" opacity="0.3"></line>
    <line stroke-width="1" x1="0" y1="16" x2="512" y2="16" stroke="#449FDB" opacity="0.3"></line>
    <line stroke-width="1" x1="0" y1="32" x2="512" y2="32" stroke="#449FDB" opacity="1"></line>
    <line stroke-width="1" x1="0" y1="48" x2="512" y2="48" stroke="#449FDB" opacity="0.3"></line>
    <line stroke-width="1" x1="0" y1="64" x2="512" y2="64" stroke="#449FDB" opacity="1"></line>
    <line stroke-width="1" x1="0" y1="80" x2="512" y2="80" stroke="#449FDB" opacity="0.3"></line>
    <line stroke-width="1" x1="0" y1="96" x2="512" y2="96" stroke="#449FDB" opacity="1"></line>
    <line stroke-width="1" x1="0" y1="112" x2="512" y2="112" stroke="#449FDB" opacity="0.3"></line>
    <line stroke-width="1" x1="0" y1="128" x2="512" y2="128" stroke="#449FDB" opacity="1"></line>
    <line stroke-width="1" x1="0" y1="144" x2="512" y2="144" stroke="#449FDB" opacity="0.3"></line>
    <line stroke-width="1" x1="0" y1="160" x2="512" y2="160" stroke="#449FDB" opacity="1"></line>
    <line stroke-width="1" x1="0" y1="176" x2="512" y2="176" stroke="#449FDB" opacity="0.3"></line>
    <line stroke-width="1" x1="0" y1="192" x2="512" y2="192" stroke="#449FDB" opacity="1"></line>
    <line stroke-width="1" x1="0" y1="208" x2="512" y2="208" stroke="#449FDB" opacity="0.3"></line>
    <line stroke-width="1" x1="0" y1="224" x2="512" y2="224" stroke="#449FDB" opacity="1"></line>
    <line stroke-width="1" x1="0" y1="240" x2="512" y2="240" stroke="#449FDB" opacity="0.3"></line>
    <line stroke-width="1" x1="0" y1="256" x2="512" y2="256" stroke="#449FDB" opacity="1"></line>
    <line stroke-width="1" x1="0" y1="272" x2="512" y2="272" stroke="#449FDB" opacity="0.3"></line>
    <line stroke-width="1" x1="0" y1="288" x2="512" y2="288" stroke="#449FDB" opacity="1"></line>
    <line stroke-width="1" x1="0" y1="304" x2="512" y2="304" stroke="#449FDB" opacity="0.3"></line>
    <line stroke-width="1" x1="0" y1="320" x2="512" y2="320" stroke="#449FDB" opacity="1"></line>
    <line stroke-width="1" x1="0" y1="336" x2="512" y2="336" stroke="#449FDB" opacity="0.3"></line>
    <line stroke-width="1" x1="0" y1="352" x2="512" y2="352" stroke="#449FDB" opacity="1"></line>
    <line stroke-width="1" x1="0" y1="368" x2="512" y2="368" stroke="#449FDB" opacity="0.3"></line>
    <line stroke-width="1" x1="0" y1="384" x2="512" y2="384" stroke="#449FDB" opacity="1"></line>
    <line stroke-width="1" x1="0" y1="400" x2="512" y2="400" stroke="#449FDB" opacity="0.3"></line>
    <line stroke-width="1" x1="0" y1="416" x2="512" y2="416" stroke="#449FDB" opacity="1"></line>
    <line stroke-width="1" x1="0" y1="432" x2="512" y2="432" stroke="#449FDB" opacity="0.3"></line>
    <line stroke-width="1" x1="0" y1="448" x2="512" y2="448" stroke="#449FDB" opacity="1"></line>
    <line stroke-width="1" x1="0" y1="464" x2="512" y2="464" stroke="#449FDB" opacity="0.3"></line>
    <line stroke-width="1" x1="0" y1="480" x2="512" y2="480" stroke="#449FDB" opacity="1"></line>
    <line stroke-width="1" x1="0" y1="496" x2="512" y2="496" stroke="#449FDB" opacity="0.3"></line>
</g>
<path fill="#0097d0" d="M125.445 238.986h-0.234c-0.522-0.057-1.129-0.090-1.743-0.090-8.582 0-15.674 6.382-16.787 14.66l-0.010 0.087c1.112 8.363 8.2 14.748 16.779 14.748 0.621 0 1.233-0.034 1.836-0.099l-0.075 0.007h259.936c0.522 0.057 1.129 0.090 1.743 0.090 8.582 0 15.673-6.382 16.788-14.66l0.010-0.087c-1.113-8.363-8.2-14.749-16.779-14.749-0.62 0-1.233 0.034-1.836 0.099l0.075-0.006h-259.702z"></path>
<path fill="#0097d0" d="M255.989 0c-141.391 0-256.010 114.62-256.010 256.010s114.62 256.010 256.010 256.010c141.391 0 256.010-114.62 256.010-256.010v0c-0.158-141.327-114.683-255.853-255.996-256.010h-0.015zM255.989 26.177c125.501 3.918 226.292 104.411 230.675 229.425l0.012 0.408c-4.291 125.685-105.021 226.49-230.276 230.889l-0.411 0.012c-125.666-4.409-226.397-105.215-230.676-230.5l-0.011-0.401c4.416-125.414 105.195-225.894 230.317-229.825l0.369-0.009z"></path>
</svg>
