<!-- Generated by IcoMoon.io -->
<svg version="1.1" xmlns="http://www.w3.org/2000/svg" width="16" height="16" viewBox="0 0 16 16">
<title>goto-icon-color</title>
<path fill="#a5cf4c" d="M4.863 2.993c-0.044 0.044-0.044 0.116 0 0.161 0.036 0.036 0.092 0.043 0.135 0.020v0c1.825-1.153 4.171-1.153 5.996 0v0c0.043 0.024 0.099 0.017 0.135-0.020 0.044-0.044 0.044-0.116 0-0.161l-2.629-2.629c-0.277-0.277-0.731-0.277-1.008 0l-2.628 2.629z"></path>
<path fill="#a5cf4c" d="M12.927 11.057c-0.044 0.044-0.116 0.044-0.161 0-0.036-0.036-0.043-0.092-0.020-0.135v0c1.155-1.825 1.155-4.171 0-5.996v0c-0.023-0.043-0.017-0.099 0.020-0.135 0.044-0.044 0.116-0.044 0.161 0l2.628 2.628c0.277 0.277 0.277 0.731 0 1.008l-2.628 2.629z"></path>
<path fill="#a5cf4c" d="M3.063 4.792c0.044-0.044 0.116-0.044 0.161 0 0.036 0.036 0.043 0.092 0.020 0.135v0c-1.153 1.825-1.153 4.171 0 5.996v0c0.024 0.043 0.017 0.099-0.020 0.135-0.044 0.044-0.116 0.044-0.161 0l-2.628-2.628c-0.277-0.277-0.277-0.731 0-1.008l2.628-2.629z"></path>
<path fill="#a5cf4c" d="M11.128 12.857c0.044-0.044 0.044-0.116 0-0.161-0.036-0.036-0.092-0.043-0.135-0.020v0c-1.825 1.153-4.171 1.153-5.996 0v0c-0.043-0.024-0.099-0.017-0.135 0.020-0.044 0.044-0.044 0.116 0 0.161l2.628 2.628c0.277 0.277 0.731 0.277 1.008 0l2.629-2.628z"></path>
<path fill="#00539f" d="M7.776 8.34c0 1.383-0.703 2.123-2.123 2.123-0.649 0-1.315-0.113-1.843-0.536l0.627-0.936c0.348 0.295 0.732 0.476 1.193 0.476 0.687 0 1.012-0.377 1.012-0.899v-0.355h-0.015c-0.257 0.355-0.695 0.484-1.035 0.484-1.088 0-1.805-0.785-1.805-1.896 0-0.975 0.635-1.911 1.676-1.911 0.643 0 1.080 0.309 1.253 0.573h0.015v-0.484h1.043v3.36zM5.827 7.697c0.513 0 0.907-0.431 0.907-0.907s-0.393-0.907-0.907-0.907-0.907 0.431-0.907 0.907c0.001 0.476 0.393 0.907 0.907 0.907z"></path>
<path fill="#00539f" d="M10.245 4.888c1.133 0 2.039 0.755 2.039 1.925s-0.907 1.925-2.039 1.925c-1.133 0-2.039-0.755-2.039-1.925-0.001-1.171 0.905-1.925 2.039-1.925zM10.245 7.743c0.567 0 0.907-0.377 0.907-0.929 0-0.551-0.34-0.929-0.907-0.929s-0.907 0.377-0.907 0.929c0 0.552 0.34 0.929 0.907 0.929z"></path>
<path fill="#00539f" d="M7.993 10.031l0.060-0.44h0.427l0.087-0.6h0.517l-0.087 0.6h0.569l-0.060 0.44h-0.569l-0.125 0.907c-0.029 0.207 0.013 0.336 0.241 0.336 0.091 0 0.216-0.017 0.289-0.065l-0.060 0.436c-0.116 0.052-0.301 0.069-0.423 0.069-0.548 0-0.643-0.245-0.573-0.733l0.133-0.949h-0.427z"></path>
<path fill="#00539f" d="M10.811 9.539c0.625 0 1.065 0.436 0.975 1.087-0.091 0.652-0.656 1.088-1.281 1.088s-1.061-0.436-0.971-1.088c0.091-0.651 0.652-1.087 1.277-1.087zM10.569 11.248c0.38 0 0.652-0.297 0.699-0.621 0.043-0.324-0.143-0.621-0.523-0.621s-0.652 0.297-0.695 0.621c-0.047 0.323 0.139 0.621 0.519 0.621z"></path>
</svg>
