<!-- Generated by IcoMoon.io -->
<svg version="1.1" xmlns="http://www.w3.org/2000/svg" width="32" height="32" viewBox="0 0 32 32">
<title>xs-arrow-right-blue</title>
<path fill="#0097d0" d="M31.63 15.090l-10.734-10.734c-0.207-0.19-0.484-0.307-0.788-0.307-0.644 0-1.166 0.522-1.166 1.166 0 0.304 0.117 0.582 0.308 0.789l-0.001-0.001 8.749 8.749h-26.819c-0.65 0-1.178 0.527-1.178 1.178s0.527 1.178 1.178 1.178v0h26.818l-8.749 8.752c-0.218 0.208-0.353 0.5-0.353 0.824s0.135 0.616 0.353 0.824l0 0c0.218 0.209 0.515 0.337 0.842 0.337s0.623-0.128 0.842-0.337l-0 0 10.734-10.734c0.208-0.203 0.337-0.487 0.337-0.801 0-0.014-0-0.029-0.001-0.043l0 0.002c-0.017-0.329-0.155-0.624-0.37-0.842l0 0z"></path>
</svg>
