<!-- Generated by IcoMoon.io -->
<svg version="1.1" xmlns="http://www.w3.org/2000/svg" width="32" height="32" viewBox="0 0 32 32">
<title>xs-accessible-gray</title>
<path fill="#8a8b8a" d="M9.92 9.813c2.71 0 4.907-2.197 4.907-4.907s-2.197-4.907-4.907-4.907c-2.71 0-4.907 2.197-4.907 4.907v0c0 0.004-0 0.008-0 0.013 0 2.703 2.191 4.894 4.894 4.894 0.005 0 0.009 0 0.014-0h-0.001zM9.92 2.133c1.531 0 2.773 1.241 2.773 2.773s-1.241 2.773-2.773 2.773c-1.531 0-2.773-1.241-2.773-2.773v0c-0-0.006-0-0.013-0-0.019 0-1.521 1.233-2.754 2.754-2.754 0.007 0 0.014 0 0.020 0h-0.001zM27.947 30.027l-3.893-5.92c-0.168-0.276-0.46-0.462-0.798-0.48l-0.002-0-9.547-0.747-3.253-7.52c-0.097-0.204-0.154-0.443-0.154-0.695 0-0.293 0.077-0.568 0.211-0.806l-0.004 0.008c0.243-0.451 0.661-0.782 1.16-0.905l0.012-0.003c0.098-0.020 0.21-0.031 0.326-0.031 0.783 0 1.443 0.527 1.644 1.247l0.003 0.012 1.493 3.84c0.177 0.41 0.579 0.692 1.046 0.692 0.122 0 0.239-0.019 0.349-0.055l-0.008 0.002 4.747-1.76c0.416-0.157 0.707-0.551 0.707-1.014 0-0.597-0.484-1.080-1.080-1.080-0.134 0-0.263 0.024-0.381 0.069l0.007-0.002-3.787 1.387-1.066-2.827c-0.497-1.549-1.924-2.65-3.609-2.65-0.29 0-0.572 0.033-0.844 0.094l0.025-0.005c-1.787 0.352-3.116 1.906-3.116 3.771 0 0.27 0.028 0.533 0.081 0.787l-0.004-0.025c-2.555 1.61-4.228 4.417-4.228 7.614 0 4.954 4.016 8.97 8.97 8.97 4.036 0 7.449-2.666 8.576-6.333l0.017-0.064 1.013 0.053 3.573 5.493c0.189 0.291 0.513 0.48 0.881 0.48 0.009 0 0.018-0 0.028-0l-0.001 0c0.007 0 0.015 0 0.023 0 0.209 0 0.404-0.060 0.569-0.163l-0.005 0.003c0.292-0.188 0.483-0.511 0.483-0.879 0-0.208-0.061-0.401-0.165-0.563l0.002 0.004zM12.96 29.867c-3.773-0.011-6.828-3.072-6.828-6.846 0-2.294 1.128-4.324 2.86-5.567l0.021-0.014 2.987 6.88c0.159 0.36 0.5 0.612 0.904 0.64l0.003 0 6.507 0.48c-1.024 2.612-3.523 4.427-6.446 4.427-0.003 0-0.006 0-0.009 0h0.001z"></path>
</svg>
