<svg xmlns="http://www.w3.org/2000/svg" width="20" height="20" viewBox="0 0 20 20"><defs><style>.a{fill:#8a8b8a;}</style></defs><g transform="translate(36.719 -6.281)"><g transform="translate(-36.719 6.281)"><path class="a" d="M10,20A10,10,0,1,0,0,10,10.011,10.011,0,0,0,10,20Zm0-1.538a8.434,8.434,0,0,1-5.989-2.49,8.451,8.451,0,0,1,11.978,0A8.435,8.435,0,0,1,10,18.462ZM6.923,8.868A3.077,3.077,0,1,1,10,11.945,3.08,3.08,0,0,1,6.923,8.868ZM10,1.538a8.456,8.456,0,0,1,6.975,13.244A9.984,9.984,0,0,0,12.968,12.4a4.616,4.616,0,1,0-5.935,0,9.98,9.98,0,0,0-4.008,2.385A8.456,8.456,0,0,1,10,1.538Z"/></g></g></svg>