<svg xmlns="http://www.w3.org/2000/svg" width="22" height="22" viewBox="0 0 22 22"><defs><style>.a{fill:#0097d0;}</style></defs><g transform="translate(-999 -1042.371)"><g transform="translate(999 1042.371)"><path class="a" d="M5.515,10.251H5.5a.789.789,0,0,0,0,1.577H16.5a.789.789,0,0,0,0-1.577H5.515Z" transform="translate(-0.001 -0.039)"/><path class="a" d="M11.829,5.515V5.5a.789.789,0,0,0-1.577,0v.012h0V16.5a.789.789,0,0,0,1.577,0v-.012h0Z" transform="translate(-0.04 0)"/><path class="a" d="M11,0A11,11,0,1,0,22,11,11.012,11.012,0,0,0,11,0Zm0,1.572A9.429,9.429,0,1,1,1.572,11,9.417,9.417,0,0,1,11,1.572Z" transform="translate(-0.001)"/></g></g></svg>