<svg xmlns="http://www.w3.org/2000/svg" width="22.422" height="22.422" viewBox="0 0 22.422 22.422"><defs><style>.a{fill:#8a8b8a;}</style></defs><g transform="translate(-151.876 -395.5)"><g transform="translate(151.876 395.5)"><path class="a" d="M11.212,0A11.211,11.211,0,1,0,22.422,11.211,11.223,11.223,0,0,0,11.212,0Zm0,1.6a9.61,9.61,0,1,1-9.61,9.61,9.6,9.6,0,0,1,9.61-9.61Z" transform="translate(-0.001)"/><path class="a" d="M11.04,3.144a.8.8,0,0,0-.789.8v.012h0v7.207h0a.8.8,0,0,0,.333.65h0l5.606,4a.8.8,0,1,0,.933-1.3h0l-5.27-3.764V3.946a.8.8,0,0,0-.8-.8H11.04Z" transform="translate(0.159 0.049)"/></g></g></svg>