<!-- Generated by IcoMoon.io -->
<svg version="1.1" xmlns="http://www.w3.org/2000/svg" width="32" height="32" viewBox="0 0 32 32">
<title>xs-chevron-up-gray</title>
<path fill="#8a8b8a" d="M31.015 24.347c-0.408-0.002-0.776-0.169-1.042-0.437l-0-0-13.73-13.268-13.726 13.268c-0.271 0.295-0.658 0.479-1.089 0.479-0.816 0-1.477-0.661-1.477-1.477 0-0.447 0.199-0.848 0.512-1.119l0.002-0.002 14.756-14.26c0.265-0.257 0.628-0.415 1.027-0.415s0.761 0.158 1.027 0.415l-0-0 14.756 14.26c0.291 0.271 0.472 0.655 0.472 1.083 0 0.816-0.661 1.477-1.477 1.477-0.002 0-0.005 0-0.007 0h0z"></path>
</svg>
