<svg xmlns="http://www.w3.org/2000/svg" width="13" height="15.459" viewBox="0 0 13 15.459"><defs><style>.a{fill:#0097d0;fill-rule:evenodd;}</style></defs><g transform="translate(-1277.018 -513)"><g transform="translate(1277.018 513)"><path class="a" d="M13.272,1.381a.7.7,0,0,0-.523.247L10.006,4.078a.7.7,0,1,0,.936,1.049l1.639-1.464v8a.7.7,0,1,0,1.406,0v-8l1.638,1.463a.7.7,0,0,0,.937-1.049l-2.743-2.45A.7.7,0,0,0,13.272,1.381ZM7.3,5.846a.7.7,0,0,0-.692.713v8L4.967,13.095a.7.7,0,1,0-.937,1.049l2.737,2.444A.7.7,0,0,0,7.84,16.6l2.745-2.452a.7.7,0,1,0-.937-1.049L8.011,14.558v-8A.7.7,0,0,0,7.3,5.846Z" transform="translate(-3.796 -1.381)"/></g></g></svg>