<!-- Generated by IcoMoon.io -->
<svg version="1.1" xmlns="http://www.w3.org/2000/svg" width="32" height="32" viewBox="0 0 32 32">
<title>xs-down-up-blue</title>
<path fill="#0097d0" d="M22.349 0c-0.447 0.007-0.845 0.209-1.114 0.525l-0.002 0.002-5.852 5.227c-0.308 0.276-0.501 0.675-0.501 1.119 0 0.828 0.671 1.5 1.5 1.5 0.384 0 0.735-0.144 1-0.382l-0.001 0.001 3.497-3.123v17.067c0 0.828 0.671 1.5 1.5 1.5s1.5-0.671 1.5-1.5v0-17.067l3.494 3.121c0.264 0.237 0.615 0.381 0.999 0.381 0.829 0 1.5-0.672 1.5-1.5 0-0.444-0.193-0.843-0.499-1.118l-0.001-0.001-5.852-5.227c-0.276-0.322-0.683-0.525-1.137-0.525-0.011 0-0.021 0-0.032 0l0.002-0zM9.609 9.525c-0.818 0.009-1.477 0.674-1.477 1.493 0 0.010 0 0.020 0 0.029l-0-0.001v17.067l-3.501-3.123c-0.264-0.237-0.615-0.381-0.999-0.381-0.829 0-1.5 0.672-1.5 1.5 0 0.444 0.193 0.843 0.499 1.118l0.001 0.001 5.839 5.214c0.276 0.335 0.691 0.547 1.155 0.547 0.453 0 0.858-0.201 1.132-0.52l0.002-0.002 5.856-5.231c0.308-0.276 0.501-0.675 0.501-1.119 0-0.829-0.672-1.5-1.5-1.5-0.385 0-0.735 0.145-1.001 0.383l0.001-0.001-3.492 3.113v-17.067c0-0.008 0-0.017 0-0.026 0-0.825-0.669-1.493-1.493-1.493-0.008 0-0.017 0-0.025 0l0.001-0z"></path>
</svg>
