<!-- Generated by IcoMoon.io -->
<svg version="1.1" xmlns="http://www.w3.org/2000/svg" width="32" height="32" viewBox="0 0 32 32">
<title>xs-globe-gray</title>
<path fill="#8a8b8a" d="M15.598 18.439c-0.005 0-0.010 0-0.016 0-0.167 0-0.332-0.010-0.493-0.031l0.019 0.002c-0.965-0.182-1.794-0.669-2.404-1.355l-0.004-0.004c-0.571-0.533-0.897-0.761-1.28-0.75-0.321 0.024-0.618 0.086-0.9 0.182l0.025-0.008c-0.402 0.151-0.866 0.238-1.35 0.238-0.276 0-0.546-0.028-0.806-0.082l0.026 0.004c-2.279-0.597-2.515-2.961-2.671-4.527-0.022-0.238-0.046-0.467-0.075-0.678-0.021-0.149-0.043-0.32-1.185-0.243-0.089 0.009-0.168 0.023-0.246 0.043l0.012-0.003c-0.182 0.058-0.392 0.091-0.609 0.091-0.399 0-0.772-0.113-1.089-0.308l0.009 0.005c-0.468-0.463-0.758-1.105-0.758-1.814 0-0.186 0.020-0.367 0.058-0.541l-0.003 0.017c0.057-0.503 0.48-0.891 0.994-0.891 0.552 0 1 0.448 1 1 0 0.039-0.002 0.077-0.006 0.114l0-0.005c-0.010 0.081-0.015 0.176-0.015 0.271 0 0.036 0.001 0.072 0.002 0.108l-0-0.005h0.035c0.137-0.031 0.304-0.057 0.474-0.072l0.015-0.001c0.742-0.048 3.002-0.194 3.297 1.971 0.032 0.232 0.058 0.48 0.083 0.749 0.149 1.488 0.32 2.559 1.187 2.783 0.075 0.008 0.161 0.013 0.249 0.013 0.305 0 0.595-0.058 0.862-0.164l-0.016 0.006c0.413-0.137 0.891-0.226 1.386-0.246l0.010-0h0.019c1.034 0.055 1.948 0.525 2.586 1.245l0.003 0.004c0.328 0.395 0.758 0.694 1.249 0.86l0.020 0.006c-0.049-0.112-0.087-0.243-0.109-0.379l-0.001-0.010c-0.011-0.074-0.018-0.159-0.018-0.246 0-0.532 0.242-1.008 0.621-1.323l0.003-0.002c-0.062-0.021-0.126-0.043-0.192-0.070-0.763-0.275-1.303-0.985-1.323-1.823l-0-0.002c0.063-1.060 0.725-1.951 1.649-2.345l0.018-0.007c0.347-0.163 0.754-0.257 1.183-0.257 1.088 0 2.034 0.61 2.514 1.507l0.007 0.015 0.206 0.251c0.232 0.274 0.489 0.516 0.77 0.726l0.012 0.009q-0.011-0.051-0.021-0.096c-0.067-0.232-0.105-0.498-0.105-0.773 0-0.185 0.017-0.366 0.050-0.541l-0.003 0.018c0.237-0.795 0.719-1.455 1.357-1.912l0.011-0.007c0.261-0.214 0.529-0.418 0.8-0.621 0.681-0.438 1.253-0.983 1.707-1.618l0.013-0.019c0.204-0.323 0.327-0.714 0.334-1.134l0-0.002c-0.022-0.189-0.074-0.362-0.15-0.52l0.004 0.010c-0.092-0.211-0.173-0.461-0.23-0.721l-0.005-0.028c-0.012-0.058-0.019-0.126-0.019-0.194 0-0.553 0.449-1.002 1.002-1.002 0.485 0 0.889 0.344 0.982 0.801l0.001 0.006c0.038 0.159 0.085 0.296 0.144 0.426l-0.006-0.015c0.16 0.352 0.263 0.761 0.283 1.192l0 0.007c0 0.808-0.227 1.563-0.622 2.205l0.010-0.018c-0.597 0.897-1.343 1.643-2.211 2.221l-0.029 0.018c-0.246 0.184-0.493 0.366-0.728 0.561-0.299 0.202-0.534 0.476-0.683 0.799l-0.005 0.012c0.002 0.156 0.025 0.305 0.065 0.447l-0.003-0.012c0.066 0.22 0.104 0.474 0.104 0.736s-0.038 0.515-0.109 0.755l0.005-0.019c-0.169 0.617-0.666 1.086-1.286 1.214l-0.011 0.002c-1.297 0.237-2.593-1.184-2.959-1.625l-0.221-0.269c-0.752-0.921-0.832-0.928-1.332-0.704-0.21 0.094-0.377 0.254-0.477 0.454l-0.003 0.006c0.019 0 0.050 0.024 0.094 0.043 0.071 0.023 0.154 0.042 0.241 0.054l0.007 0.001c0.732 0.053 1.348 0.502 1.638 1.132l0.005 0.012c0.072 0.172 0.114 0.372 0.114 0.581 0 0.65-0.405 1.206-0.976 1.429l-0.010 0.004-0.080 0.046c0.102 0.070 0.218 0.134 0.34 0.187l0.013 0.005c0.717 0.082 1.268 0.685 1.268 1.417v0c-0.007 0.321-0.163 0.603-0.402 0.782l-0.003 0.002c-0.163 0.124-0.37 0.198-0.594 0.198-0.097 0-0.191-0.014-0.28-0.040l0.007 0.002c-0.161-0.030-0.345-0.047-0.534-0.047-0.207 0-0.41 0.021-0.605 0.060l0.020-0.003c-0.283 0.039-0.615 0.063-0.951 0.067l-0.005 0z"></path>
<path fill="#8a8b8a" d="M17.674 31.691c-0 0-0 0-0 0-0.552 0-1-0.448-1-1 0-0.080 0.009-0.158 0.027-0.232l-0.001 0.007 0.23-0.96c0.259-1.072 0.526-2.18 0.678-3.262 0.197-1.412 0.174-1.843-0.491-2.503-0.693-0.565-1.135-1.415-1.147-2.369l-0-0.002c0.066-0.704 0.443-1.307 0.99-1.679l0.008-0.005c0.104-0.078 0.224-0.158 0.347-0.231l0.019-0.010c0.046-0.029 0.107-0.066 0.16-0.098-0.111-0.262-0.23-0.485-0.366-0.696l0.011 0.018c-0.082-0.138-0.16-0.266-0.219-0.379-0.062-0.113-0.103-0.246-0.113-0.387l-0-0.003c-0.016-0.075-0.026-0.162-0.026-0.251 0-0.241 0.069-0.465 0.189-0.655l-0.003 0.005c0.418-0.485 1.032-0.789 1.718-0.789 0.102 0 0.202 0.007 0.3 0.020l-0.012-0.001c0.768 0.020 1.482 0.234 2.101 0.594l-0.021-0.011c0.254 0.144 0.48 0.298 0.691 0.445 0.561 0.389 0.726 0.48 1.139 0.378 0.324-0.108 0.588-0.217 0.844-0.339l-0.045 0.019c0.621-0.385 1.375-0.613 2.181-0.613 0.34 0 0.67 0.040 0.986 0.117l-0.029-0.006c1.768 0.733 1.58 3.34 1.224 4.416-0.386 1.381-1.178 2.542-2.237 3.379l-0.014 0.010c-0.277 0.198-0.545 0.366-0.8 0.526-0.586 0.28-1.057 0.721-1.368 1.264l-0.008 0.015c-1.157 2.331-2.747 4.778-5.775 5.252-0.050 0.010-0.109 0.016-0.168 0.018l-0.001 0zM19.19 18.243c0.196 0.333 0.311 0.733 0.311 1.16 0 0.176-0.020 0.347-0.057 0.511l0.003-0.015c-0.181 0.551-0.566 0.993-1.064 1.244l-0.012 0.006c-0.069 0.042-0.138 0.082-0.2 0.13-0.16 0.125-0.205 0.21-0.206 0.222s-0.010 0.25 0.56 0.814c0.764 0.769 1.237 1.829 1.237 2.999 0 0.428-0.063 0.842-0.181 1.232l0.008-0.030c-0.125 0.885-0.32 1.76-0.512 2.606 1.201-0.921 2.137-2.13 2.713-3.525l0.021-0.057c0.48-0.902 1.203-1.621 2.083-2.081l0.027-0.013c0.222-0.139 0.454-0.282 0.693-0.453 0.73-0.609 1.266-1.43 1.512-2.367l0.007-0.032c0.254-0.771 0.13-1.851-0.090-1.94-0.586 0.067-1.119 0.24-1.599 0.499l0.023-0.011c-0.296 0.143-0.654 0.284-1.023 0.398l-0.057 0.015c-0.23 0.062-0.494 0.098-0.766 0.098-0.776 0-1.484-0.289-2.023-0.766l0.003 0.003c-0.168-0.115-0.344-0.238-0.542-0.352-0.251-0.143-0.544-0.246-0.855-0.291l-0.013-0.002z"></path>
<path fill="#8a8b8a" d="M15.996 31.992c-8.834 0-15.996-7.162-15.996-15.996s7.162-15.996 15.996-15.996c8.834 0 15.996 7.162 15.996 15.996v0c-0.013 8.829-7.167 15.983-15.995 15.996h-0.001zM15.996 2c-7.73 0.003-13.995 6.27-13.995 14 0 7.732 6.268 14 14 14s14-6.268 14-14c0-0.001 0-0.002 0-0.003v0c-0.011-7.728-6.275-13.99-14.004-13.996h-0.001z"></path>
<path fill="#8a8b8a" d="M17.287 6.010c-0.118 0-0.237 0-0.358-0.013-0.713-0.086-1.362-0.288-1.953-0.588l0.033 0.015c-0.305-0.151-0.662-0.283-1.034-0.377l-0.038-0.008c-0.513-0.063-0.943-0.366-1.181-0.792l-0.004-0.008c-0.085-0.186-0.134-0.403-0.134-0.631 0-0.116 0.013-0.23 0.037-0.339l-0.002 0.010 0.062-0.274c0.040-0.162 0.070-0.353 0.081-0.548l0-0.009v-0.037c-0.068 0.017-0.147 0.026-0.227 0.026-0.552 0-1-0.448-1-1 0-0.328 0.158-0.619 0.402-0.802l0.003-0.002c0.273-0.196 0.614-0.313 0.983-0.313 0.484 0 0.921 0.202 1.23 0.527l0.001 0.001c0.377 0.4 0.608 0.94 0.608 1.535 0 0.035-0.001 0.070-0.002 0.105l0-0.005c-0.009 0.247-0.038 0.481-0.086 0.708l0.005-0.027c0.438 0.136 0.801 0.278 1.152 0.441l-0.056-0.023c0.365 0.191 0.788 0.335 1.236 0.409l0.025 0.003c0.018 0 0.040 0 0.062 0 0.647 0 1.275-0.082 1.874-0.236l-0.052 0.011 0.294-0.061c-0.144-0.27-0.228-0.591-0.228-0.932 0-0.078 0.004-0.154 0.013-0.229l-0.001 0.009c0.109-0.736 0.627-1.327 1.313-1.54l0.013-0.004c0.196-0.059 0.421-0.094 0.654-0.094 0.396 0 0.768 0.099 1.094 0.273l-0.013-0.006c0.309 0.174 0.515 0.5 0.515 0.874 0 0.552-0.448 1-1 1-0.151 0-0.294-0.033-0.422-0.093l0.006 0.003c-0.020-0.011-0.045-0.021-0.071-0.031l-0.004-0.001c0.018 0.022 0.037 0.050 0.059 0.078l0.11 0.138c0.26 0.29 0.468 0.632 0.607 1.008l0.007 0.022c0.031 0.092 0.048 0.197 0.048 0.307 0 0.547-0.439 0.991-0.983 1h-0.001c-0.586 0.034-1.133 0.118-1.662 0.248l0.062-0.013c-0.616 0.157-1.33 0.258-2.064 0.281l-0.016 0z"></path>
</svg>
