<svg xmlns="http://www.w3.org/2000/svg" width="20.005" height="20.005" viewBox="0 0 20.005 20.005"><defs><style>.a{fill:#8a8b8a;}</style></defs><g transform="translate(-2621 -164)"><g transform="translate(2605.5 149.5)"><g transform="translate(15.5 14.5)"><path class="a" d="M9.87,11.741a2.445,2.445,0,0,1-.306-.018,2.649,2.649,0,0,1-1.505-.85c-.357-.333-.561-.476-.8-.469a2.262,2.262,0,0,0-.547.109,2.47,2.47,0,0,1-1.332.1C3.955,10.24,3.808,8.762,3.71,7.783c-.014-.149-.029-.292-.047-.424-.013-.093-.027-.2-.741-.152a1.122,1.122,0,0,0-.146.025A1.3,1.3,0,0,1,1.72,7.1a1.594,1.594,0,0,1-.44-1.462.625.625,0,1,1,1.243.137,1.54,1.54,0,0,0-.008.234l.022,0a2.5,2.5,0,0,1,.306-.046c.464-.03,1.877-.121,2.061,1.232.02.145.036.3.052.468.093.93.2,1.6.742,1.74a1.459,1.459,0,0,0,.685-.091,3.287,3.287,0,0,1,.873-.154h.012a2.322,2.322,0,0,1,1.619.781,1.733,1.733,0,0,0,.793.541,1.041,1.041,0,0,1-.069-.243,1.075,1.075,0,0,1,.379-.982c-.039-.013-.079-.027-.12-.044A1.24,1.24,0,0,1,9.043,8.07,1.7,1.7,0,0,1,10.085,6.6a1.781,1.781,0,0,1,2.316.791l.129.157a2.869,2.869,0,0,0,.489.459q-.007-.032-.013-.06a1.807,1.807,0,0,1-.036-.81,2.242,2.242,0,0,1,.855-1.2c.163-.134.331-.261.5-.388A3.859,3.859,0,0,0,15.4,4.526a1.386,1.386,0,0,0,.209-.71,1.021,1.021,0,0,0-.091-.319,2.645,2.645,0,0,1-.147-.468A.625.625,0,1,1,16.6,2.786a1.513,1.513,0,0,0,.086.257,2.081,2.081,0,0,1,.177.75,2.637,2.637,0,0,1-.382,1.367,4.921,4.921,0,0,1-1.4,1.4c-.154.115-.308.229-.455.351a1.211,1.211,0,0,0-.43.507,1.08,1.08,0,0,0,.039.272,1.657,1.657,0,0,1,0,.92,1.053,1.053,0,0,1-.811.76c-.811.148-1.621-.74-1.85-1.016l-.138-.168c-.47-.576-.52-.58-.833-.44a.609.609,0,0,0-.3.287c.012,0,.031.015.059.027a.888.888,0,0,0,.155.034,1.22,1.22,0,0,1,1.027.715.959.959,0,0,1-.545,1.259l-.05.029a1.28,1.28,0,0,0,.221.12.892.892,0,0,1,.793.886.626.626,0,0,1-.253.49.619.619,0,0,1-.542.1,1.919,1.919,0,0,0-.7.006A5.174,5.174,0,0,1,9.87,11.741Z" transform="translate(-0.119 -0.214)"/><path class="a" d="M12.084,20.864a.625.625,0,0,1-.609-.766l.144-.6c.162-.67.329-1.363.424-2.039.123-.883.109-1.152-.307-1.565a1.937,1.937,0,0,1-.717-1.482,1.425,1.425,0,0,1,.624-1.053,2.581,2.581,0,0,1,.229-.151c.029-.018.067-.041.1-.061a2.824,2.824,0,0,0-.222-.424c-.051-.086-.1-.166-.137-.237a.612.612,0,0,1-.071-.244.768.768,0,0,1,.1-.563,1.415,1.415,0,0,1,1.254-.482,2.758,2.758,0,0,1,1.3.364c.159.09.3.186.432.278.351.243.454.3.712.236a4.623,4.623,0,0,0,.5-.2,2.617,2.617,0,0,1,1.962-.314c1.105.458.988,2.088.765,2.761a4.055,4.055,0,0,1-1.407,2.119c-.173.124-.341.229-.5.329a1.93,1.93,0,0,0-.86.8c-.723,1.457-1.717,2.987-3.61,3.283A.645.645,0,0,1,12.084,20.864Zm.948-8.407a1.448,1.448,0,0,1,.161,1.035,1.323,1.323,0,0,1-.673.781c-.043.026-.086.051-.125.081-.1.078-.128.131-.129.139s-.006.156.35.509a2.659,2.659,0,0,1,.665,2.626c-.078.553-.2,1.1-.32,1.629a5.325,5.325,0,0,0,1.709-2.239,3.081,3.081,0,0,1,1.319-1.309c.139-.087.284-.176.433-.283a2.877,2.877,0,0,0,.95-1.5c.159-.482.081-1.157-.056-1.213a2.735,2.735,0,0,0-.985.305,4.99,4.99,0,0,1-.675.258,1.909,1.909,0,0,1-1.741-.416c-.105-.072-.215-.149-.339-.22A1.549,1.549,0,0,0,13.033,12.457Z" transform="translate(-1.035 -1.052)"/><path class="a" d="M10,20A10,10,0,1,1,20,10,10.014,10.014,0,0,1,10,20ZM10,1.25A8.752,8.752,0,1,0,18.755,10,8.762,8.762,0,0,0,10,1.25Z"/><path class="a" d="M11.558,3.778c-.074,0-.148,0-.224-.008a3.654,3.654,0,0,1-1.2-.358,3.44,3.44,0,0,0-.67-.241.979.979,0,0,1-.741-.5.968.968,0,0,1-.062-.6L8.7,1.9a2,2,0,0,0,.051-.348V1.529A.625.625,0,0,1,8.237.418,1.063,1.063,0,0,1,9.621.552,1.4,1.4,0,0,1,10,1.574,2.577,2.577,0,0,1,9.949,2a5.7,5.7,0,0,1,.685.261,2.673,2.673,0,0,0,.788.258A4.7,4.7,0,0,0,12.6,2.379l.184-.038a1.261,1.261,0,0,1-.135-.72,1.185,1.185,0,0,1,.829-.965,1.456,1.456,0,0,1,1.085.108A.625.625,0,0,1,14,1.879a.4.4,0,0,0-.047-.02c.011.014.023.031.037.049l.069.086a1.977,1.977,0,0,1,.384.644.625.625,0,0,1-.585.817,5.668,5.668,0,0,0-1,.147A6.323,6.323,0,0,1,11.558,3.778Z" transform="translate(-0.751 -0.021)"/></g></g></g></svg>