<!-- Generated by IcoMoon.io -->
<svg version="1.1" xmlns="http://www.w3.org/2000/svg" width="32" height="32" viewBox="0 0 32 32">
<title>xs-link-gray</title>
<path fill="#8a8b8a" d="M2.187 19.232c-1.457 1.369-2.365 3.308-2.365 5.46 0 4.134 3.351 7.485 7.485 7.485 2.151 0 4.091-0.908 5.456-2.361l0.004-0.004 5.878-5.878c1.351-1.355 2.186-3.225 2.186-5.29s-0.835-3.935-2.187-5.29l0 0c-0.223-0.211-0.525-0.341-0.857-0.341-0.689 0-1.248 0.559-1.248 1.248 0 0.332 0.13 0.634 0.341 0.857l-0.001-0.001c0.912 0.898 1.477 2.146 1.477 3.527s-0.565 2.628-1.476 3.526l-0.001 0.001-5.878 5.877c-0.913 0.975-2.208 1.583-3.646 1.583-2.756 0-4.99-2.234-4.99-4.99 0-1.437 0.608-2.732 1.58-3.643l0.003-0.003 5.584-5.584c0.226-0.226 0.366-0.538 0.366-0.883 0-0.689-0.559-1.248-1.248-1.248-0.345 0-0.656 0.14-0.882 0.365l-5.584 5.584zM13.355 8.063c-1.351 1.355-2.186 3.225-2.186 5.29s0.835 3.935 2.187 5.29l-0-0c0.228 0.241 0.55 0.391 0.907 0.391 0.689 0 1.248-0.559 1.248-1.248 0-0.357-0.15-0.679-0.39-0.906l-0.001-0.001c-0.912-0.898-1.477-2.146-1.477-3.527s0.565-2.628 1.476-3.526l0.001-0.001 5.878-5.878c0.913-0.975 2.208-1.583 3.646-1.583 2.756 0 4.99 2.234 4.99 4.99 0 1.437-0.608 2.732-1.58 3.643l-0.003 0.003-5.584 5.584c-0.251 0.229-0.408 0.558-0.408 0.923 0 0.689 0.559 1.248 1.248 1.248 0.364 0 0.692-0.156 0.92-0.405l0.001-0.001 5.584-5.584c1.495-1.373 2.428-3.337 2.428-5.518 0-4.134-3.351-7.485-7.485-7.485-2.181 0-4.144 0.933-5.512 2.421l-0.005 0.005z"></path>
</svg>
