<svg xmlns="http://www.w3.org/2000/svg" width="20" height="20" viewBox="0 0 20 20"><defs><style>.a{fill:#8a8b8a;}</style></defs><g transform="translate(-1106.351 -13.977)"><g transform="translate(1081.192 -11.184)"><g transform="translate(25.16 25.16)"><g transform="translate(0 0)"><path class="a" d="M17.715,666.79a8.055,8.055,0,1,0,5.069,14.3l5.451,5.451a.836.836,0,0,0,1.18,0,.825.825,0,0,0,0-1.172l-5.451-5.451a8.052,8.052,0,0,0-6.25-13.133Zm0,1.667a6.389,6.389,0,1,1-6.389,6.389A6.376,6.376,0,0,1,17.715,668.456Z" transform="translate(-9.66 -666.79)"/></g></g></g></g></svg>