<!-- Generated by IcoMoon.io -->
<svg version="1.1" xmlns="http://www.w3.org/2000/svg" width="32" height="32" viewBox="0 0 32 32">
<title>chevron-down-white1</title>
<path fill="#fff" d="M30.539 7.111c-0.401 0.002-0.764 0.166-1.026 0.43l-0 0-13.511 13.063-13.511-13.063c-0.263-0.263-0.627-0.426-1.028-0.426-0.803 0-1.454 0.651-1.454 1.454 0 0.419 0.177 0.796 0.46 1.062l0.001 0.001 14.526 14.044c0.261 0.253 0.618 0.409 1.012 0.409s0.75-0.156 1.012-0.41l-0 0 14.526-14.044c0.287-0.266 0.466-0.646 0.466-1.067 0-0.803-0.651-1.454-1.454-1.454-0.003 0-0.005 0-0.008 0h0z"></path>
</svg>
