<!-- Generated by IcoMoon.io -->
<svg version="1.1" xmlns="http://www.w3.org/2000/svg" width="32" height="32" viewBox="0 0 32 32">
<title>circle-lrt-green</title>
<path fill="#008244" d="M16.013 32.018c-8.842 0-16-7.158-16-16s7.158-16 16-16 16 7.158 16 16-7.158 16-16 16zM16.013 1.702c-7.916 0-14.316 6.4-14.316 14.316s6.4 14.316 14.316 14.316 14.316-6.4 14.316-14.316-6.4-14.316-14.316-14.316z"></path>
<path fill="#008244" d="M13.221 23.54h6.4c1.768 0 3.2-1.347 3.2-3.116 0 0 0-0.084 0-0.084v-9.6c0-1.768-1.347-3.2-3.116-3.2 0 0-0.084 0-0.084 0h-6.4c-1.768 0-3.2 1.347-3.2 3.116 0 0 0 0.084 0 0.084v9.6c0 1.684 1.347 3.116 3.2 3.2-0.084 0 0 0 0 0zM11.2 26.656h1.768l2.021-3.2h-1.768l-2.021 3.2zM19.789 26.656h1.768l-2.021-3.2h-1.684l1.937 3.2zM16.421 20.34c0.842-0.084 1.516-0.758 1.6-1.6-0.084-0.842-0.758-1.516-1.6-1.6-0.842 0.084-1.516 0.758-1.6 1.6 0.084 0.842 0.758 1.516 1.6 1.6v0zM13.221 21.94c-0.842 0.084-1.516-0.505-1.6-1.347 0-0.084 0-0.168 0-0.253v-9.6c-0.084-0.842 0.505-1.516 1.347-1.6 0.084 0 0.168 0 0.253 0h6.4c0.842-0.084 1.516 0.505 1.6 1.347 0 0.084 0 0.168 0 0.253v9.6c0.084 0.842-0.505 1.516-1.347 1.6-0.084 0-0.168 0-0.253 0h-6.4zM11.621 15.54h9.6v-1.6h-9.6v1.6zM15.579 7.54h1.6v-1.6h2.358v-1.6h-6.316v1.6h2.358v1.6z"></path>
</svg>
