<!-- Generated by IcoMoon.io -->
<svg version="1.1" xmlns="http://www.w3.org/2000/svg" width="32" height="32" viewBox="0 0 32 32">
<title>circle-youtube-gray</title>
<path fill="#626462" d="M18.449 16.040l-3.264-1.792c-0.32-0.128-0.64-0.064-0.832 0.256-0.064 0.064-0.064 0.192-0.064 0.256v3.52c0 0.32 0.256 0.576 0.576 0.576 0.128 0 0.192 0 0.256-0.064l3.264-1.728c0.32-0.128 0.384-0.512 0.256-0.832 0-0.064-0.128-0.128-0.192-0.192v0zM15.185 17.896v-2.688l2.432 1.344-2.432 1.344z"></path>
<path fill="#626462" d="M23.441 13.736v0c-0.064-0.64-0.256-1.216-0.64-1.728-0.448-0.448-0.96-0.704-1.6-0.768h-0.064c-1.984-0.128-4.928-0.128-4.992-0.128v0c0 0-2.944 0-4.928 0.192v0h-0.064c-0.576 0.064-1.152 0.32-1.6 0.768-0.384 0.512-0.576 1.088-0.64 1.664v0c0 0.064-0.128 1.216-0.128 2.432v1.088c0 1.152 0.128 2.368 0.128 2.432v0c0.064 0.64 0.256 1.216 0.64 1.664 0.448 0.448 1.024 0.704 1.664 0.704 0.064 0 0.128 0 0.128 0h0.064c1.152 0.128 4.672 0.128 4.8 0.192v0c0 0 2.944 0 4.928-0.192v0h0.064c0.576-0.064 1.152-0.32 1.536-0.768 0.384-0.512 0.576-1.088 0.64-1.664v0c0-0.064 0.128-1.216 0.128-2.432v-1.024c0.064-1.216-0.064-2.368-0.064-2.432zM22.673 17.256c0 1.088-0.064 2.24-0.128 2.304-0.064 0.448-0.192 0.832-0.448 1.216-0.256 0.32-0.64 0.448-1.024 0.448h-0.064c-1.856 0.128-4.736 0.128-4.864 0.128s-3.648-0.064-4.736-0.128c-0.064 0-0.128 0-0.192 0-0.384 0-0.832-0.192-1.088-0.448v0c-0.256-0.384-0.384-0.768-0.448-1.216 0-0.064-0.128-1.216-0.128-2.304v-1.088c0-1.088 0.064-2.24 0.128-2.304 0.064-0.448 0.192-0.832 0.448-1.216 0.256-0.32 0.64-0.448 1.024-0.512h0.064c1.92-0.128 4.8-0.128 4.864-0.128s2.944 0 4.864 0.128h0.064c0.384 0 0.768 0.192 1.088 0.448v0c0.256 0.384 0.384 0.768 0.384 1.216 0 0.064 0.128 1.216 0.128 2.304l0.064 1.152z"></path>
<path fill="#626462" d="M16 32c-8.832 0-16-7.168-16-16s7.168-16 16-16 16 7.168 16 16-7.168 16-16 16zM16 0.96c-8.32 0-15.040 6.72-15.040 15.040s6.72 15.040 15.040 15.040 15.040-6.72 15.040-15.040-6.72-15.040-15.040-15.040z"></path>
</svg>
