<!-- Generated by IcoMoon.io -->
<svg version="1.1" xmlns="http://www.w3.org/2000/svg" width="32" height="32" viewBox="0 0 32 32">
<title>circle-pedestrian-color</title>
<path fill="#a5cf4c" d="M16 32c-8.842 0-16-7.158-16-16s7.158-16 16-16v0c4.295 0 8.253 1.684 11.284 4.716 3.032 2.947 4.716 7.074 4.716 11.284 0 8.842-7.158 16-16 16zM16 1.684c-7.916 0-14.316 6.4-14.316 14.316s6.4 14.316 14.316 14.316 14.316-6.4 14.316-14.316c0-3.789-1.516-7.495-4.211-10.105-2.695-2.695-6.316-4.211-10.105-4.211v0z"></path>
<path fill="#8a8b8a" d="M15.815 12.098c1.432 0 2.611-1.179 2.611-2.611-0.084-1.347-1.179-2.526-2.611-2.526s-2.611 1.179-2.611 2.611c0 1.432 1.179 2.526 2.611 2.526zM15.815 8.224c0.674 0 1.263 0.589 1.263 1.263s-0.589 1.263-1.263 1.263c-0.674 0-1.263-0.589-1.263-1.263 0 0 0 0 0 0-0.084-0.674 0.505-1.263 1.263-1.263v0z"></path>
<path fill="#8a8b8a" d="M11.267 17.908c0-2.863 2.274-5.137 5.137-5.137h0.674c0.337 0 0.674 0.253 0.674 0.674v0 0.674c0 1.432 1.179 2.611 2.611 2.611 0.337 0 0.674 0.337 0.589 0.674 0 0.337-0.253 0.589-0.589 0.589-0.926 0-1.853-0.337-2.611-1.011v1.6c0 0.337-0.337 0.674-0.674 0.589-0.337 0-0.589-0.253-0.589-0.589v-4.547c-0.421 0-0.842 0.084-1.263 0.253v3.705c0 0.589 0.253 1.179 0.758 1.516l2.105 1.768c0.084 0.084 0.168 0.168 0.168 0.253l1.263 2.611c0.168 0.337 0 0.674-0.253 0.842s-0.674 0-0.842-0.253c0 0 0 0 0 0l-1.263-2.442-1.011-0.842-0.421 1.263c0 0.084-0.084 0.168-0.168 0.253l-1.937 1.937c-0.253 0.253-0.674 0.253-0.926 0s-0.253-0.674 0-0.842l1.853-1.937 0.505-1.6c-0.758-0.589-1.179-1.516-1.179-2.526v-2.947c-0.842 0.758-1.263 1.768-1.263 2.863 0 0.337-0.337 0.674-0.674 0.589-0.421 0.084-0.674-0.253-0.674-0.589v0z"></path>
</svg>
