<!-- Generated by IcoMoon.io -->
<svg version="1.1" xmlns="http://www.w3.org/2000/svg" width="32" height="32" viewBox="0 0 32 32">
<title>circle-red-bus</title>
<path fill="#ed1b2e" d="M32 16c0 8.837-7.163 16-16 16s-16-7.163-16-16c0-8.837 7.163-16 16-16s16 7.163 16 16z"></path>
<path fill="#fff" d="M20.38 6.018h-9.329c-0.079-0.008-0.17-0.012-0.263-0.012-1.58 0-2.86 1.281-2.86 2.86 0 0.093 0.004 0.184 0.013 0.274l-0.001-0.012v17.103h1.557v-2.332h12.437v2.332h1.555v-17.105c0.008-0.078 0.012-0.169 0.012-0.261 0-1.58-1.281-2.86-2.86-2.86-0.092 0-0.183 0.004-0.272 0.013l0.011-0.001zM21.934 22.343h-12.437v-13.216c0.059-0.833 0.72-1.495 1.548-1.553l0.005-0h9.333c0.834 0.058 1.496 0.721 1.554 1.549l0 0.005zM12.608 20.788v-1.555h-1.557v1.555zM20.382 19.234h-1.558v1.555h1.555zM6.386 17.679h18.658v-1.555h-18.658zM16.492 17.291v-5.83h-1.555v5.83zM7.94 12.237h15.548v-1.553h-15.548z"></path>
</svg>
