<!-- Generated by IcoMoon.io -->
<svg version="1.1" xmlns="http://www.w3.org/2000/svg" width="32" height="32" viewBox="0 0 32 32">
<title>circle-pin-color</title>
<path fill="#a5cf4c" d="M16 32c-8.842 0-16-7.158-16-16s7.158-16 16-16v0c4.295 0 8.253 1.684 11.284 4.716 3.032 2.947 4.716 7.074 4.716 11.284 0 8.842-7.158 16-16 16zM16 1.684c-7.916 0-14.316 6.4-14.316 14.316s6.4 14.316 14.316 14.316 14.316-6.4 14.316-14.316c0-3.789-1.516-7.495-4.211-10.105-2.695-2.695-6.316-4.211-10.105-4.211v0z"></path>
<path fill="#ed1b2e" d="M16 32c-8.842 0-16-7.158-16-16s7.158-16 16-16v0c4.295 0 8.253 1.684 11.284 4.716 3.032 2.947 4.716 7.074 4.716 11.284 0 8.842-7.158 16-16 16zM16 1.684c-7.916 0-14.316 6.4-14.316 14.316s6.4 14.316 14.316 14.316 14.316-6.4 14.316-14.316c0-3.789-1.516-7.495-4.211-10.105-2.695-2.695-6.316-4.211-10.105-4.211v0z"></path>
<path fill="#8a8b8a" d="M15.994 8.627c-3.702 0.13-6.543 3.177-6.413 6.879 0.029 0.841 0.227 1.677 0.59 2.422 0.636 1.325 1.434 2.477 2.317 3.625 0.973 1.314 2.113 2.621 2.912 3.773 0.177 0.246 0.601 0.316 0.847 0.139 0.084-0.003 0.081-0.087 0.165-0.090v0c0.968-1.213 2.267-2.606 3.398-3.994 1.055-1.132 1.939-2.342 2.562-3.796 0.31-0.769 0.53-1.703 0.5-2.544-0.13-3.702-3.261-6.54-6.879-6.413v0zM16.035 9.805c3.029-0.106 5.47 2.251 5.573 5.195 0 0 0 0 0 0 0.024 0.673-0.118 1.436-0.35 2.034 0 0 0 0 0 0v0c-0.632 1.201-1.348 2.406-2.325 3.366-0.971 1.129-2.024 2.345-2.914 3.387-0.795-1.067-1.675-2.131-2.47-3.198-0.877-0.98-1.591-2.134-2.137-3.294 0 0 0 0 0 0v0c-0.438-0.49-0.63-1.157-0.654-1.83-0.106-3.029 2.248-5.554 5.277-5.66 0 0 0 0 0 0v0zM16.121 12.244c-1.683 0.059-2.981 1.452-2.922 3.135s1.452 2.981 3.135 2.922 2.981-1.452 2.922-3.135c-0.059-1.683-1.452-2.981-3.135-2.922v0zM16.162 13.422c1.010-0.035 1.88 0.776 1.913 1.702 0.035 1.010-0.776 1.88-1.702 1.913-1.010 0.035-1.88-0.776-1.913-1.702 0 0 0 0 0 0-0.12-1.007 0.692-1.877 1.702-1.913 0 0 0 0 0 0v0z"></path>
</svg>
