<!-- Generated by IcoMoon.io -->
<svg version="1.1" xmlns="http://www.w3.org/2000/svg" width="37" height="32" viewBox="0 0 37 32">
<title>directions-white</title>
<path fill="#fff" d="M6.526 15.157c-3.604 0-6.526 2.922-6.526 6.526s2.922 6.526 6.526 6.526v0h9.973l-2.355 2.355c-0.151 0.152-0.244 0.362-0.244 0.593 0 0.465 0.377 0.843 0.843 0.843 0.234 0 0.446-0.096 0.599-0.25l3.779-3.779c0.154-0.153 0.25-0.365 0.25-0.599s-0.096-0.446-0.25-0.599l-0-0-3.79-3.79c-0.018-0.025-0.035-0.046-0.053-0.067l0.001 0.001c-0.152-0.145-0.358-0.234-0.585-0.234-0.468 0-0.848 0.38-0.848 0.848 0 0.253 0.111 0.48 0.286 0.635l0.001 0.001 2.371 2.355h-9.979c-2.674 0-4.842-2.168-4.842-4.842s2.168-4.842 4.842-4.842h20.842c0.465 0 0.842-0.377 0.842-0.842s-0.377-0.842-0.842-0.842v0zM25.685 22.737c-2.558 0-4.632 2.074-4.632 4.632s2.074 4.632 4.632 4.632c2.558 0 4.632-2.074 4.632-4.632v0c-0.007-2.555-2.076-4.624-4.631-4.632h-0.001zM25.685 24.421c1.628 0 2.947 1.32 2.947 2.947s-1.32 2.947-2.947 2.947c-1.628 0-2.947-1.32-2.947-2.947v0c-0-0.004-0-0.009-0-0.013 0-1.621 1.314-2.935 2.935-2.935 0.004 0 0.009 0 0.013 0h-0.001z"></path>
<path fill="#fff" d="M11.368 0c-0.001 0-0.001 0-0.002 0-2.558 0-4.632 2.074-4.632 4.632s2.074 4.632 4.632 4.632c2.26 0 4.142-1.619 4.55-3.761l0.005-0.029h14.606c0.008-0 0.016-0 0.025-0 2.66 0 4.817 2.157 4.817 4.817 0 0.009-0 0.018-0 0.027v-0.001c0.003 0.067 0.005 0.146 0.005 0.225 0 2.55-2.067 4.617-4.617 4.617-0.007 0-0.014 0-0.021-0h0.001c-0.465 0-0.842 0.377-0.842 0.842s0.377 0.842 0.842 0.842v0c3.496-0.034 6.317-2.876 6.317-6.377 0-0.052-0.001-0.105-0.002-0.157l0 0.008c-0.003-3.603-2.923-6.524-6.526-6.526h-14.605c-0.417-2.167-2.295-3.783-4.552-3.789h-0.001zM11.368 1.684c1.628 0 2.947 1.319 2.947 2.947s-1.319 2.947-2.947 2.947c-1.628 0-2.947-1.319-2.947-2.947v0c-0-0.004-0-0.008-0-0.013 0-1.621 1.314-2.935 2.935-2.935 0.004 0 0.009 0 0.013 0h-0.001z"></path>
</svg>
