<!-- Generated by IcoMoon.io -->
<svg version="1.1" xmlns="http://www.w3.org/2000/svg" width="25" height="32" viewBox="0 0 25 32">
<title>map-location-pin</title>
<path fill="#ed1b2e" d="M12.572 0c-6.94 0.009-12.564 5.632-12.573 12.572v0.001c0.002 1.697 0.372 3.306 1.035 4.754l-0.029-0.072c1.182 2.653 2.582 4.94 4.235 7.016l-0.050-0.065c1.805 2.489 3.799 5.056 5.288 7.287 0.208 0.309 0.556 0.509 0.951 0.509 0.351 0 0.665-0.158 0.875-0.407l0.001-0.002c1.851-2.221 4.416-4.789 6.699-7.268s4.275-4.764 5.085-6.949c0.667-1.405 1.056-3.053 1.056-4.792 0-0.004 0-0.008 0-0.012v0.001c-0.009-6.94-5.631-12.563-12.57-12.573h-0.001zM12.572 2.286c0.005 0 0.011 0 0.017 0 5.671 0 10.268 4.597 10.268 10.268 0 0.006 0 0.013-0 0.019v-0.001c0 0.022 0 0.049 0 0.075 0 1.388-0.317 2.702-0.883 3.874l0.023-0.053c-0.010 0.021-0.022 0.049-0.033 0.078v0.008c-0.521 1.431-2.4 3.791-4.637 6.22-1.911 2.076-3.979 4.224-5.79 6.286-1.418-2.025-3.002-4.138-4.494-6.195-1.47-1.861-2.773-3.97-3.82-6.222l-0.082-0.196c-0.011-0.031-0.020-0.053-0.030-0.075v0.007c-0.521-1.099-0.825-2.389-0.825-3.749 0-0.020 0-0.041 0-0.061l-0 0.003c0-0.005 0-0.011 0-0.017 0-5.671 4.597-10.268 10.268-10.268 0.006 0 0.013 0 0.019 0h-0.001zM12.572 6.858c-3.156 0-5.714 2.558-5.714 5.714s2.558 5.714 5.714 5.714c3.155 0 5.713-2.558 5.714-5.713v-0c-0.011-3.151-2.563-5.703-5.713-5.714h-0.001zM12.572 9.144c1.893 0.001 3.428 1.536 3.428 3.429s-1.535 3.429-3.429 3.429-3.429-1.535-3.429-3.429v0c-0-0.005-0-0.011-0-0.017 0-1.885 1.528-3.413 3.413-3.413 0.006 0 0.012 0 0.018 0h-0.001z"></path>
</svg>
