<!-- Generated by IcoMoon.io -->
<svg version="1.1" xmlns="http://www.w3.org/2000/svg" width="32" height="32" viewBox="0 0 32 32">
<title>map-blue-circle1</title>
<path fill="#0053a0" d="M17.003 2c8.283 0.002 14.997 6.717 14.997 15 0 8.284-6.716 15-15 15s-15-6.716-15-15v0c0.001-8.284 6.717-15 15.002-15 0.001 0 0.001 0 0.002 0h-0z"></path>
<path fill="#0053a0" d="M16 0c-8.837 0-16 7.163-16 16s7.163 16 16 16c8.837 0 16-7.163 16-16v0c0-8.837-7.163-16-16-16v0zM16 29.326c-7.36-0.003-13.325-5.97-13.325-13.33 0-7.362 5.968-13.33 13.33-13.33s13.33 5.968 13.33 13.33c0 0.001 0 0.002 0 0.003v-0c-0.003 7.361-5.97 13.326-13.331 13.326-0.001 0-0.002 0-0.003 0h0z"></path>
</svg>
