<!-- Generated by IcoMoon.io -->
<svg version="1.1" xmlns="http://www.w3.org/2000/svg" width="32" height="32" viewBox="0 0 32 32">
<title>ring-red</title>
<path fill="#fff" d="M32 16c0 8.837-7.163 16-16 16s-16-7.163-16-16c0-8.837 7.163-16 16-16s16 7.163 16 16z"></path>
<path fill="#ed1b2e" d="M16 32c-8.847 0-16-7.153-16-16s7.153-16 16-16c8.847 0 16 7.153 16 16s-7.153 16-16 16zM16 5.647c-5.647 0-10.353 4.706-10.353 10.353s4.706 10.353 10.353 10.353c5.647 0 10.353-4.706 10.353-10.353s-4.706-10.353-10.353-10.353z"></path>
</svg>
