<!-- Generated by IcoMoon.io -->
<svg version="1.1" xmlns="http://www.w3.org/2000/svg" width="34" height="32" viewBox="0 0 34 32">
<title>triangle-exclamation-white</title>
<path fill="#fff" d="M33.418 23.924l-11.637-20.691c-1.17-2.085-2.798-3.234-4.575-3.234s-3.402 1.148-4.574 3.234l-11.639 20.691c-1.17 2.079-1.308 4.085-0.394 5.649s2.733 2.427 5.119 2.427h22.977c2.386 0 4.203-0.862 5.119-2.427s0.774-3.571-0.395-5.649zM32.375 29.107c-0.565 0.963-1.991 1.5-3.682 1.5h-22.977c-1.69 0-2.4-0.557-3.496-1.5s-0.826-2.789 0-4.261l11.694-20.69c0.826-1.467 2.223-2.684 3.291-2.684s2.645 1.219 3.471 2.684l11.699 20.69c0.332 0.618 0.527 1.352 0.527 2.132 0 0.779-0.195 1.512-0.538 2.154l0.012-0.025z"></path>
<path fill="#fff" d="M18.754 20.986v-10.59c0-0.008 0-0.017 0-0.026 0-0.542-0.44-0.982-0.982-0.982s-0.982 0.44-0.982 0.982c0 0.009 0 0.018 0 0.027l-0-0.001v10.589c-0 0.008-0 0.017-0 0.026 0 0.542 0.44 0.982 0.982 0.982s0.982-0.44 0.982-0.982c0-0.009-0-0.018-0-0.027l0 0.001z"></path>
<path fill="#fff" d="M19.112 24.944c0-0.782-0.634-1.416-1.416-1.416s-1.416 0.634-1.416 1.416c0 0.782 0.634 1.416 1.416 1.416v0c0.782-0.001 1.415-0.634 1.416-1.416v-0z"></path>
</svg>
