<svg xmlns="http://www.w3.org/2000/svg" width="20.481" height="15.258" viewBox="0 0 20.481 15.258"><defs><style>.a{fill:#fff;}</style></defs><g transform="translate(-2196.883 -716)"><g transform="translate(2196.883 716)"><path class="a" d="M21.969,17.136l-6.87-6.87a.746.746,0,1,0-1.055,1.055l5.6,5.6H2.479a.754.754,0,1,0,0,1.508H19.643l-5.6,5.6a.729.729,0,0,0,0,1.055.781.781,0,0,0,1.077,0l6.87-6.87a.714.714,0,0,0,.215-.538A.826.826,0,0,0,21.969,17.136Z" transform="translate(-1.725 -10.039)"/></g></g></svg>