<!-- Generated by IcoMoon.io -->
<svg version="1.1" xmlns="http://www.w3.org/2000/svg" width="16" height="16" viewBox="0 0 16 16">
<title>pin-red</title>
<path fill="#ed1b2e" d="M8 0c-3.45 0.004-6.246 2.8-6.25 6.25v0c0.001 0.843 0.185 1.643 0.515 2.363l-0.015-0.036c0.587 1.319 1.283 2.456 2.105 3.488l-0.025-0.032c0.897 1.238 1.889 2.514 2.628 3.623 0.103 0.153 0.277 0.253 0.473 0.253 0.174 0 0.331-0.079 0.435-0.202l0.001-0.001c0.92-1.104 2.195-2.38 3.33-3.613s2.125-2.368 2.528-3.454c0.331-0.699 0.525-1.518 0.525-2.382 0-0.002 0-0.004 0-0.006v0c-0.004-3.45-2.799-6.245-6.249-6.25h-0zM8 1.137c0.003 0 0.006 0 0.009 0 2.819 0 5.104 2.285 5.104 5.104 0 0.003 0 0.006-0 0.010v-0c0 0.011 0 0.024 0 0.037 0 0.69-0.158 1.343-0.439 1.926l0.012-0.027c-0.005 0.011-0.011 0.024-0.017 0.039v0.004c-0.259 0.711-1.193 1.885-2.305 3.092-0.95 1.032-1.978 2.1-2.878 3.125-0.705-1.006-1.492-2.057-2.234-3.079-0.731-0.925-1.378-1.974-1.899-3.093l-0.041-0.097c-0.006-0.015-0.010-0.027-0.015-0.037v0.004c-0.259-0.547-0.41-1.188-0.41-1.864 0-0.010 0-0.020 0-0.030l-0 0.002c0-0.003 0-0.006 0-0.009 0-2.819 2.285-5.104 5.104-5.104 0.003 0 0.006 0 0.009 0h-0zM8 3.409c-1.569 0-2.84 1.272-2.84 2.84s1.272 2.841 2.841 2.841c1.569 0 2.84-1.271 2.841-2.84v-0c-0.005-1.567-1.274-2.835-2.84-2.841h-0.001zM8 4.545c0.941 0 1.704 0.763 1.704 1.705s-0.763 1.704-1.704 1.704-1.704-0.763-1.704-1.704v0c-0-0.003-0-0.006-0-0.009 0-0.937 0.76-1.696 1.697-1.696 0.003 0 0.006 0 0.009 0h-0z"></path>
</svg>
