<svg xmlns="http://www.w3.org/2000/svg" xmlns:xlink="http://www.w3.org/1999/xlink" width="16" height="1184" viewBox="0 0 16 1184"><svg width="16" height="16" viewBox="0 0 16 16" id="accessible-gray" y="0"><title>accessible-gray</title><path fill="#8a8b8a" d="M4.96 4.907a2.453 2.453 0 1 0-2.453-2.453v.007a2.447 2.447 0 0 0 2.447 2.447h.007zm0-3.84a1.387 1.387 0 1 1-1.387 1.387v-.009c0-.761.617-1.377 1.377-1.377h.01zm9.013 13.946l-1.947-2.96a.497.497 0 0 0-.399-.24h-.001l-4.773-.373-1.627-3.76a.814.814 0 0 1 .029-.751l-.002.004a.905.905 0 0 1 .58-.452l.006-.001a.853.853 0 0 1 .985.607l.001.006.747 1.92a.57.57 0 0 0 .697.319l-.004.001 2.373-.88a.541.541 0 1 0-.377-1.012l.004-.001-1.893.693-.533-1.413a1.896 1.896 0 0 0-2.226-1.278l.013-.002a1.927 1.927 0 0 0-1.518 2.279l-.002-.012a4.489 4.489 0 0 0-2.116 3.808 4.485 4.485 0 0 0 8.774 1.316l.008-.032.507.027 1.787 2.747c.095.145.257.24.44.24h.014-.001.011c.104 0 .202-.03.285-.081l-.002.001a.523.523 0 0 0 .159-.722l.001.002zm-7.493-.08a3.423 3.423 0 0 1-1.984-6.206l.01-.007 1.493 3.44c.079.18.25.306.452.32h.002l3.253.24a3.459 3.459 0 0 1-3.223 2.213h-.004z"></path></svg><svg width="16" height="16" viewBox="0 0 16 16" id="add-value-gray" y="16"><title>add-value-gray</title><path fill="#8a8b8a" d="M13.161 5.734a.382.382 0 0 0-.382.382V13.57a1.53 1.53 0 0 1-1.529 1.529H2.457A1.53 1.53 0 0 1 .928 13.57V4.394a1.53 1.53 0 0 1 1.529-1.529h6.892a.382.382 0 1 0 0-.764h-.012.001-6.881A2.297 2.297 0 0 0 .163 4.395v9.176a2.296 2.296 0 0 0 2.293 2.294h8.793a2.296 2.296 0 0 0 2.294-2.293V6.118v-.001a.382.382 0 0 0-.382-.382zm2.293-3.633h-1.911V.382.371a.382.382 0 1 0-.764 0v.012-.001 1.719h-1.887a.382.382 0 0 0 0 .764h1.888V4.596a.382.382 0 1 0 .764 0v-.012.001-1.719h1.912a.382.382 0 0 0 0-.764h-.001z"></path><path fill="#8a8b8a" d="M7.065 8.667c-1.003-.29-1.285-.803-1.221-1.153.057-.318.417-.638 1.09-.638l.053-.001c.493 0 .906.343 1.013.804l.001.007a.428.428 0 0 0 .489.299h-.003a.362.362 0 0 0 .319-.431v.002A1.79 1.79 0 0 0 7.299 6.17l-.009-.001v-.644a.39.39 0 0 0-.778-.001v.645c-.778.129-1.375.598-1.49 1.228-.116.639.279 1.539 1.784 1.975.792.229 1.221.597 1.151.984-.06.332-.515.677-1.171.677-1.124 0-1.205-.54-1.208-.641a.399.399 0 0 0-.397-.37l-.026.001h.001l-.022-.001a.39.39 0 0 0-.389.371v.001c0 .448.34 1.271 1.767 1.371v.522a.39.39 0 0 0 .778.001v-.57c.778-.16 1.365-.643 1.473-1.245.054-.291.106-1.283-1.7-1.805z"></path></svg><svg width="16" height="16" viewBox="0 0 16 16" id="alerts-color" y="32"><title>alerts-color</title><path fill="#ed1b2e" d="M15.365 11.666l-5.351-9.513C9.475 1.194 8.728.667 7.911.667s-1.564.528-2.103 1.486L.457 11.666c-.538.956-.602 1.878-.181 2.597s1.257 1.116 2.353 1.116h10.565c1.097 0 1.933-.397 2.353-1.116s.356-1.642-.181-2.597zm-.479 2.383c-.26.443-.915.69-1.693.69H2.628c-.777 0-1.103-.256-1.607-.69s-.381-1.282 0-1.959l5.376-9.513c.379-.675 1.022-1.235 1.513-1.235s1.216.561 1.596 1.235l5.38 9.513c.152.284.242.621.242.98s-.09.696-.248.991l.006-.011z"></path><path fill="#f68b1f" d="M8.679 10.34V5.144v-.013a.482.482 0 0 0-.964 0v.013-.001 5.196a.482.482 0 0 0 .964 0v-.001zM8.878 12.29a.682.682 0 1 0-.682.682.682.682 0 0 0 .682-.682z"></path></svg><svg width="16" height="16" viewBox="0 0 16 16" id="alerts-white" y="48"><title>alerts-white</title><path fill="#fff" d="M15.692 11.744l-5.465-9.716C9.676 1.049 8.913.51 8.079.51s-1.597.539-2.148 1.518L.466 11.744c-.549.976-.615 1.918-.185 2.653s1.283 1.14 2.403 1.14h10.79c1.12 0 1.974-.405 2.403-1.14s.364-1.677-.185-2.653zm-.49 2.434c-.265.452-.935.704-1.729.704H2.684c-.794 0-1.127-.261-1.642-.704s-.389-1.31 0-2.001l5.491-9.715C6.92 1.773 7.577 1.2 8.078 1.2s1.242.573 1.63 1.261l5.494 9.715c.156.29.247.635.247 1.001s-.091.71-.253 1.012l.006-.012z"></path><path fill="#fff" d="M8.863 10.389V5.082v-.013a.492.492 0 1 0-.984 0v.014-.001 5.307a.492.492 0 0 0 .984 0v-.001zM9.067 12.381a.697.697 0 1 0-.697.697.697.697 0 0 0 .697-.697z"></path></svg><svg width="16" height="16" viewBox="0 0 16 16" id="arrow-left-blue" y="64"><title>arrow-left-blue</title><path fill="#0097d0" d="M.165 7.627l4.8-4.8a.522.522 0 1 1 .738.738L1.792 7.477h12a.527.527 0 0 1 0 1.054h-12l3.914 3.914a.506.506 0 0 1 0 .738.545.545 0 0 1-.753 0l-4.8-4.8a.5.5 0 0 1-.151-.358v-.02.001a.573.573 0 0 1 .163-.379z"></path></svg><svg width="16" height="16" viewBox="0 0 16 16" id="arrow-right-blue" y="80"><title>arrow-right-blue</title><path fill="#0097d0" d="M16.172 8.427l-5.486 5.486a.596.596 0 0 1-.842-.844l4.47-4.471H.6a.602.602 0 1 1 0-1.204h13.714L9.841 2.921a.579.579 0 0 1 0-.843.62.62 0 0 1 .86 0l5.485 5.485a.569.569 0 0 1 .173.409v.023-.001a.66.66 0 0 1-.187.434z"></path></svg><svg width="16" height="16" viewBox="0 0 16 16" id="arrow-right-white" y="96"><title>arrow-right-white</title><path fill="#fff" d="M16.172 8.427l-5.486 5.486a.596.596 0 0 1-.842-.844l4.47-4.471H.6a.602.602 0 1 1 0-1.204h13.714L9.841 2.921a.579.579 0 0 1 0-.843.62.62 0 0 1 .86 0l5.485 5.485a.569.569 0 0 1 .173.409v.023-.001a.66.66 0 0 1-.187.434z"></path></svg><svg width="16" height="16" viewBox="0 0 16 16" id="avatar-gray" y="112"><title>avatar-gray</title><path fill="#8a8b8a" d="M8 16a8 8 0 1 0-8-8 8.01 8.01 0 0 0 8 8zm0-1.231h-.004a6.726 6.726 0 0 1-4.786-1.992c1.224-1.23 2.919-1.991 4.791-1.991s3.567.761 4.791 1.991a6.727 6.727 0 0 1-4.786 1.991h-.005zM5.538 7.094a2.461 2.461 0 1 1 2.461 2.461 2.467 2.467 0 0 1-2.462-2.461zM8 1.231h.004a6.765 6.765 0 0 1 5.561 10.618l.015-.022a7.984 7.984 0 0 0-3.149-1.892l-.057-.016a3.693 3.693 0 1 0-4.754-.004l.006.005a8.022 8.022 0 0 0-3.208 1.91l.002-.002a6.71 6.71 0 0 1-1.189-3.831 6.765 6.765 0 0 1 6.765-6.765h.005z"></path></svg><svg width="16" height="16" viewBox="0 0 16 16" id="broadcast-red" y="128"><title>broadcast-red</title><path fill="#ed1b2e" d="M15.969 6.851a1.156 1.156 0 0 0-.366-.751l-.01-.009-.004-.004a1.179 1.179 0 0 0-.79-.318h.001A8.38 8.38 0 0 0 8.327 8.43a8.368 8.368 0 0 0-2.214 6.539l.001.012a1.206 1.206 0 0 0 1.169 1.078h-.002a.952.952 0 0 0 .988-1.046v-.001a6.488 6.488 0 0 1 1.715-5.066 6.483 6.483 0 0 1 4.999-2.062l.011.001a.944.944 0 0 0 .975-1.031v-.001z"></path><path fill="#ed1b2e" d="M2.518 14.954a12.225 12.225 0 0 1 3.435-8.999 12.224 12.224 0 0 1 9.006-3.737h.009a.996.996 0 0 0 1.014-1.04v-.001A1.096 1.096 0 0 0 14.889.132h.001a14.198 14.198 0 0 0-10.472 4.34 14.193 14.193 0 0 0-3.989 10.45v.007a1.098 1.098 0 0 0 1.074.995h-.001a.988.988 0 0 0 1.016-.971v.001z"></path></svg><svg width="14" height="16" viewBox="0 0 14 16" id="bus-broadcast-color" y="144"><title>bus-broadcast-color</title><path fill="#ed1b2e" d="M5.539 2.45a.357.357 0 0 0-.362-.362 3.184 3.184 0 0 0-2.25.936 3.183 3.183 0 0 0-.936 2.255.362.362 0 1 0 .725-.001c.001-.632.243-1.263.725-1.745s1.112-.723 1.742-.725a.357.357 0 0 0 .355-.357z"></path><path fill="#ed1b2e" d="M.732 5.289a4.451 4.451 0 0 1 1.307-3.151A4.448 4.448 0 0 1 5.184.831a.362.362 0 0 0 0-.725 5.165 5.165 0 0 0-3.652 1.518 5.165 5.165 0 0 0-1.518 3.66.36.36 0 0 0 .719.006z"></path><path fill="#0053a0" d="M11.69 4.528H6.403c-1.1 0-1.762.662-1.762 1.765V16h.881v-1.322h7.05v1.324h.881V6.293c0-1.103-.66-1.765-1.763-1.765zm.881 9.266h-7.05v-7.5a.948.948 0 0 1 .878-.883h5.29a.949.949 0 0 1 .881.879v.003zm-5.287-.883v-.882h-.881v.882zm4.406-.882h-.881v.882h.881zm-7.931-.883h10.574v-.882H3.759zm5.728-.22V7.617h-.881v3.309zM4.64 8.059h8.812v-.882H4.64z"></path></svg><svg width="16" height="16" viewBox="0 0 16 16" id="bus-gray" y="160"><title>bus-gray</title><path fill="#8a8b8a" d="M12.048 0H4.016C2.343 0 1.339.923 1.339 2.462v13.539h1.339v-1.844h10.71v1.846h1.339V2.462C14.727.923 13.723 0 12.05 0zm1.339 12.924H2.677V2.462a1.388 1.388 0 0 1 1.337-1.231h8.034c.695.02 1.26.548 1.338 1.224l.001.006zm-8.032-1.231v-1.231H4.016v1.231zm6.693-1.231h-1.339v1.231h1.339zM0 9.231h16.064V7.999H0zm8.701-.308V4.305H7.362v4.618zm-7.362-4h13.387V3.692H1.339z"></path></svg><svg width="16" height="16" viewBox="0 0 16 16" id="bus-stop-color" y="176"><title>bus-stop-color</title><path fill="#f68b1f" d="M6.372 1.167c-.567 0-1.067.467-1.067 1.067v9.6c0 .467.3.867.7 1v1.5c0 .2.167.367.367.367h1.767a.37.37 0 0 0 .367-.367v-1.433h4.267v1.433c0 .2.167.367.367.367h1.767a.37.37 0 0 0 .367-.367v-1.5c.433-.167.7-.567.7-1v-9.6c0-.6-.467-1.067-1.067-1.067-.2 0-.367.167-.367.367s.167.367.367.367c.2 0 .367.167.367.333v1.433H6.007V2.234c0-.2.167-.367.333-.367h7.133c.2 0 .367-.167.367-.367s-.133-.333-.333-.333H6.374zM9.739 2.4c-.2 0-.333.2-.333.367 0 .2.167.333.367.333h1.767c.2 0 .367-.167.367-.367s-.167-.367-.367-.367h-1.8v.033zM6.006 4.367h4.3v3.567h-4.3V4.367zm5 0h4.267v3.567h-4.267V4.367zm-5 4.3h9.267v3.2c0 .2-.167.367-.333.367H6.373c-.2 0-.367-.167-.367-.333V8.668zm1.8.533c-.7 0-1.233.567-1.233 1.233s.567 1.233 1.233 1.233 1.233-.567 1.233-1.233c0-.7-.567-1.233-1.233-1.233zm5.7 0c-.7 0-1.233.567-1.233 1.233s.567 1.233 1.233 1.233 1.233-.567 1.233-1.233c0-.7-.533-1.233-1.233-1.233zm-5.7.7c.3 0 .533.233.533.533s-.233.533-.533.533-.533-.233-.533-.533c0-.3.233-.533.533-.533zm5.7 0c.3 0 .533.233.533.533s-.233.533-.533.533-.533-.233-.533-.533c0-.3.233-.533.533-.533zm-6.767 3.033h1.067V14H6.739v-1.067zm6.767 0h1.067V14h-1.067v-1.067z"></path><path fill="#0097d0" d="M1.7 9.341v4.667h-.533-.033c-.2 0-.367.167-.333.367 0 .2.167.367.367.333H2.968c.2 0 .367-.167.367-.367s-.167-.367-.367-.367h-.567V9.307c.9-.133-1.633-.133-.7.033z"></path><path fill="#0097d0" d="M1.7 14.008h-.533-.033c-.2 0-.367.167-.333.367s.167.367.367.333H2.968c.2 0 .367-.167.367-.367s-.167-.367-.367-.367H1.701z"></path><path fill="#fff" d="M1 5.508h2.1c.567 0 1 .433 1 1v2.1c0 .567-.433 1-1 1H1c-.567 0-1-.433-1-1v-2.1c0-.567.433-1 1-1z"></path><path fill="#0097d0" d="M3.1 9.608H1c-.567 0-1-.433-1-1v-2.1c0-.567.433-1 1-1h2.1c.567 0 1 .433 1 1v2.1c0 .567-.433 1-1 1zM1 6.174c-.2 0-.333.133-.333.333v2.1c0 .2.133.333.333.333h2.1c.2 0 .333-.133.333-.333v-2.1c0-.2-.133-.333-.333-.333H1z"></path></svg><svg width="16" height="16" viewBox="0 0 16 16" id="calendar-gray" y="192"><title>calendar-gray</title><path fill="#8a8b8a" d="M13.63 2.123h-2.123V.55a.551.551 0 0 0-1.1-.001V2.123H5.288V.55a.551.551 0 0 0-1.1-.001V2.123H2.065A2.072 2.072 0 0 0-.002 4.189v9.744A2.072 2.072 0 0 0 2.064 16h11.564a2.072 2.072 0 0 0 2.067-2.066V4.19a2.072 2.072 0 0 0-2.066-2.066zm-11.563 1.1H4.19v.759a.551.551 0 0 0 1.1.001v-.76h5.099v.759a.551.551 0 0 0 1.1.001v-.76h2.123a.971.971 0 0 1 .967.966v1.839H1.1V4.189a.97.97 0 0 1 .967-.967zM13.63 14.901H2.067a.971.971 0 0 1-.967-.966V7.147h13.497v6.787a.97.97 0 0 1-.967.967z"></path><path fill="#8a8b8a" d="M4.227 7.943a1.915 1.915 0 0 0 0 3.83h.021A1.893 1.893 0 0 0 6.141 9.88v-.003-.008c0-1.06-.856-1.919-1.914-1.925h-.001zm0 2.749a.825.825 0 0 1-.815-.825v-.009-.023a.815.815 0 0 1 1.63 0v.024-.001.009a.825.825 0 0 1-.814.825h-.001zM5.043 12.607H3.375a.55.55 0 1 0 0 1.1h.02-.001 1.668a.55.55 0 1 0 0-1.1h-.02.001zM8.95 12.607H7.28a.55.55 0 1 0 0 1.1h.02-.001H8.95a.551.551 0 0 0 .001-1.1H8.95zM8.95 9.327H7.28a.55.55 0 1 0 0 1.1h.02-.001H8.95a.551.551 0 0 0 .001-1.1H8.95zM12.853 12.607h-1.649a.551.551 0 0 0-.001 1.1H12.872a.55.55 0 1 0 0-1.1h-.02.001zM12.853 9.327h-1.649a.551.551 0 0 0-.001 1.1H12.872a.55.55 0 1 0 0-1.1h-.02.001z"></path></svg><svg width="16" height="16" viewBox="0 0 16 16" id="car-color" y="208"><title>car-color</title><path fill="#0097d0" d="M3.645 7.655h-.001a1.323 1.323 0 1 0 1.323 1.323v-.001a1.324 1.324 0 0 0-1.323-1.322zm0 1.935a.612.612 0 1 1 .613-.613.614.614 0 0 1-.613.613zM12.37 7.655a1.323 1.323 0 1 0 1.323 1.323v-.001a1.325 1.325 0 0 0-1.324-1.322zm0 1.935a.612.612 0 1 1 .613-.613.614.614 0 0 1-.613.613zM9.315 9.874H6.6a.356.356 0 0 0 0 .712h.011-.001 2.704a.356.356 0 0 0 .001-.71h-.001zM10.213 8.732H5.702a.356.356 0 0 0 0 .712h.011-.001 4.511a.356.356 0 0 0 0-.712h-.011.001zM10.213 7.591H5.702a.356.356 0 0 0 0 .712h.011-.001 4.511a.356.356 0 0 0 0-.712h-.011.001z"></path><path fill="#a5cf4c" d="M14.892 4.905h-1.248l-.531-1.171a2.965 2.965 0 0 0-2.691-1.733H5.594A2.961 2.961 0 0 0 2.91 3.716l-.008.018-.528 1.163H1.116c-.616 0-1.116.5-1.117 1.116 0 .617.5 1.117 1.117 1.118h.254a3.867 3.867 0 0 0-.254 1.376v4.503a1.07 1.07 0 0 0 1.069 1.07h.792a1.07 1.07 0 0 0 1.07-1.068v-1.151h7.919v1.15c.001.591.48 1.069 1.07 1.07h.792a1.07 1.07 0 0 0 1.068-1.068V8.509a3.886 3.886 0 0 0-.266-1.411l.009.027h.25a1.11 1.11 0 0 0 0-2.218zM3.55 4.027a2.254 2.254 0 0 1 2.044-1.316h4.828a2.25 2.25 0 0 1 2.038 1.302l.006.014 1.151 2.535q-1.895-.111-3.8-.148l1.29-1.29a.356.356 0 1 0-.503-.503l-1.78 1.78q-1.459-.013-2.918.018l1.295-1.295a.356.356 0 1 0-.503-.503L4.912 6.406a.35.35 0 0 0-.029.036l-.001.001c-.828.026-1.654.067-2.478.113zM.711 6.013a.406.406 0 0 1 .406-.405h.933l-.367.812h-.567a.406.406 0 0 1-.406-.406zm2.626 6.997a.358.358 0 0 1-.359.357h-.792a.357.357 0 0 1-.357-.357v-1.15h1.509zm4.68-1.861H1.829V8.507c.002-.441.093-.86.257-1.241l-.008.021a97.592 97.592 0 0 1 12.146.02l-.282-.015c.154.359.244.776.246 1.213v2.643H8.017zm6.17 1.861c0 .197-.16.357-.357.357h-.792-.001a.359.359 0 0 1-.359-.357v-1.15h1.509v1.15zm.987-6.716a.396.396 0 0 1-.281.117h-.564l-.361-.796h.925a.399.399 0 0 1 .281.678z"></path></svg><svg width="16" height="16" viewBox="0 0 16 16" id="chevron-down-blue" y="224"><title>chevron-down-blue</title><path fill="#0097d0" d="M15.27 4h-.003a.746.746 0 0 0-.51.2l-6.759 6.157-6.759-6.158a.748.748 0 0 0-.51-.2H.714h.001a.727.727 0 0 0-.663.434l-.002.005a.655.655 0 0 0 .179.745l.001.001 7.264 6.619a.755.755 0 0 0 1.011 0l-.001.001 7.264-6.619a.656.656 0 0 0 .18-.759l.002.004a.73.73 0 0 0-.664-.429h-.017.001z"></path></svg><svg width="16" height="16" viewBox="0 0 16 16" id="chevron-down-gray" y="240"><title>chevron-down-gray</title><path fill="#8a8b8a" d="M15.27 4h-.003a.746.746 0 0 0-.51.2l-6.759 6.157-6.759-6.158a.748.748 0 0 0-.51-.2H.714h.001a.727.727 0 0 0-.663.434l-.002.005a.655.655 0 0 0 .179.745l.001.001 7.264 6.619a.755.755 0 0 0 1.011 0l-.001.001 7.264-6.619a.656.656 0 0 0 .18-.759l.002.004a.73.73 0 0 0-.664-.429h-.017.001z"></path></svg><svg width="16" height="16" viewBox="0 0 16 16" id="chevron-down-white" y="256"><title>chevron-down-white</title><path fill="#fff" d="M15.27 4h-.003a.746.746 0 0 0-.51.2l-6.759 6.157-6.759-6.158a.748.748 0 0 0-.51-.2H.714h.001a.727.727 0 0 0-.663.434l-.002.005a.655.655 0 0 0 .179.745l.001.001 7.264 6.619a.755.755 0 0 0 1.011 0l-.001.001 7.264-6.619a.656.656 0 0 0 .18-.759l.002.004a.73.73 0 0 0-.664-.429h-.017.001z"></path></svg><svg width="16" height="16" viewBox="0 0 16 16" id="chevron-left-blue" y="272"><title>chevron-left-blue</title><path fill="#0097d0" d="M12 15.269v-.003a.746.746 0 0 0-.2-.51L5.639 8 11.8 1.24a.748.748 0 0 0 .2-.51V.714v.001a.727.727 0 0 0-.437-.663L11.558.05a.655.655 0 0 0-.745.179l-.001.001-6.619 7.264a.755.755 0 0 0 0 1.011l-.001-.001 6.619 7.264a.656.656 0 0 0 .759.18l-.004.002a.73.73 0 0 0 .433-.666v-.016.001z"></path></svg><svg width="16" height="16" viewBox="0 0 16 16" id="chevron-left-gray" y="288"><title>chevron-left-gray</title><path fill="#8a8b8a" d="M12 .73v.003a.746.746 0 0 1-.2.51L5.639 8l6.161 6.76c.124.134.2.313.2.51v.016-.001a.727.727 0 0 1-.434.663l-.005.002a.655.655 0 0 1-.745-.179l-.001-.001-6.622-7.264c-.119-.133-.191-.31-.191-.504s.072-.37.192-.504l-.001.001L10.812.235a.656.656 0 0 1 .759-.18l-.004-.002A.73.73 0 0 1 12 .719V.73.729z"></path></svg><svg width="16" height="16" viewBox="0 0 16 16" id="chevron-right-blue" y="304"><title>chevron-right-blue</title><path fill="#0097d0" d="M4 15.269v-.003c0-.197.076-.377.2-.51L10.361 8 4.2 1.24A.748.748 0 0 1 4 .73V.714v.001a.727.727 0 0 1 .434-.663L4.439.05a.655.655 0 0 1 .745.179l.001.001 6.622 7.264a.753.753 0 0 1-.001 1.007l.001-.001-6.619 7.264a.656.656 0 0 1-.759.18l.004.002A.73.73 0 0 1 4 15.28v-.012.001z"></path></svg><svg width="16" height="16" viewBox="0 0 16 16" id="chevron-right-gray" y="320"><title>chevron-right-gray</title><path fill="#8a8b8a" d="M4 15.27v-.003c0-.197.076-.377.2-.51L10.361 8 4.2 1.24A.748.748 0 0 1 4 .73V.714v.001a.727.727 0 0 1 .434-.663L4.439.05a.655.655 0 0 1 .745.179l.001.001 6.622 7.264a.753.753 0 0 1-.001 1.007l.001-.001-6.619 7.264a.656.656 0 0 1-.759.18l.004.002A.73.73 0 0 1 4 15.28v-.011.001z"></path></svg><svg width="16" height="16" viewBox="0 0 16 16" id="chevron-up-blue" y="336"><title>chevron-up-blue</title><path fill="#0097d0" d="M15.27 12h-.003a.746.746 0 0 1-.51-.2L7.998 5.642 1.24 11.797a.748.748 0 0 1-.51.2H.715h0a.727.727 0 0 1-.666-.435l-.002-.005a.655.655 0 0 1 .179-.745l.001-.001 7.264-6.619a.755.755 0 0 1 1.011 0l-.001-.001 7.264 6.619a.656.656 0 0 1 .18.759l.002-.004a.729.729 0 0 1-.666.434h-.012.001z"></path></svg><svg width="16" height="16" viewBox="0 0 16 16" id="chevron-up-gray" y="352"><title>chevron-up-gray</title><path fill="#8a8b8a" d="M.731 12h.003a.746.746 0 0 0 .51-.2L8 5.639l6.76 6.161c.134.124.313.2.51.2h.016-.001a.727.727 0 0 0 .663-.437l.002-.005a.655.655 0 0 0-.179-.745l-.001-.001-7.264-6.619a.755.755 0 0 0-1.011 0l.001-.001-7.264 6.619a.656.656 0 0 0-.18.759l-.002-.004a.73.73 0 0 0 .666.433h.016-.001z"></path></svg><svg width="16" height="16" viewBox="0 0 16 16" id="chevron-up-white" y="368"><title>chevron-up-white</title><path fill="#fff" d="M15.27 12h-.003a.746.746 0 0 1-.51-.2L7.998 5.642 1.24 11.797a.748.748 0 0 1-.51.2H.715h0a.727.727 0 0 1-.666-.435l-.002-.005a.655.655 0 0 1 .179-.745l.001-.001 7.264-6.619a.755.755 0 0 1 1.011 0l-.001-.001 7.264 6.619a.656.656 0 0 1 .18.759l.002-.004a.729.729 0 0 1-.666.434h-.012.001z"></path></svg><svg width="16" height="16" viewBox="0 0 16 16" id="circle-blue-lrt" y="384"><title>circle-blue-lrt</title><path fill="#0053a0" d="M16 8A8 8 0 1 1 0 8a8 8 0 0 1 16 0z"></path><path fill="#fff" d="M6.197 11.959H9.79l.077.002a1.72 1.72 0 0 0 1.72-1.685V5.218a1.716 1.716 0 0 0-1.801-1.685h.004-3.593A1.72 1.72 0 0 0 4.4 5.216v5.058a1.728 1.728 0 0 0 1.726 1.687l.074-.002h-.003zm-1.123 1.685h1.015l1.123-1.685H6.197zm4.833 0h1.006L9.79 11.959H8.784zm-1.914-3.371a.938.938 0 0 0 .898-.839V9.43a.939.939 0 0 0-.897-.843h-.002a.938.938 0 0 0-.898.839v.004a.939.939 0 0 0 .897.843h.002zm-1.797.843a.806.806 0 0 1-.899-.801l.001-.044v.002-5.056l-.001-.047a.802.802 0 0 1 .904-.796h-.004H9.79a.8.8 0 0 1 .898.845v-.002 5.056a.8.8 0 0 1-.902.842h.004zm-.898-3.371h5.39v-.843h-5.39zm2.246-4.213h.898v-.843H9.79v-.842H6.197v.843h1.347z"></path></svg><svg width="16" height="16" viewBox="0 0 16 16" id="circle-blue-outline-question" y="400"><title>circle-blue-outline-question</title><path fill="#0097d0" d="M8 .667a7.304 7.304 0 0 0-5.185 2.148A7.304 7.304 0 0 0 .667 8a7.293 7.293 0 0 0 2.148 5.185 7.32 7.32 0 0 0 8.039 1.572c.873-.369 1.658-.898 2.331-1.572a7.32 7.32 0 0 0 1.572-8.039c-.369-.873-.898-1.657-1.572-2.331A7.304 7.304 0 0 0 8 .667zM8 0a8 8 0 1 1 0 16A8 8 0 0 1 8 0z"></path><path fill="#0053a0" d="M8.528 4.035A2.384 2.384 0 0 0 6.173 6.39v.001a.393.393 0 0 0 .786 0 1.57 1.57 0 0 1 3.14 0c.006.681-.362 1.033-.846 1.472a5.542 5.542 0 0 0-.722.732l-.008.01a1.808 1.808 0 0 0-.386 1.103v.216a.393.393 0 0 0 .786 0v-.215V9.7c0-.238.086-.457.228-.626l-.001.001c.195-.231.402-.438.626-.627l.008-.006c.5-.454 1.11-1.067 1.104-2.055v-.006a2.385 2.385 0 0 0-2.356-2.348h-.001zm0 6.87a.59.59 0 1 0 .589.589.59.59 0 0 0-.589-.589z"></path></svg><svg width="16" height="16" viewBox="0 0 16 16" id="circle-gray-bus" y="416"><title>circle-gray-bus</title><path fill="#8a8b8a" d="M8 0a8 8 0 1 1-8 8 8 8 0 0 1 8-8z"></path><path fill="#fff" d="M10.553 2.593H5.681a1.494 1.494 0 0 0-1.623 1.63v-.006 8.932h.812v-1.218h6.496v1.218h.812V4.217a1.494 1.494 0 0 0-1.63-1.623h.006zm.812 8.525H4.869v-6.9a.874.874 0 0 1 .809-.812h4.875a.874.874 0 0 1 .812.809v.003zm-4.872-.812v-.812h-.812v.812zm4.06-.812h-.812v.812h.812zm-7.308-.812h9.744V7.87H3.245zm5.278-.203V5.434h-.811v3.045zM4.056 5.84h8.121v-.812h-8.12z"></path></svg><svg width="16" height="16" viewBox="0 0 16 16" id="circle-gray-lrt" y="432"><title>circle-gray-lrt</title><path fill="#8a8b8a" d="M16 8A8 8 0 1 1 0 8a8 8 0 0 1 16 0z"></path><path fill="#fff" d="M6.362 12.37h3.678l.077.002c.961 0 1.743-.769 1.762-1.726V5.467a1.757 1.757 0 0 0-1.844-1.726h.004-3.678a1.762 1.762 0 0 0-1.839 1.724v5.18a1.766 1.766 0 0 0 1.766 1.727l.077-.002h-.004zm-1.15 1.726h1.039L7.4 12.37H6.361zm4.948 0h1.03l-1.149-1.726h-1.03zm-1.959-3.452a.96.96 0 0 0 .919-.859v-.004a.961.961 0 0 0-.918-.863H8.2a.96.96 0 0 0-.919.859v.004a.962.962 0 0 0 .918.863h.002zm-1.839.863a.825.825 0 0 1-.92-.819l.001-.045v.002-5.178l-.001-.048a.822.822 0 0 1 .925-.814h-.004 3.679a.817.817 0 0 1 .921.81l-.002.055v-.002 5.178l.001.048a.822.822 0 0 1-.925.814h.004zm-.92-3.452h5.517v-.863H5.442zm2.3-4.314h.92v-.863h1.379v-.863H6.362v.863h1.379z"></path></svg><svg width="16" height="16" viewBox="0 0 16 16" id="circle-gray-outline-bus" y="448"><title>circle-gray-outline-bus</title><path fill="#8a8b8a" d="M8 16c-4.4 0-8-3.6-8-8s3.6-8 8-8 8 3.6 8 8-3.6 8-8 8zM8 .667C3.967.667.667 3.967.667 8s3.3 7.333 7.333 7.333 7.333-3.3 7.333-7.333S12.033.667 8 .667z"></path><path fill="#8a8b8a" d="M10.535 2.606H5.668c-.833-.067-1.533.533-1.633 1.367v9.2h.8V11.94h6.5v1.233h.8V4.24c.1-.833-.5-1.567-1.333-1.633h-.267zm.834 8.533h-6.5v-6.9c.033-.433.367-.8.8-.833h4.867a.86.86 0 0 1 .8.8v6.933zm-4.9-.833v-.8h-.8v.8h.8zm4.066-.8h-.8v.8h.8v-.8zm-7.3-.8h9.733v-.8H3.235v.8zm5.267-.2V5.439h-.8v3.033l.8.033zM4.035 5.839h8.133v-.8H4.035v.8z"></path></svg><svg width="16" height="16" viewBox="0 0 16 16" id="circle-gray-outline-pedestrian" y="464"><title>circle-gray-outline-pedestrian</title><path fill="#fff" d="M8 .4c4.2 0 7.6 3.4 7.6 7.6s-3.4 7.6-7.6 7.6S.4 12.2.4 8 3.8.4 8 .4z"></path><path fill="#8a8b8a" d="M8 16c-4.4 0-8-3.6-8-8s3.6-8 8-8 8 3.6 8 8-3.6 8-8 8zM8 .8C4.04.8.8 4.04.8 8s3.24 7.2 7.2 7.2 7.2-3.24 7.2-7.2S11.96.8 8 .8z"></path><path fill="#8a8b8a" d="M7.822 5.711c.84 0 1.48-.68 1.48-1.48s-.64-1.52-1.48-1.52c-.8 0-1.48.68-1.48 1.48 0 .84.68 1.52 1.48 1.52zm0-2.24c.4 0 .76.32.76.76s-.32.72-.76.72-.72-.32-.72-.76c0-.4.32-.72.72-.72zM5.222 9.071c0-1.64 1.32-3 3-3h.36c.2 0 .36.16.36.36v.36c0 .84.68 1.48 1.48 1.48.2 0 .36.16.36.36s-.16.36-.36.36c-.56 0-1.08-.2-1.48-.56v.96c0 .2-.16.36-.36.36s-.36-.16-.36-.36v-2.6c-.24 0-.52.04-.76.12v2.12c0 .36.16.68.44.88l1.32 1.04.12.12.76 1.48c.08.2 0 .4-.16.52-.2.08-.4 0-.52-.16l-.72-1.4-.6-.48-.24.72c0 .04-.04.12-.08.16l-1.12 1.12c-.16.16-.4.16-.52 0s-.16-.4 0-.52l1.04-1.04.32-.92h-.04c-.44-.36-.72-.88-.72-1.44v-1.68c-.48.44-.76 1.04-.76 1.68 0 .2-.16.36-.36.36s-.4-.2-.4-.4z"></path></svg><svg width="16" height="16" viewBox="0 0 16 16" id="circle-gray-outline-train" y="480"><title>circle-gray-outline-train</title><path fill="#8a8b8a" d="M8.059 4.186l-1.92.88c-.2.16-.52.56-.52 1v2.08c0 .56.4 1 .92 1h2.88c.52 0 .92-.44.92-1v-2.08c0-.44-.32-.84-.52-1.04l-1.76-.84zm0-.88l2.24 1.08s.88.72.88 1.72v2.08c0 1-.76 1.8-1.72 1.8h-2.92c-.96 0-1.72-.8-1.72-1.8v-2.12c0-1 .88-1.72.88-1.72l2.36-1.04z"></path><path fill="#8a8b8a" d="M7.118 7.807a.44.44 0 1 1-.88 0 .44.44 0 0 1 .88 0zM10.038 7.807a.44.44 0 1 1-.88 0 .44.44 0 0 1 .88 0zM7.598 2.167h.8v1.44h-.8v-1.44z"></path><path fill="#8a8b8a" d="M8.036 2.633c-.12 0-.32.08-.48.2h-.04l-.04.04s-.4.2-.68.44c-.52.44-.6.64-.6.72l.04-.04 1.44-.56.28-.12.28.12 1.44.56.12.04c0-.12-.16-.36-.52-.68-.36-.28-.72-.48-.72-.48l-.08-.04-.04-.04c-.12-.04-.32-.16-.4-.16zm0-.8c.44 0 .88.32.88.32s1.68.88 1.68 1.92v1.56l-1.16-.88-1.44-.56-1.44.56-1.16.88v-1.56c0-.52.4-.96.88-1.36.36-.32.84-.56.84-.56s.48-.32.92-.32z"></path><path fill="#8a8b8a" d="M8.558 5.647a.56.56 0 1 1-1.12 0 .56.56 0 0 1 1.12 0zM5.398 9.407l-1.16 2.88h.56l1.16-2.88h-.56z"></path><path fill="#8a8b8a" d="M4.918 12.447h-.92l1.28-3.2h.92l-1.28 3.2zm-.44-.32h.24l1.04-2.6h-.28l-1 2.6zM10.598 9.407l1.16 2.88h-.56l-1.16-2.88h.56z"></path><path fill="#8a8b8a" d="M11.998 12.447h-.92l-1.28-3.2h.92l1.28 3.2zm-.72-.32h.24l-1.04-2.6h-.24l1.04 2.6z"></path><path fill="#8a8b8a" d="M5.118 10.567h5.48v.44h-5.48v-.44z"></path><path fill="#8a8b8a" d="M10.758 11.127h-5.8v-.72h5.8v.72zm-5.52-.28h5.2v-.12h-5.2v.12zM4.798 11.847h6.36v.44h-6.36v-.44z"></path><path fill="#8a8b8a" d="M11.318 12.447h-6.64v-.72h6.68v.72zm-6.36-.32h6.08v-.12h-6.08v.12z"></path><path fill="#8a8b8a" d="M8 16c-4.4 0-8-3.6-8-8s3.6-8 8-8 8 3.6 8 8-3.6 8-8 8zM8 .8C4.04.8.8 4.04.8 8s3.24 7.2 7.2 7.2 7.2-3.24 7.2-7.2S11.96.8 8 .8z"></path></svg><svg width="16" height="16" viewBox="0 0 16 16" id="circle-gray-train" y="496"><title>circle-gray-train</title><path fill="#8a8b8a" d="M8 0c4.433 0 8 3.567 8 8s-3.567 8-8 8-8-3.567-8-8 3.567-8 8-8z"></path><path fill="#fff" d="M8.042 4.854l-1.9.833c-.167.167-.5.567-.5 1v2.1c0 .533.4.967.9.967h2.9c.5 0 .9-.433.9-.967V6.72c0-.433-.333-.833-.5-1l-1.8-.867zm.033-.934l2.267 1.067s.867.733.867 1.7v2.1c0 1-.767 1.8-1.733 1.8H6.543c-.967 0-1.733-.8-1.733-1.8V6.72c0-1 .867-1.7.867-1.7l2.4-1.1z"></path><path fill="#fff" d="M7.125 8.421a.433.433 0 1 1-.866 0 .433.433 0 0 1 .866 0zM10.025 8.421a.433.433 0 1 1-.866 0 .433.433 0 0 1 .866 0zM7.492 2.754h1v1.467h-1V2.754z"></path><path fill="#fff" d="M8.02 3.276c-.1 0-.3.1-.433.2h-.033l-.067.033s-.4.2-.667.433c-.433.333-.533.567-.6.667l1.467-.567.3-.133.3.133 1.467.567c-.033-.133-.167-.333-.5-.6-.333-.3-.7-.467-.733-.467l-.033-.067-.067-.033a.854.854 0 0 0-.4-.167zm0-.833c.433 0 .867.3.867.3s1.7.867 1.7 1.9V6.21L9.42 5.343 7.987 4.81l-1.433.567-1.167.867V4.677c0-.5.4-.967.9-1.367.367-.3.833-.533.833-.533s.467-.333.9-.333z"></path><path fill="#fff" d="M8.559 6.254a.567.567 0 1 1-1.134 0 .567.567 0 0 1 1.134 0zM5.392 10.021l-1.167 2.9h.567l1.167-2.9h-.567z"></path><path fill="#fff" d="M4.925 13.088h-.933l1.3-3.233h.933l-1.3 3.233zm-.466-.334h.233l1.033-2.567h-.233l-1.033 2.567zM10.625 10.021l1.167 2.9h-.567l-1.167-2.9h.567z"></path><path fill="#fff" d="M12.025 13.088h-.933l-1.3-3.233h.933l1.3 3.233zm-.733-.334h.233l-1.033-2.567h-.233l1.033 2.567z"></path><path fill="#fff" d="M5.092 11.188h5.533v.433H5.092v-.433z"></path><path fill="#fff" d="M10.792 11.788H4.925v-.767h5.867v.767zm-5.533-.334h5.2v-.1h-5.2v.1zM4.792 12.488h6.4v.433h-6.4v-.433z"></path><path fill="#fff" d="M11.359 13.088H4.626v-.767h6.733v.767zm-6.4-.334h6.067v-.1H4.959v.1z"></path></svg><svg width="16" height="16" viewBox="0 0 16 16" id="circle-green-dollar" y="512"><title>circle-green-dollar</title><path fill="#a5cf4c" d="M7.998.853H8A7.147 7.147 0 1 1 .853 8 7.155 7.155 0 0 1 7.998.853h.001zm0-.853a8 8 0 1 0 8 8 8 8 0 0 0-8-8z"></path><path fill="#a5cf4c" d="M8.448 7.56c-1.25-.421-1.6-1.164-1.52-1.673.072-.461.52-.926 1.358-.926a1.382 1.382 0 0 1 1.329 1.167l.001.008a.536.536 0 0 0 .609.434h-.003a.522.522 0 0 0 .4-.627l.001.003A2.43 2.43 0 0 0 8.75 3.935l-.016-.003V3a.488.488 0 1 0-.97.002V3v.935a2.218 2.218 0 0 0-1.853 1.767l-.002.014c-.144.926.347 2.232 2.223 2.865.986.333 1.52.866 1.434 1.426a1.4 1.4 0 0 1-1.465.982h.005c-1.4 0-1.501-.783-1.506-.93v-.007a.531.531 0 0 0-.524-.531.52.52 0 0 0-.512.52v.019-.001c0 .65.423 1.843 2.2 1.991v.756a.488.488 0 1 0 .97-.002v.002-.822a2.32 2.32 0 0 0 1.833-1.792l.003-.015c.065-.424.131-1.862-2.118-2.619z"></path></svg><svg width="16" height="16" viewBox="0 0 16 16" id="circle-green-lrt" y="528"><title>circle-green-lrt</title><path fill="#008244" d="M16 8A8 8 0 1 1 0 8a8 8 0 0 1 16 0z"></path><path fill="#fff" d="M6.197 12.403H9.79l.077.002a1.72 1.72 0 0 0 1.72-1.685V5.662a1.716 1.716 0 0 0-1.801-1.685h.004-3.593A1.72 1.72 0 0 0 4.4 5.66v5.058a1.728 1.728 0 0 0 1.726 1.687l.074-.002h-.003zm-1.123 1.685h1.015l1.123-1.685H6.197zm4.833 0h1.006L9.79 12.403H8.784zm-1.914-3.37a.938.938 0 0 0 .898-.839v-.004a.939.939 0 0 0-.897-.843h-.002a.938.938 0 0 0-.898.839v.004a.939.939 0 0 0 .897.843h.002zm-1.797.842a.806.806 0 0 1-.899-.801l.001-.044v.002-5.056l-.001-.047a.802.802 0 0 1 .904-.796h-.004H9.79a.8.8 0 0 1 .898.845v-.002 5.056a.8.8 0 0 1-.902.842h.004zm-.898-3.37h5.39v-.843h-5.39zm2.246-4.214h.898v-.843H9.79v-.842H6.197v.843h1.347z"></path></svg><svg width="16" height="16" viewBox="0 0 16 16" id="circle-green-outline-lrt" y="544"><title>circle-green-outline-lrt</title><path fill="#008244" d="M8 16c-4.4 0-8-3.6-8-8s3.6-8 8-8 8 3.6 8 8-3.6 8-8 8zM8 .8C4.04.8.8 4.04.8 8s3.24 7.2 7.2 7.2 7.2-3.24 7.2-7.2S11.96.8 8 .8z"></path><path fill="#008244" d="M6.359 11.182h3.24c.84.04 1.56-.64 1.6-1.48v-4.6c0-.84-.72-1.52-1.56-1.52H6.359c-.84-.04-1.56.64-1.6 1.48v4.6c0 .84.72 1.52 1.6 1.52zm-1 1.48h.92l1-1.52h-.92l-1 1.52zm4.36 0h.92l-1-1.52h-.92l1 1.52zm-1.72-3c.44 0 .76-.36.8-.76-.04-.4-.4-.76-.8-.76-.44 0-.76.36-.8.76.04.4.36.72.8.76zm-1.64.76c-.4.04-.76-.24-.8-.64v-4.68c0-.4.28-.76.68-.76H9.599c.4-.04.76.24.8.64v4.68c.04.4-.28.72-.68.76H6.359zm-.8-3.04h4.84v-.76h-4.84v.76zm2.04-3.8h.8v-.76h1.2v-.76h-3.24v.76h1.2l.04.76z"></path></svg><svg width="16" height="16" viewBox="0 0 16 16" id="circle-green-outline-pedestrian" y="560"><title>circle-green-outline-pedestrian</title><path fill="#a5cf4c" d="M8 16c-4.4 0-8-3.6-8-8s3.6-8 8-8c2.12 0 4.16.84 5.64 2.36A7.864 7.864 0 0 1 16 8c0 4.4-3.6 8-8 8zM8 .8C4.04.8.8 4.04.8 8s3.24 7.2 7.2 7.2 7.2-3.24 7.2-7.2c0-1.92-.76-3.76-2.12-5.08A7.143 7.143 0 0 0 8 .8z"></path><path fill="#8a8b8a" d="M7.806 5.68c.84 0 1.48-.68 1.48-1.48s-.64-1.52-1.48-1.52c-.8 0-1.48.68-1.48 1.48 0 .84.68 1.52 1.48 1.52zm0-2.24c.4 0 .76.32.76.76s-.32.72-.76.72-.72-.32-.72-.76c0-.4.32-.72.72-.72zM5.206 9.04c0-1.64 1.32-3 3-3h.36c.2 0 .36.16.36.36v.36c0 .84.68 1.48 1.48 1.48.2 0 .36.16.36.36s-.16.36-.36.36c-.56 0-1.08-.2-1.48-.56v.96c0 .2-.16.36-.36.36s-.36-.16-.36-.36v-2.6c-.24 0-.52.04-.76.12V9c0 .36.16.68.44.88l1.32 1.04.12.12.76 1.48c.08.2 0 .4-.16.52-.2.08-.4 0-.52-.16l-.72-1.4-.6-.48-.24.72c0 .04-.04.12-.08.16L6.646 13c-.16.16-.4.16-.52 0s-.16-.4 0-.52l1.04-1.04.32-.92h-.04c-.44-.36-.72-.88-.72-1.44V7.4c-.48.44-.76 1.04-.76 1.68 0 .2-.16.36-.36.36s-.4-.2-.4-.4z"></path></svg><svg width="16" height="16" viewBox="0 0 16 16" id="circle-plus-blue" y="576"><title>circle-plus-blue</title><path fill="#0097d0" d="M3.92 7.468h-.007a.53.53 0 0 0-.579.455v.003a.53.53 0 0 0 .581.458h-.002 8.123a.53.53 0 0 0 .579-.455v-.003a.53.53 0 0 0-.581-.458h.002-8.115z"></path><path fill="#0097d0" d="M8.462 3.733v-.007a.523.523 0 0 0-.44-.578h-.003a.526.526 0 0 0-.443.582v-.002 8.123a.523.523 0 0 0 .441.578h.003a.526.526 0 0 0 .443-.582v.002-.009z"></path><path fill="#0097d0" d="M7.999 0a8 8 0 1 0 8 8 8.01 8.01 0 0 0-8-8zm0 .818a7.44 7.44 0 0 1 7.208 7.169V8a7.47 7.47 0 0 1-7.196 7.215h-.013C4.071 15.077.923 11.927.79 8.012v-.013A7.443 7.443 0 0 1 7.987.817h.012z"></path></svg><svg width="16" height="16" viewBox="0 0 16 16" id="circle-red-bus" y="592"><title>circle-red-bus</title><path fill="#ed1b2e" d="M16 8A8 8 0 1 1 0 8a8 8 0 0 1 16 0z"></path><path fill="#fff" d="M10.19 3.009H5.526a1.43 1.43 0 0 0-1.554 1.56v-.006 8.552h.777v-1.166h6.219v1.166h.778V4.564a1.43 1.43 0 0 0-1.56-1.554h.006zm.777 8.163h-6.22V4.564a.836.836 0 0 1 .775-.777h4.667c.417.029.748.36.777.775v.003zm-4.665-.777v-.778h-.777v.778zm3.888-.778h-.778v.778h.778zM3.193 8.84h9.329v-.778H3.193zm5.053-.194V5.731h-.778v2.915zM3.97 6.119h7.774v-.778H3.97z"></path></svg><svg width="16" height="16" viewBox="0 0 16 16" id="circle-red-outline-pin" y="608"><title>circle-red-outline-pin</title><path fill="#a5cf4c" d="M8 16c-4.4 0-8-3.6-8-8s3.6-8 8-8c2.12 0 4.16.84 5.64 2.36A7.864 7.864 0 0 1 16 8c0 4.4-3.6 8-8 8zM8 .8C4.04.8.8 4.04.8 8s3.24 7.2 7.2 7.2 7.2-3.24 7.2-7.2c0-1.92-.76-3.76-2.12-5.08A7.143 7.143 0 0 0 8 .8z"></path><path fill="#ed1b2e" d="M8 16c-4.4 0-8-3.6-8-8s3.6-8 8-8c2.12 0 4.16.84 5.64 2.36A7.864 7.864 0 0 1 16 8c0 4.4-3.6 8-8 8zM8 .8C4.04.8.8 4.04.8 8s3.24 7.2 7.2 7.2 7.2-3.24 7.2-7.2c0-1.92-.76-3.76-2.12-5.08A7.143 7.143 0 0 0 8 .8z"></path><path fill="#8a8b8a" d="M8.049 4.555a3.21 3.21 0 0 0-3.085 3.309c.014.4.108.796.282 1.19a7.15 7.15 0 0 0 1.141 1.72c.462.624 1.004 1.245 1.423 1.791a.31.31 0 0 0 .402.066c.04-.001.039-.041.079-.043.46-.576 1.077-1.238 1.654-1.898a6.833 6.833 0 0 0 1.217-1.803c.146-.405.252-.809.236-1.249-.102-1.757-1.591-3.145-3.349-3.083zm.021.6a2.593 2.593 0 0 1 2.688 2.506c.013.36-.056.682-.165 1.006l.001.04a6.688 6.688 0 0 1-1.143 1.64l-1.423 1.65c-.378-.507-.796-1.012-1.213-1.518s-.756-1.014-1.056-1.603a3.3 3.3 0 0 1-.196-1.033c-.09-1.437 1.068-2.638 2.506-2.688zm.041 1.158c-.799.028-1.416.69-1.388 1.489s.69 1.416 1.489 1.388S9.628 8.5 9.6 7.701a1.434 1.434 0 0 0-1.489-1.388zm.019.56c.48-.017.893.369.91.848s-.369.893-.848.91c-.48.017-.893-.369-.91-.848s.369-.893.848-.91z"></path></svg><svg width="16" height="16" viewBox="0 0 16 16" id="circle-white-dollar" y="624"><title>circle-white-dollar</title><path fill="#fff" d="M7.999.853H8A7.147 7.147 0 1 1 .853 8 7.156 7.156 0 0 1 7.998.853h.001zm0-.853a8 8 0 1 0 8 8 8 8 0 0 0-8-8z"></path><path fill="#fff" d="M8.481 7.567c-1.382-.4-1.77-1.106-1.683-1.589.079-.438.575-.88 1.502-.88a1.433 1.433 0 0 1 1.469 1.106l.002.01a.59.59 0 0 0 .674.412l-.004.001a.5.5 0 0 0 .439-.595l.001.003a2.469 2.469 0 0 0-2.077-1.912l-.013-.001v-.885a.537.537 0 0 0-1.072-.001v.889c-1.073.177-1.896.824-2.053 1.692-.159.88.384 2.121 2.459 2.722 1.091.316 1.682.822 1.586 1.355-.083.458-.71.933-1.614.933-1.549 0-1.66-.744-1.667-.884a.549.549 0 0 0-.547-.512l-.034.001h.002l-.031-.001a.537.537 0 0 0-.536.511v.001c0 .617.467 1.751 2.433 1.891v.718a.537.537 0 0 0 1.072.001v-.783c1.073-.221 1.881-.886 2.031-1.716.077-.401.15-1.767-2.339-2.487z"></path></svg><svg width="16" height="16" viewBox="0 0 16 16" id="clock-gray" y="640"><title>clock-gray</title><path fill="#8a8b8a" d="M7.999 0a8 8 0 1 0 8 8 8.01 8.01 0 0 0-8-8zm0 1.143H8A6.857 6.857 0 1 1 1.143 8v-.001-.008a6.85 6.85 0 0 1 6.849-6.849H8z"></path><path fill="#8a8b8a" d="M7.994 2.279a.572.572 0 0 0-.566.571V8.005c0 .19.093.358.236.462l.002.001 4 2.857a.572.572 0 0 0 .668-.929l-.002-.001-3.761-2.686v-4.86A.57.57 0 0 0 8 2.278h-.006z"></path></svg><svg width="16" height="16" viewBox="0 0 16 16" id="close-blue" y="656"><title>close-blue</title><path fill="#0097d0" opacity=".999" d="M11.999 11.242L8.757 8l3.242-3.242A.537.537 0 0 0 11.241 4L7.999 7.242 4.757 4a.537.537 0 0 0-.758.758L7.241 8l-3.242 3.242a.537.537 0 0 0 .758.758l3.242-3.242L11.241 12a.537.537 0 0 0 .758-.758z"></path></svg><svg width="16" height="16" viewBox="0 0 16 16" id="close-gray" y="672"><title>close-gray</title><path fill="#8a8b8a" d="M.5 15.27v-.003c0-.197.076-.377.2-.51L6.861 8 .7 1.24A.748.748 0 0 1 .5.73V.714v.001A.727.727 0 0 1 .934.052L.939.05a.655.655 0 0 1 .745.179l.001.001 6.622 7.264a.753.753 0 0 1-.001 1.007l.001-.001-6.619 7.264a.656.656 0 0 1-.759.18l.004.002A.73.73 0 0 1 .5 15.28v-.011.001z"></path><path fill="#8a8b8a" d="M15.5 15.269v-.003a.746.746 0 0 0-.2-.51L9.139 8 15.3 1.24a.748.748 0 0 0 .2-.51V.714v.001a.727.727 0 0 0-.437-.663L15.058.05a.655.655 0 0 0-.745.179l-.001.001-6.619 7.264a.755.755 0 0 0 0 1.011l-.001-.001 6.619 7.264a.656.656 0 0 0 .759.18l-.004.002a.73.73 0 0 0 .433-.666v-.016.001z"></path></svg><svg width="16" height="16" viewBox="0 0 16 16" id="date-time-color" y="688"><title>date-time-color</title><path fill="#0097d0" d="M14.22 7.454V3.459a1.852 1.852 0 0 0-1.852-1.85h-.132v-.74a.37.37 0 1 0-.742 0v.721H9.862V.869a.37.37 0 1 0-.742 0v.721H7.489V.869a.37.37 0 1 0-.742 0v.721H5.099V.869a.37.37 0 1 0-.742 0v.721H2.724V.869a.37.37 0 1 0-.742 0v.721H1.85C.828 1.59 0 2.418-.002 3.439v7.472a1.852 1.852 0 0 0 1.852 1.85h5.527c.696 1.629 2.285 2.75 4.135 2.75A4.484 4.484 0 0 0 14.23 7.46l-.011-.008zM1.853 12.023h-.001c-.613 0-1.11-.497-1.111-1.11V3.459a1.112 1.112 0 0 1 1.111-1.11h.131v.536a.37.37 0 1 0 .742 0v-.536h1.632v.536a.37.37 0 1 0 .742 0v-.536h1.632v.536a.37.37 0 1 0 .742 0v-.536h1.65v.536a.37.37 0 1 0 .742 0v-.536h1.632v.536a.37.37 0 1 0 .742 0v-.536h.131c.613 0 1.11.497 1.111 1.11v3.533a4.504 4.504 0 0 0-2.01-.467c-.953 0-1.837.292-2.569.791l.016-.01c-.064-.048-1.037.703-.833.703a4.395 4.395 0 0 0-1.102 2.918c0 .389.05.767.145 1.126l-.007-.031zm9.66 2.756a3.736 3.736 0 1 1 3.763-3.755v.015a3.741 3.741 0 0 1-3.741 3.741h-.024.001z"></path><path fill="#f68b1f" d="M5.763 4.378h-.672a.383.383 0 0 0 0 .766h.672a.383.383 0 0 0 0-.766zM3.075 4.378h-.672a.383.383 0 0 0 0 .766h.672a.383.383 0 0 0 0-.766zM7.778 5.144h.672a.383.383 0 0 0 0-.766h-.672a.383.383 0 0 0 0 .766zM10.466 5.144h.672a.383.383 0 0 0 0-.766h-.672a.383.383 0 0 0 0 .766zM5.763 6.618h-.672a.383.383 0 0 0 0 .766h.672a.383.383 0 0 0 0-.766zM3.075 6.618h-.672a.383.383 0 0 0 0 .766h.672a.383.383 0 0 0 0-.766zM5.763 8.84h-.672a.383.383 0 0 0 0 .766h.672a.383.383 0 0 0 0-.766zM3.075 8.84h-.672a.383.383 0 0 0 0 .766h.672a.383.383 0 0 0 0-.766zM12.904 11.106h-1.403V9.133a.384.384 0 0 0-.766-.001V11.489c0 .212.172.383.383.383H12.924a.383.383 0 0 0 0-.766zM7.874 6.618h-.672a.383.383 0 0 0 0 .766h.672a.383.383 0 0 0 0-.766z"></path></svg><svg width="16" height="16" viewBox="0 0 16 16" id="edit-blue" y="704"><title>edit-blue</title><path fill="#0097d0" d="M15.751 3.297L12.724.286a.977.977 0 0 0-1.285-.087l.002-.002a1.149 1.149 0 0 0-.159.142l-.001.001-9.836 9.816a1.046 1.046 0 0 0-.301.736v.013-.001c-.018.053-.053.107-.071.16L.02 15.09a.964.964 0 0 0-.017.233v-.002a.604.604 0 0 0 .178.481c.113.117.27.192.444.196h.13a.7.7 0 0 0 .16-.019l-.005.001 4.044-.962a.55.55 0 0 0 .233-.108l-.001.001c.284-.004.541-.118.731-.301l9.835-9.834a1.034 1.034 0 0 0 .283-.969l.001.007a1.37 1.37 0 0 0-.286-.518l.001.001zM11.832.767a.27.27 0 0 1 .182-.072h.014-.001a.287.287 0 0 1 .196.089l3.031 3.029a.3.3 0 0 1-.001.41L13.88 5.595a.3.3 0 0 1-.41 0l-3.03-3.029a.259.259 0 0 1 0-.392zm.946 5.951a.3.3 0 0 1-.41 0L9.339 3.689a.3.3 0 0 1 .001-.41l.463-.463a.861.861 0 0 0 .16.214l3.029 3.029c.07.073.153.133.246.176l.005.002zM1.962 15.019l-.945-.962.588-2.262 2.672 2.672zm3.456-.908a.363.363 0 0 1-.516 0l-2.958-2.957a.351.351 0 0 1-.107-.251v-.01c0-.095.041-.181.107-.24l6.734-6.731c.059.102.118.189.182.272l-.004-.005 3.029 3.029a.724.724 0 0 0 .262.177l.005.002z"></path></svg><svg width="16" height="16" viewBox="0 0 16 16" id="facebook-gray" y="720"><title>facebook-gray</title><path fill="#8a8b8a" d="M8.533 11.867h-1.2a.37.37 0 0 1-.367-.367V8.733h-.7a.37.37 0 0 1-.367-.367v-1.2c0-.2.167-.367.367-.367h.7v-.6c-.033-.533.167-1.067.533-1.433s.9-.567 1.433-.533h.933c.2 0 .367.167.367.367v1.067a.37.37 0 0 1-.367.367h-.633c-.2 0-.233.033-.267.067s-.033.067-.033.233v.467h.867c.067 0 .133 0 .2.033.133.067.2.2.2.333v1.2a.37.37 0 0 1-.367.367h-.867v2.767c-.067.2-.233.367-.433.367zM7.4 11.4h1.067V8.5c0-.133.1-.233.233-.233h1V7.234h-1a.228.228 0 0 1-.233-.233v-.667c0-.2.033-.367.133-.533.167-.133.367-.233.6-.2h.567v-.933H8.9c-.933 0-1.5.6-1.5 1.533v.8c0 .133-.1.233-.233.233h-.833v1.033h.833c.133 0 .233.1.233.233v2.9zm2.433-6.733z"></path><path fill="#8a8b8a" d="M8 16c-4.4 0-8-3.6-8-8s3.6-8 8-8 8 3.6 8 8-3.6 8-8 8zM8 .667C3.967.667.667 3.967.667 8s3.3 7.333 7.333 7.333 7.333-3.3 7.333-7.333S12.033.667 8 .667z"></path></svg><svg width="16" height="16" viewBox="0 0 16 16" id="flickr-gray" y="736"><title>flickr-gray</title><path fill="#8a8b8a" d="M6.004 6.389c-.933 0-1.7.767-1.7 1.7s.767 1.7 1.7 1.7 1.7-.767 1.7-1.7-.767-1.7-1.7-1.7zm0 2.8c-.6 0-1.1-.5-1.1-1.1s.5-1.1 1.1-1.1 1.1.5 1.1 1.1c0 .6-.5 1.1-1.1 1.1zM10.104 6.389c-.933 0-1.7.767-1.7 1.7s.767 1.7 1.7 1.7 1.7-.767 1.7-1.7-.767-1.7-1.7-1.7zm0 2.8c-.6 0-1.1-.5-1.1-1.1s.5-1.1 1.1-1.1c.6 0 1.1.5 1.1 1.1.033.6-.467 1.1-1.1 1.1z"></path><path fill="#8a8b8a" d="M8 16c-4.4 0-8-3.6-8-8s3.6-8 8-8 8 3.6 8 8-3.6 8-8 8zM8 .667C3.967.667.667 3.967.667 8s3.3 7.333 7.333 7.333 7.333-3.3 7.333-7.333S12.033.667 8 .667z"></path></svg><svg width="16" height="16" viewBox="0 0 16 16" id="globe-gray" y="752"><title>globe-gray</title><path fill="#8a8b8a" d="M7.8 9.219h-.006a1.87 1.87 0 0 1-.249-.016l.01.001a2.124 2.124 0 0 1-1.202-.677l-.002-.002c-.285-.267-.449-.381-.637-.375-.16.012-.309.043-.45.09l.013-.004a1.938 1.938 0 0 1-1.08.074l.013.002c-1.142-.295-1.26-1.478-1.338-2.261a8.818 8.818 0 0 0-.037-.339c-.011-.074-.021-.159-.593-.121a1.013 1.013 0 0 0-.123.021l.006-.001a1.027 1.027 0 0 1-.849-.108l.004.003a1.27 1.27 0 0 1-.35-1.178l-.002.008a.5.5 0 1 1 .994.112v-.002a1.162 1.162 0 0 0-.007.189v-.002l.017-.003a1.82 1.82 0 0 1 .237-.037l.008-.001c.371-.024 1.501-.097 1.648.985.016.116.029.243.041.375.074.744.16 1.28.593 1.392a1.167 1.167 0 0 0 .553-.075l-.008.003a2.54 2.54 0 0 1 .693-.123H5.711c.517.028.974.263 1.293.623l.002.002c.164.198.379.348.625.43l.01.003a.826.826 0 0 1-.055-.19l-.001-.005a.855.855 0 0 1 .302-.784l.001-.001c-.031-.01-.067-.021-.096-.035a.992.992 0 0 1-.655-.907v-.001c.033-.529.363-.974.825-1.171l.009-.003c.979-.441 1.505.205 1.853.633l.103.125c.116.137.244.258.385.363l.006.004-.011-.048a1.4 1.4 0 0 1-.028-.657l-.001.009c.119-.396.36-.725.679-.952l.005-.004c.13-.107.267-.209.4-.31.341-.221.627-.495.854-.815l.006-.01a1.09 1.09 0 0 0 .167-.566v-.001a.809.809 0 0 0-.075-.26l.002.005a2.04 2.04 0 0 1-.115-.361l-.003-.014a.5.5 0 0 1 .98-.197v.003c.018.079.041.148.07.213l-.003-.008c.08.176.131.381.141.596v.004a2.1 2.1 0 0 1-.311 1.102l.005-.009a3.973 3.973 0 0 1-1.109 1.11l-.015.009c-.123.092-.246.183-.364.281a.984.984 0 0 0-.342.399l-.002.006a.858.858 0 0 0 .033.223l-.001-.006a1.33 1.33 0 0 1-.002.743l.002-.009a.845.845 0 0 1-.643.606l-.005.001c-.649.119-1.297-.592-1.479-.813l-.111-.133c-.376-.461-.416-.467-.667-.352a.487.487 0 0 0-.238.227l-.001.003.047.021a.665.665 0 0 0 .12.026h.004a.977.977 0 0 1 .819.566l.002.006a.768.768 0 0 1-.431 1.006l-.005.002-.04.023a.988.988 0 0 0 .17.093l.007.003a.715.715 0 0 1 .635.709.5.5 0 0 1-.199.391l-.001.001a.49.49 0 0 1-.436.079l.004.001a1.492 1.492 0 0 0-.571.006l.01-.002a4.057 4.057 0 0 1-.469.039h-.005z"></path><path fill="#8a8b8a" d="M8.838 15.848h-.001a.5.5 0 0 1-.485-.616l-.001.003.115-.483c.129-.533.267-1.09.339-1.631.099-.706.087-.921-.245-1.251a1.545 1.545 0 0 1-.573-1.184v-.001c.033-.352.221-.653.495-.839l.004-.003a1.81 1.81 0 0 1 .174-.115l.01-.005a4.49 4.49 0 0 0 .078-.049 2.185 2.185 0 0 0-.183-.348l.005.009c-.041-.067-.079-.133-.109-.189s-.051-.123-.057-.194V8.95a.611.611 0 0 1 .082-.452l-.001.003a1.13 1.13 0 0 1 1.006-.385l-.006-.001c.384.01.74.117 1.049.297l-.011-.006a4.3 4.3 0 0 1 .345.223c.281.195.363.243.569.189.161-.053.292-.106.419-.166l-.023.01a2.106 2.106 0 0 1 1.584-.249l-.014-.003c.884.366.79 1.667.611 2.209a3.252 3.252 0 0 1-1.118 1.689l-.007.005c-.139.099-.273.183-.4.267a1.56 1.56 0 0 0-.683.634l-.004.008c-.578 1.165-1.373 2.389-2.887 2.625a.405.405 0 0 1-.052.003l-.026-.001h.001zm.757-6.727a1.142 1.142 0 0 1 .128.836l.001-.008c-.09.276-.283.496-.532.622l-.006.003c-.034.021-.067.041-.1.067-.083.063-.103.105-.103.111s-.005.125.28.407a2.12 2.12 0 0 1 .53 2.115l.004-.015c-.062.442-.156.877-.256 1.303a4.286 4.286 0 0 0 1.356-1.762l.01-.028c.24-.451.601-.81 1.041-1.041l.014-.006c.111-.067.227-.141.346-.227.365-.305.633-.715.756-1.184l.004-.016c.127-.385.067-.925-.045-.97-.293.033-.559.12-.799.25l.012-.006a3.707 3.707 0 0 1-.511.199l-.028.008a1.525 1.525 0 0 1-1.394-.334l.002.001c-.084-.057-.172-.119-.271-.176a1.21 1.21 0 0 0-.43-.146l-.007-.001z"></path><path fill="#8a8b8a" d="M8 16a8 8 0 1 1 8-8 8.01 8.01 0 0 1-7.999 8H8zM8 1a7 7 0 1 0 7 7 7.008 7.008 0 0 0-7-7z"></path><path fill="#8a8b8a" d="M8.643 3.005c-.059 0-.119 0-.179-.006a2.9 2.9 0 0 1-.975-.294l.017.008a2.726 2.726 0 0 0-.514-.189l-.019-.004a.782.782 0 0 1-.591-.396L6.38 2.12a.764.764 0 0 1-.05-.487l-.001.005.025-.133c.021-.082.035-.178.041-.276v-.023a.5.5 0 0 1-.41-.888l.001-.001a.848.848 0 0 1 1.107.106c.188.2.303.47.303.766l-.001.054V1.24a1.981 1.981 0 0 1-.041.358l.002-.013c.219.068.401.139.576.22l-.028-.012c.182.095.394.167.618.204l.012.002h.023c.327 0 .645-.042.948-.121l-.026.006.147-.03a.994.994 0 0 1-.108-.581v.005a.95.95 0 0 1 .655-.77l.007-.002a1.157 1.157 0 0 1 .873.089l-.006-.003a.5.5 0 0 1-.456.89l.003.001a.23.23 0 0 0-.035-.015l-.002-.001.029.039.055.067c.13.145.234.316.304.504l.004.011a.5.5 0 0 1-.466.653 4.588 4.588 0 0 0-.834.124l.031-.006a4.83 4.83 0 0 1-1.027.142h-.009z"></path></svg><svg width="16" height="16" viewBox="0 0 16 16" id="gray-circle-info" y="768"><title>gray-circle-info</title><path fill="#8a8b8a" d="M8.001 0a8 8 0 1 0 0 16.002A8 8 0 1 0 8.001 0zm-1 3h2v2h-2zm3 10.001h-4v-1h1v-4h-1v-1h3v5h1z"></path></svg><svg width="16" height="16" viewBox="0 0 16 16" id="instagram-gray" y="784"><title>instagram-gray</title><path fill="#8a8b8a" d="M9.829 4.216H6.362a2.02 2.02 0 0 0-2.033 2.033v3.467c0 1.133.9 2.033 2.033 2.033h3.467a2.02 2.02 0 0 0 2.033-2.033V6.249a2.02 2.02 0 0 0-2.033-2.033zm1.6 5.5c0 .9-.7 1.6-1.6 1.6H6.362c-.9 0-1.6-.7-1.6-1.6V6.249c0-.9.7-1.6 1.6-1.6h3.467c.9 0 1.6.7 1.6 1.6v3.467z"></path><path fill="#8a8b8a" d="M8.096 5.916c-1.133 0-2.067.933-2.067 2.067s.933 2.067 2.067 2.067c1.133 0 2.067-.933 2.067-2.067S9.23 5.916 8.096 5.916zm0 3.7c-.9 0-1.633-.733-1.633-1.633S7.196 6.35 8.096 6.35s1.633.733 1.633 1.633-.733 1.633-1.633 1.633zM10.196 5.183c-.333 0-.6.267-.6.6s.267.6.6.6.6-.267.6-.6c.033-.333-.233-.6-.6-.6zm0 .8c-.1 0-.167-.067-.167-.167s.067-.167.167-.167.167.067.167.167c0 .067-.067.167-.167.167z"></path><path fill="#8a8b8a" d="M8 16c-4.4 0-8-3.6-8-8s3.6-8 8-8 8 3.6 8 8-3.6 8-8 8zM8 .667C3.967.667.667 3.967.667 8s3.3 7.333 7.333 7.333 7.333-3.3 7.333-7.333S12.033.667 8 .667z"></path></svg><svg width="16" height="16" viewBox="0 0 16 16" id="link-gray" y="800"><title>link-gray</title><path fill="#8a8b8a" d="M1.093 9.616a3.741 3.741 0 1 0 5.29 5.29l2.939-2.939c.676-.678 1.093-1.612 1.093-2.645s-.418-1.967-1.093-2.645a.622.622 0 0 0-1.065.441c0 .172.07.328.183.441.456.449.738 1.073.738 1.763s-.282 1.314-.738 1.763l-2.939 2.939a2.495 2.495 0 1 1-3.527-3.526l.001-.001 2.792-2.792a.622.622 0 0 0-.441-1.065.622.622 0 0 0-.441.183L1.093 9.615zm5.584-5.584c-.675.678-1.093 1.613-1.093 2.645s.418 1.967 1.093 2.645a.622.622 0 0 0 1.065-.441.622.622 0 0 0-.183-.441c-.456-.449-.738-1.073-.738-1.763s.282-1.314.738-1.763l2.939-2.939a2.495 2.495 0 1 1 3.527 3.526l-.001.001-2.792 2.792a.622.622 0 0 0 .441 1.065c.172 0 .328-.07.441-.183l2.792-2.792a3.741 3.741 0 1 0-5.29-5.29z"></path></svg><svg width="16" height="16" viewBox="0 0 16 16" id="linkedin-gray" y="816"><title>linkedin-gray</title><path fill="#8a8b8a" d="M6.894 5.832H5.627c-.133 0-.267.1-.267.267v4.767c0 .133.1.267.267.267h1.267c.133 0 .267-.1.267-.267V6.099a.263.263 0 0 0-.267-.267zm-.2 4.833h-.9v-4.4h.9v4.4zM6.261 3.599c-.5 0-.9.4-.9.9s.4.9.9.9.9-.4.9-.9-.4-.9-.9-.9zm0 1.366c-.267 0-.467-.2-.467-.467s.2-.467.467-.467.467.2.467.467-.2.467-.467.467zM11.261 6.399c-.3-.267-.7-.4-1.1-.367-.233 0-.5.067-.7.167v-.133c0-.133-.1-.233-.233-.233h-1.3c-.133 0-.233.1-.233.233v4.8c0 .133.1.233.233.233h1.3c.133 0 .233-.1.233-.233V7.999c0-.233.2-.433.433-.467.233 0 .467.2.467.433v2.867c0 .133.1.2.2.2h1.267c.133 0 .2-.1.2-.2v-2.8c.033-.6-.267-1.233-.767-1.633zm.367 4.266h-.8V8.032c0-.5-.4-.9-.9-.9s-.9.4-.9.9v2.633h-.9v-4.4h.9v.333c0 .133.1.233.233.233.067 0 .1-.033.133-.067.233-.2.5-.3.8-.3s.567.1.8.267c.4.333.667.867.633 1.4v2.533z"></path><path fill="#8a8b8a" d="M8 16c-4.4 0-8-3.6-8-8s3.6-8 8-8 8 3.6 8 8-3.6 8-8 8zM8 .667C3.967.667.667 3.967.667 8s3.3 7.333 7.333 7.333 7.333-3.3 7.333-7.333S12.033.667 8 .667z"></path></svg><svg width="16" height="16" viewBox="0 0 16 16" id="location-switcher-blue" y="832"><title>location-switcher-blue</title><path fill="#0097d0" d="M10.96 0a.741.741 0 0 0-.549.255l-.001.001-2.884 2.536a.72.72 0 0 0-.059 1.027v-.001a.747.747 0 0 0 1.044.057l-.001.001 1.722-1.515v8.279a.74.74 0 0 0 1.477.002V2.363l1.722 1.514a.743.743 0 0 0 1.043-.058l.001-.001a.719.719 0 0 0-.058-1.027l-.001-.001L11.533.254a.744.744 0 0 0-.562-.256h-.012.001zM4.68 4.619a.733.733 0 0 0-.728.733V13.635l-1.721-1.516a.746.746 0 0 0-1.043.057v.001a.719.719 0 0 0 .058 1.027l.001.001 2.876 2.529a.745.745 0 0 0 1.127.01l.001-.001 2.885-2.538a.72.72 0 0 0 .209-.8l.002.005a.74.74 0 0 0-.675-.482h-.023a.743.743 0 0 0-.499.192l.001-.001-1.721 1.519V5.36v-.01a.72.72 0 0 0-.216-.515.743.743 0 0 0-.524-.215h-.011.001z"></path></svg><svg width="9" height="16" viewBox="0 0 9 16" id="lrt-white" y="848"><title>lrt-white</title><path fill="#fff" d="M2.286 13.714h4.6a2.257 2.257 0 0 0 2.257-2.257v-.031.002-6.857-.036a2.25 2.25 0 0 0-2.249-2.249h-.038.002-4.6A2.257 2.257 0 0 0 .001 4.543v.031-.002 6.88a2.263 2.263 0 0 0 2.263 2.263h.024-.001zM.857 16h1.292l1.429-2.286H2.286zm6.148 0h1.28l-1.429-2.286h-1.28zm-2.434-4.571a1.23 1.23 0 0 0 1.145-1.141v-.004a1.23 1.23 0 0 0-1.141-1.145h-.004a1.23 1.23 0 0 0-1.145 1.141v.004a1.23 1.23 0 0 0 1.142 1.145h.004zm-2.286 1.145a1.057 1.057 0 0 1-1.146-1.15v.004-6.857a1.05 1.05 0 0 1 1.149-1.145h-.004 4.571A1.046 1.046 0 0 1 8 4.576v-.005 6.857a1.05 1.05 0 0 1-1.149 1.145h.004zM1.145 8H8V6.855H1.145zm2.857-5.714h1.145V1.141h1.714V-.004H2.285v1.145h1.714z"></path></svg><svg width="16" height="16" viewBox="0 0 16 16" id="mail-white" y="864"><title>mail-white</title><path fill="#fff" d="M15.832 6.44l-2.257-1.364V1.371a.375.375 0 0 0-.37-.371H2.797a.375.375 0 0 0-.371.371v3.705L.186 6.44a.362.362 0 0 0-.185.315V14.743a.375.375 0 0 0 .371.371h15.276a.36.36 0 0 0 .354-.36v-.012.001V6.76v-.003a.385.385 0 0 0-.167-.317l-.001-.001zm-10.14 4.379L.741 14.07V7.45zm2.307-.623l6.4 4.177H1.6zm2.307.623l4.969-3.368v6.62zm4.65-4.042l-1.381.943V5.935zm-2.122-5.036v6.484l-3.2 2.173-1.432-.943a.355.355 0 0 0-.405.001l.001-.001-1.432.943-3.2-2.173V1.741zM2.442 7.72l-1.381-.943 1.381-.842z"></path><path fill="#fff" d="M5.491 3.873h2.533a.346.346 0 0 0 0-.692H5.491a.346.346 0 0 0 0 .692zM5.595 5.766h4.828a.346.346 0 0 0 0-.692H5.595a.346.346 0 0 0 0 .692zM5.595 7.659h4.828a.346.346 0 0 0 0-.692H5.595a.346.346 0 0 0 0 .692z"></path></svg><svg width="16" height="16" viewBox="0 0 16 16" id="nextrip-color" y="880"><title>nextrip-color</title><path fill="#0053a0" d="M8 .667c-1 0-1.967.2-2.867.567-.867.367-1.667.9-2.333 1.567S1.6 4.268 1.233 5.134c-.367.9-.567 1.867-.567 2.867s.2 1.967.567 2.867c.367.867.9 1.667 1.567 2.333s1.467 1.2 2.333 1.567c.9.367 1.867.567 2.867.567s1.967-.2 2.867-.567c.867-.367 1.667-.9 2.333-1.567s1.2-1.467 1.567-2.333c.367-.9.567-1.867.567-2.867s-.2-1.967-.567-2.867c-.367-.867-.9-1.667-1.567-2.333s-1.467-1.2-2.333-1.567A7.574 7.574 0 0 0 8 .667zM8 0c4.433 0 8 3.567 8 8s-3.567 8-8 8-8-3.567-8-8 3.567-8 8-8z"></path><path fill="#ed1b2e" d="M7.82 4.169v4.3zM7.82 8.869c-.2 0-.4-.167-.4-.4v-4.3c0-.2.167-.4.4-.4s.4.2.4.4v4.3c0 .2-.2.4-.4.4zM8.387 9.635l3.133 2.2zM11.52 12.202a.6.6 0 0 1-.233-.067l-3.133-2.2c-.167-.133-.233-.367-.1-.533s.367-.233.533-.1l3.133 2.2c.167.133.233.367.1.533-.067.133-.167.167-.3.167z"></path></svg><svg width="16" height="16" viewBox="0 0 16 16" id="nextrip-white" y="896"><title>nextrip-white</title><path fill="#fff" d="M8 .667c-1 0-1.967.2-2.867.567-.867.367-1.667.9-2.333 1.567S1.6 4.268 1.233 5.134c-.367.9-.567 1.867-.567 2.867s.2 1.967.567 2.867c.367.867.9 1.667 1.567 2.333s1.467 1.2 2.333 1.567c.9.367 1.867.567 2.867.567s1.967-.2 2.867-.567c.867-.367 1.667-.9 2.333-1.567s1.2-1.467 1.567-2.333c.367-.9.567-1.867.567-2.867s-.2-1.967-.567-2.867c-.367-.867-.9-1.667-1.567-2.333s-1.467-1.2-2.333-1.567A7.574 7.574 0 0 0 8 .667zM8 0c4.433 0 8 3.567 8 8s-3.567 8-8 8-8-3.567-8-8 3.567-8 8-8zM7.82 4.169v4.3z"></path><path fill="#fff" d="M7.82 8.869c-.2 0-.4-.167-.4-.4v-4.3c0-.2.167-.4.4-.4s.4.2.4.4v4.3c0 .2-.2.4-.4.4zM8.387 9.635l3.133 2.2zM11.52 12.202a.6.6 0 0 1-.233-.067l-3.133-2.2c-.167-.133-.233-.367-.1-.533s.367-.233.533-.1l3.133 2.2c.167.133.233.367.1.533-.067.133-.167.167-.3.167z"></path></svg><svg width="16" height="16" viewBox="0 0 16 16" id="parking-gray" y="912"><title>parking-gray</title><path fill="#8a8b8a" d="M8 16c-4.4 0-8-3.6-8-8s3.6-8 8-8c2.12 0 4.16.84 5.64 2.36A7.864 7.864 0 0 1 16 8c0 4.4-3.6 8-8 8zM8 .8C4.04.8.8 4.04.8 8s3.24 7.2 7.2 7.2 7.2-3.24 7.2-7.2c0-1.92-.76-3.76-2.12-5.08A7.143 7.143 0 0 0 8 .8z"></path><path fill="#8a8b8a" d="M8.793 3.39h-3.44v9.44h1.28V9.39h2.16c1.52 0 2.76-1.24 2.76-2.76v-.48c0-1.52-1.24-2.76-2.76-2.76zm1.56 3.12c0 .88-.72 1.6-1.6 1.6h-2.12V4.67h2.12c.88 0 1.6.72 1.6 1.6v.24z"></path></svg><svg width="16" height="16" viewBox="0 0 16 16" id="pedestrian-gray" y="928"><title>pedestrian-gray</title><path fill="#8a8b8a" d="M7.983 4.325a2.162 2.162 0 1 0-2.162-2.164 2.165 2.165 0 0 0 2.163 2.163zm0-3.244A1.081 1.081 0 1 1 6.9 2.161 1.082 1.082 0 0 1 7.981 1.08zM4 9.554c0-2.585 1.914-4.688 4.267-4.688h.534c.298.015.534.26.534.561l-.001.026v-.001.586a2.25 2.25 0 0 0 2.128 2.344h.006a.589.589 0 0 1 .002 1.172h-.002a3.018 3.018 0 0 1-2.133-.9v1.487a.536.536 0 1 1-1.068-.002v.002-4.1a2.902 2.902 0 0 0-1.086.212l.02-.007V9.626c0 .535.231 1.016.599 1.348l.002.001 1.866 1.64c.06.053.109.119.143.192l.001.004 1.066 2.344a.614.614 0 0 1-.236.784l-.003.002a.513.513 0 0 1-.714-.258l-.001-.003-1.014-2.229-.855-.75-.35 1.146a.618.618 0 0 1-.129.23v-.001l-1.6 1.758a.5.5 0 0 1-.754.001v-.001a.624.624 0 0 1 .001-.829l-.001.001 1.511-1.66.432-1.424-.032-.028a3.027 3.027 0 0 1-1-2.25v-.04.002-2.663a3.653 3.653 0 0 0-1.067 2.584v.031-.002A.536.536 0 1 1 4 9.554v.002z"></path></svg><svg width="10" height="16" viewBox="0 0 10 16" id="phone-white" y="944"><title>phone-white</title><path fill="#fff" d="M8.498 0h-7.06A1.44 1.44 0 0 0 0 1.438v13.125a1.44 1.44 0 0 0 1.438 1.438h7.06a1.44 1.44 0 0 0 1.438-1.438V1.438A1.44 1.44 0 0 0 8.498 0zM.549 3.091h8.836v9.754H.549zM1.438.549h7.06c.49.001.887.398.887.888v1.104H.549V1.437a.89.89 0 0 1 .889-.888zm7.06 14.902h-7.06a.89.89 0 0 1-.888-.888v-1.167h8.836v1.167a.889.889 0 0 1-.887.888z"></path><path fill="#fff" d="M4.966 13.776a.694.694 0 1 0 .694.694.696.696 0 0 0-.694-.694zm0 .867a.17.17 0 1 1 .171-.171.171.171 0 0 1-.171.17zM3.809 2.011a.418.418 0 1 0-.418-.418c0 .231.187.418.418.418zm0-.523a.104.104 0 1 1-.104.104c0-.058.047-.104.104-.105zM4.696 1.854h1.557a.261.261 0 0 0 0-.522H4.696a.261.261 0 0 0 0 .522z"></path></svg><svg width="16" height="16" viewBox="0 0 16 16" id="pin-gray" y="960"><title>pin-gray</title><path fill="#8a8b8a" d="M7.952 0a6.294 6.294 0 0 0-6.285 6.285c.001.848.187 1.653.518 2.376l-.015-.036a16.01 16.01 0 0 0 2.118 3.508l-.025-.032c.903 1.245 1.899 2.528 2.643 3.643a.572.572 0 0 0 .914.05l.001-.001c.925-1.111 2.207-2.395 3.349-3.634a12.225 12.225 0 0 0 2.511-3.404l.032-.071a5.609 5.609 0 0 0 .527-2.393v-.007A6.294 6.294 0 0 0 7.958-.002h-.001zm0 1.143h.009a5.133 5.133 0 0 1 5.133 5.133v.011-.001.038c0 .694-.158 1.351-.441 1.936l.012-.027-.017.039v.004a12.646 12.646 0 0 1-2.317 3.108l-.002.002c-.957 1.038-1.989 2.114-2.895 3.143-.709-1.013-1.501-2.067-2.247-3.097a15.767 15.767 0 0 1-1.908-3.11l-.041-.098a.281.281 0 0 0-.015-.037v.003a4.394 4.394 0 0 1-.413-1.875v-.029-.008a5.133 5.133 0 0 1 5.133-5.133h.013-.001zm0 2.285a2.857 2.857 0 1 0 2.858 2.858 2.868 2.868 0 0 0-2.857-2.857zm0 1.143h.001a1.715 1.715 0 1 1-1.715 1.716v-.009c0-.942.764-1.706 1.706-1.706h.008z"></path></svg><svg width="16" height="16" viewBox="0 0 16 16" id="plus-blue" y="976"><title>plus-blue</title><path fill="#0097d0" opacity=".999" d="M15.241 7.242H8.758V.758a.758.758 0 1 0-1.516 0v6.484H.758a.758.758 0 1 0 0 1.516h6.484v6.483a.758.758 0 1 0 1.516 0V8.758h6.483a.758.758 0 1 0 0-1.516z"></path></svg><svg width="15" height="16" viewBox="0 0 15 16" id="purchase-gray" y="992"><title>purchase-gray</title><path fill="#8a8b8a" d="M.339 14.789a.388.388 0 0 0 .072 0H.409a.408.408 0 0 0 .4-.336v-.002l1.126-6.487a2.561 2.561 0 0 1 1.249-1.781l.013-.007c.338-.196.755-.405 1.183-.592l.085-.033a7.592 7.592 0 0 1 1.286-.445l.056-.012v2.721a2.336 2.336 0 0 0-.276-.093l-.019-.005a.409.409 0 0 0-.221.787l.003.001c.226.058.423.157.593.29l-.004-.003a3.51 3.51 0 0 1-.943.972l-.012.008a.411.411 0 1 0 .469.675l-.001.001A4.312 4.312 0 0 0 6.59 9.207l.01-.018 1.329-2.096a.721.721 0 0 1 1.321.396.716.716 0 0 1-.104.373l.002-.003-.992 1.61a3.778 3.778 0 0 0-.576 2.139v-.006l.002.096a2.997 2.997 0 0 1-1.297 2.47l-.01.007-.108.073a3.833 3.833 0 0 0-1.068 1.105l-.009.015a.411.411 0 0 0 .695.439l.001-.002c.223-.353.506-.648.837-.877l.01-.007.108-.073a3.834 3.834 0 0 0 1.357-1.668l.009-.025.1.1a1.29 1.29 0 0 0 2.148-.516l.002-.009a1.25 1.25 0 0 0 1.452-1.641l.003.009-.02-.057h1.654c.587 0 1.063-.476 1.063-1.063V1.061c0-.587-.476-1.063-1.063-1.063H6.87c-.587 0-1.063.476-1.063 1.063v3.182a8.58 8.58 0 0 0-1.721.569l.054-.022c-.545.239-.988.466-1.416.715l.067-.036a3.375 3.375 0 0 0-1.657 2.347l-.003.02-1.125 6.48a.408.408 0 0 0 .331.471h.002zm9.087-2.069a.473.473 0 0 1-.639-.036l-.433-.441c.027-.17.042-.367.042-.567l-.001-.102v.005l-.001-.084c0-.161.013-.318.037-.472l-.002.017h.457c0 .01.005.018.011.024l.637 1.035a.473.473 0 0 1-.107.619l-.001.001zm1.4-.816a.431.431 0 0 1-.561-.161l-.001-.002c-.013-.023-.024-.046-.038-.069l-.387-.63h1.086l.116.326a.435.435 0 0 1-.213.532l-.002.001zM8.831.816h4.612c.136 0 .247.11.247.247v8.915c0 .136-.11.247-.247.247H8.674c.06-.129.118-.236.182-.339l-.007.013 1-1.605A1.538 1.538 0 0 0 8.84 5.972l-.01-.002zm-2.207.247c0-.136.109-.246.245-.247h1.143V6.04a1.54 1.54 0 0 0-.757.611l-.004.006-.622.979z"></path></svg><svg width="15" height="16" viewBox="0 0 15 16" id="purchase-white" y="1008"><title>purchase-white</title><path fill="#fff" d="M.339 14.789a.388.388 0 0 0 .072 0H.409a.408.408 0 0 0 .4-.336v-.002l1.126-6.487a2.561 2.561 0 0 1 1.249-1.781l.013-.007c.338-.196.755-.405 1.183-.592l.085-.033a7.592 7.592 0 0 1 1.286-.445l.056-.012v2.721a2.336 2.336 0 0 0-.276-.093l-.019-.005a.409.409 0 0 0-.221.787l.003.001c.226.058.423.157.593.29l-.004-.003a3.51 3.51 0 0 1-.943.972l-.012.008a.411.411 0 1 0 .469.675l-.001.001A4.312 4.312 0 0 0 6.59 9.207l.01-.018 1.329-2.096a.721.721 0 0 1 1.321.396.716.716 0 0 1-.104.373l.002-.003-.992 1.61a3.778 3.778 0 0 0-.576 2.139v-.006l.002.096a2.997 2.997 0 0 1-1.297 2.47l-.01.007-.108.073a3.833 3.833 0 0 0-1.068 1.105l-.009.015a.411.411 0 0 0 .695.439l.001-.002c.223-.353.506-.648.837-.877l.01-.007.108-.073a3.834 3.834 0 0 0 1.357-1.668l.009-.025.1.1a1.29 1.29 0 0 0 2.148-.516l.002-.009a1.25 1.25 0 0 0 1.452-1.641l.003.009-.02-.057h1.654c.587 0 1.063-.476 1.063-1.063V1.061c0-.587-.476-1.063-1.063-1.063H6.87c-.587 0-1.063.476-1.063 1.063v3.182a8.58 8.58 0 0 0-1.721.569l.054-.022c-.545.239-.988.466-1.416.715l.067-.036a3.375 3.375 0 0 0-1.657 2.347l-.003.02-1.125 6.48a.408.408 0 0 0 .331.471h.002zm9.087-2.069a.473.473 0 0 1-.639-.036l-.433-.441c.027-.17.042-.367.042-.567l-.001-.102v.005l-.001-.084c0-.161.013-.318.037-.472l-.002.017h.457c0 .01.005.018.011.024l.637 1.035a.473.473 0 0 1-.107.619l-.001.001zm1.4-.816a.431.431 0 0 1-.561-.161l-.001-.002c-.013-.023-.024-.046-.038-.069l-.387-.63h1.086l.116.326a.435.435 0 0 1-.213.532l-.002.001zM8.831.816h4.612c.136 0 .247.11.247.247v8.915c0 .136-.11.247-.247.247H8.674c.06-.129.118-.236.182-.339l-.007.013 1-1.605A1.538 1.538 0 0 0 8.84 5.972l-.01-.002zm-2.207.247c0-.136.109-.246.245-.247h1.143V6.04a1.54 1.54 0 0 0-.757.611l-.004.006-.622.979z"></path></svg><svg width="16" height="16" viewBox="0 0 16 16" id="schedules-maps-color" y="1024"><title>schedules-maps-color</title><path fill="#0097d0" d="M14.792 4.568l-1.204-.195a6.517 6.517 0 0 1-.204.729l.014-.048 1.279.207a.723.723 0 0 1 .612.712v8.66c0 .06-.029.112-.074.145h-.001a.18.18 0 0 1-.116.043.188.188 0 0 1-.053-.007h.002l-4.025-.943V9.093l-.091.112-.62.753v3.908l-4.622 1.011v-9.56l1.135-.161a6.133 6.133 0 0 1-.19-.633l-.01-.048-1.259.179-4.179-1.327a.907.907 0 0 0-.815.131l.003-.002a.873.873 0 0 0-.373.716V12.615c0 .593.369 1.101.891 1.304l.01.003 4.307 1.721a.22.22 0 0 0 .041.012h.002c.006 0 .013.004.019.005a.324.324 0 0 0 .142-.003h-.002l5.254-1.15 4.219.989a.887.887 0 0 0 .773-.171l-.002.001a.874.874 0 0 0 .345-.697V5.968a1.424 1.424 0 0 0-1.2-1.404l-.008-.001zM4.978 14.795l-3.811-1.524a.7.7 0 0 1-.456-.656v-.013.001-8.422-.007c0-.062.032-.117.08-.15h.001a.184.184 0 0 1 .111-.039c.024 0 .047.004.068.011H.969l4.01 1.273z"></path><path fill="#a5cf4c" d="M10.04 9.207a.373.373 0 0 1-.288-.136l-.001-.001C8.437 7.453 5.618 3.455 7.82 1.253 8.388.685 9.173.334 10.04.334s1.652.351 2.22.919c2.203 2.203-.617 6.2-1.931 7.817a.37.37 0 0 1-.288.137zm0-8.13h-.008c-.659 0-1.255.268-1.686.7-1.663 1.663.582 5.015 1.694 6.459 1.114-1.444 3.357-4.794 1.695-6.457a2.373 2.373 0 0 0-1.687-.701h-.008zm0 4.049a1.686 1.686 0 1 1 1.192-.494 1.67 1.67 0 0 1-1.186.492h-.006zm0-2.629a.943.943 0 1 0 .667.277.934.934 0 0 0-.665-.276h-.002z"></path></svg><svg width="16" height="16" viewBox="0 0 16 16" id="search-gray" y="1040"><title>search-gray</title><path fill="#8a8b8a" d="M6.444 0h-.011a6.444 6.444 0 1 0 4.077 11.434l-.011.009 4.361 4.361a.666.666 0 0 0 .944 0 .66.66 0 0 0 0-.938l-4.361-4.361A6.441 6.441 0 0 0 6.446-.001h-.003zm0 1.333a5.11 5.11 0 1 1-5.111 5.111v-.01a5.101 5.101 0 0 1 5.101-5.101h.011-.001z"></path></svg><svg width="16" height="16" viewBox="0 0 16 16" id="shopping-cart-green" y="1056"><title>shopping-cart-green</title><path fill="#a5cf4c" d="M15.014 12.824a1.575 1.575 0 1 0-1.575 1.575c.87 0 1.575-.705 1.575-1.575zm-2.443 0a.868.868 0 1 1 .868.868.868.868 0 0 1-.868-.868zM5.522 3.972l-.244-1.009A1.88 1.88 0 0 0 3.474 1.6H3.44h.002-1.013l-.019-.001a.355.355 0 0 0 0 .71l.02-.001h-.001H3.46c.512 0 .945.34 1.085.807l.002.008.281 1.115a.182.182 0 0 0-.019.081v.007c0 .095.036.182.094.248l1.349 5.293h6.561l.047.001a2.21 2.21 0 0 0 2.123-1.596l.004-.016 1.125-4.284zm8.753 4.107a1.489 1.489 0 0 1-1.43 1.081h-.034.002-5.961L5.709 4.68h9.447zM9.121 12.824a1.575 1.575 0 1 0-1.575 1.575c.87 0 1.575-.705 1.575-1.575zm-2.444 0a.868.868 0 1 1 .868.868.868.868 0 0 1-.865-.868zM1.417 5.145c0 .196.159.354.354.354h1.49a.354.354 0 0 0 0-.708h-1.49a.354.354 0 0 0-.354.354zM.354 7.925h3.435a.354.354 0 0 0 0-.708H.354a.354.354 0 0 0 0 .708zM4.851 9.997a.354.354 0 0 0-.354-.354H2.124a.354.354 0 0 0 0 .708H4.497a.354.354 0 0 0 .354-.354z"></path></svg><svg width="16" height="16" viewBox="0 0 16 16" id="store-white" y="1072"><title>store-white</title><path fill="#fff" d="M15.373 7.959H.628V6.711h14.745zm-.781 6.463H6.454V9.671a.314.314 0 0 0-.314-.314H3.066a.315.315 0 0 0-.314.314v4.751H1.419V8.586h13.172zM3.38 9.987h2.447v4.436H3.38zM2.086 3.192h11.8L15.2 6.083H.797zm.11-1.563h11.639v.935H2.196zM16 6.387v-.013c0-.004 0-.017-.003-.025s0-.007 0-.01a.318.318 0 0 0-.022-.072l.001.002v-.003l-1.518-3.33a.258.258 0 0 0 .006-.058V1.314A.314.314 0 0 0 14.15 1H1.883a.315.315 0 0 0-.314.314v1.497L.028 6.269a.209.209 0 0 0-.012.033l-.001.002v.002a.22.22 0 0 0-.007.032v.013c0 .004-.007.018-.007.026V8.274c0 .173.14.314.314.314h.477v6.149c0 .173.14.314.314.314h13.8a.315.315 0 0 0 .314-.314v-6.15h.468c.173 0 .313-.14.314-.313V6.398v-.009zm-7.686 3.6h4.5v2.631h-4.5zM8 13.246h5.126a.315.315 0 0 0 .314-.314v-3.26a.314.314 0 0 0-.314-.314H8a.315.315 0 0 0-.314.314v3.26c0 .173.14.314.314.314z"></path></svg><svg width="11" height="16" viewBox="0 0 11 16" id="ticket-white" y="1088"><title>ticket-white</title><path fill="#fff" d="M9.707 0H8.068a.257.257 0 0 0-.253.215v.001a2.402 2.402 0 0 1-.786 1.445l-.003.002a2.289 2.289 0 0 1-1.519.573h-.031.002A2.386 2.386 0 0 1 3.136.233L3.134.219a.257.257 0 0 0-.254-.22H1.231C.55-.001-.002.551-.002 1.232v13.535C-.002 15.448.55 16 1.231 16H9.718c.681 0 1.233-.552 1.233-1.233V1.231c0-.681-.552-1.233-1.233-1.233h-.011.001zm0 15.476H1.233a.708.708 0 0 1-.708-.707v-2.088l2.115-.014a.268.268 0 0 0-.002-.536h-.004l-2.11.025V1.232a.708.708 0 0 1 .708-.707h1.424a2.914 2.914 0 0 0 2.815 2.238h.041c.714 0 1.366-.265 1.863-.703l-.003.003c.448-.396.772-.922.915-1.518l.004-.02h1.425c.391 0 .708.317.708.707v10.924l-2.144-.025a.267.267 0 0 0-.262.267v.003c0 .144.116.261.259.264l2.147.017v2.087a.708.708 0 0 1-.708.705h-.01.001z"></path><path fill="#fff" d="M6.636 12.186H4.281a.248.248 0 0 0 0 .496h2.364a.248.248 0 1 0 0-.496h-.01zM4.352 8.832a.653.653 0 1 0-.653-.653c0 .361.292.653.653.653zm0-.809a.157.157 0 1 1 0 .314.157.157 0 1 1 0-.314zM6.599 8.832a.653.653 0 1 0-.653-.653c0 .361.292.653.653.653zm0-.809a.157.157 0 1 1 0 .314.157.157 0 1 1 0-.314z"></path><path fill="#fff" d="M7.531 9.592h.094a.828.828 0 0 0 .551-.208l-.001.001a.675.675 0 0 0 .231-.502V5.577a.722.722 0 0 0-.502-.665l-.005-.001-2.14-.74a.866.866 0 0 0-.573 0l.006-.002-2.139.738a.748.748 0 0 0-.507.669v3.308c.002.2.091.379.23.502l.001.001a.828.828 0 0 0 .55.207h.094l-.562.733a.23.23 0 0 0-.017.258l-.001-.001a.295.295 0 0 0 .471.031l.215-.276h3.898l.215.276a.295.295 0 0 0 .385.059l-.001.001a.237.237 0 0 0 .069-.349v.001zm.324-3.693v.745H3.096v-.745zM5.388 4.633a.269.269 0 0 1 .176.001l-.002-.001 2.141.733c.028.01.053.036.074.036H3.174c.022 0 .046-.026.074-.036zM3.095 8.881V7.139h4.758v1.742a.2.2 0 0 1-.069.151.25.25 0 0 1-.164.061H3.328a.245.245 0 0 1-.164-.062.2.2 0 0 1-.069-.15zm.812.958l.182-.248h2.77l.182.248z"></path></svg><svg width="16" height="16" viewBox="0 0 16 16" id="trip-planner-color" y="1104"><title>trip-planner-color</title><path fill="#f68b1f" d="M2.833 7.579C1.2 7.646-.067 9.012 0 10.612a2.969 2.969 0 0 0 2.833 2.833h4.333l-1.033 1.067c-.133.167-.133.4 0 .533s.367.133.5 0l1.633-1.7c.133-.167.133-.4 0-.533l-1.633-1.7s0-.033-.033-.033a.363.363 0 0 0-.5 0c-.133.167-.133.4.033.533l1.033 1.067H2.833c-1.2-.033-2.133-1.067-2.1-2.267a2.182 2.182 0 0 1 2.1-2.1h9.033c.2 0 .367-.2.367-.4s-.167-.367-.367-.367l-9.033.033z"></path><path fill="#f68b1f" d="M2.833 7.579C1.2 7.646-.067 9.012 0 10.612a2.969 2.969 0 0 0 2.833 2.833h4.3L6.1 14.512c-.133.167-.133.4 0 .533s.367.133.5 0l1.633-1.7c.133-.167.133-.4 0-.533l-1.633-1.7s0-.033-.033-.033a.363.363 0 0 0-.5 0c-.133.167-.133.4.033.533l1.033 1.067h-4.3c-1.2-.033-2.133-1.067-2.1-2.267.033-1.133.967-2.033 2.1-2.1h9c.2 0 .367-.2.367-.4s-.167-.367-.367-.367l-9 .033z"></path><path fill="#ed1b2e" d="M4.43.667a2.077 2.077 0 0 0-2.067 2.067c0 1.167.933 2.1 2.067 2.1 1 0 1.867-.7 2.033-1.7h6.567c1.2 0 2.167.967 2.167 2.167v.033c.067 1.133-.833 2.133-1.967 2.167h-.1c-.2 0-.367.167-.367.367s.167.367.367.367c1.6 0 2.867-1.3 2.833-2.9v-.033c0-1.633-1.3-2.933-2.933-2.933H6.497A2.11 2.11 0 0 0 4.43.669zm0 .766c.733 0 1.333.6 1.333 1.333s-.6 1.333-1.333 1.333-1.333-.6-1.333-1.333c.033-.733.6-1.333 1.333-1.333z"></path><path fill="#0097d0" d="M4.43.667a2.077 2.077 0 0 0-2.067 2.067c0 1.167.933 2.1 2.067 2.1 1 0 1.867-.7 2.033-1.7h6.567c1.2 0 2.167.967 2.167 2.167v.033c.067 1.133-.833 2.133-1.967 2.167h-.1c-.2 0-.367.167-.367.367s.167.367.367.367c1.6 0 2.867-1.3 2.833-2.9v-.033c0-1.633-1.3-2.933-2.933-2.933H6.497A2.11 2.11 0 0 0 4.43.669zm0 .766c.733 0 1.333.6 1.333 1.333s-.6 1.333-1.333 1.333-1.333-.6-1.333-1.333c.033-.733.6-1.333 1.333-1.333z"></path><path fill="#ed1b2e" d="M11.14 14.351c-1.167 0-2.1-.933-2.1-2.067s.933-2.1 2.1-2.1 2.1.933 2.1 2.1-.967 2.067-2.1 2.067zm0-3.5c-.8 0-1.433.633-1.433 1.433s.633 1.433 1.433 1.433 1.433-.633 1.433-1.433c-.033-.8-.667-1.433-1.433-1.433z"></path></svg><svg width="16" height="16" viewBox="0 0 16 16" id="trip-planner-white" y="1120"><title>trip-planner-white</title><path fill="#fff" d="M2.833 7.579C1.2 7.646-.067 9.012 0 10.612a2.969 2.969 0 0 0 2.833 2.833h4.333l-1.033 1.067c-.133.167-.133.4 0 .533s.367.133.5 0l1.633-1.7c.133-.167.133-.4 0-.533l-1.633-1.7s0-.033-.033-.033a.363.363 0 0 0-.5 0c-.133.167-.133.4.033.533l1.033 1.067H2.833c-1.2-.033-2.133-1.067-2.1-2.267a2.182 2.182 0 0 1 2.1-2.1h9.033c.2 0 .367-.2.367-.4s-.167-.367-.367-.367l-9.033.033z"></path><path fill="#fff" d="M2.833 7.579C1.2 7.646-.067 9.012 0 10.612a2.969 2.969 0 0 0 2.833 2.833h4.3L6.1 14.512c-.133.167-.133.4 0 .533s.367.133.5 0l1.633-1.7c.133-.167.133-.4 0-.533l-1.633-1.7s0-.033-.033-.033a.363.363 0 0 0-.5 0c-.133.167-.133.4.033.533l1.033 1.067h-4.3c-1.2-.033-2.133-1.067-2.1-2.267.033-1.133.967-2.033 2.1-2.1h9c.2 0 .367-.2.367-.4s-.167-.367-.367-.367l-9 .033z"></path><path fill="#fff" d="M4.43.667a2.077 2.077 0 0 0-2.067 2.067c0 1.167.933 2.1 2.067 2.1 1 0 1.867-.7 2.033-1.7h6.567c1.2 0 2.167.967 2.167 2.167v.033c.067 1.133-.833 2.133-1.967 2.167h-.1c-.2 0-.367.167-.367.367s.167.367.367.367c1.6 0 2.867-1.3 2.833-2.9v-.033c0-1.633-1.3-2.933-2.933-2.933H6.497A2.11 2.11 0 0 0 4.43.669zm0 .766c.733 0 1.333.6 1.333 1.333s-.6 1.333-1.333 1.333-1.333-.6-1.333-1.333c.033-.733.6-1.333 1.333-1.333zM11.14 14.351c-1.167 0-2.1-.933-2.1-2.067s.933-2.1 2.1-2.1 2.1.933 2.1 2.1-.967 2.067-2.1 2.067zm0-3.5c-.8 0-1.433.633-1.433 1.433s.633 1.433 1.433 1.433 1.433-.633 1.433-1.433c-.033-.8-.667-1.433-1.433-1.433z"></path></svg><svg width="16" height="16" viewBox="0 0 16 16" id="twitter-gray" y="1136"><title>twitter-gray</title><path fill="#8a8b8a" d="M7.167 11.167c-1.267 0-2.267-.233-2.767-.6-.1-.1-.167-.267-.1-.4a.41.41 0 0 1 .367-.233c.3 0 .6-.033.867-.133-.4-.2-.733-.567-.867-1-.067-.167 0-.333.133-.4.033-.033.067-.033.1-.067a2.558 2.558 0 0 1-.5-.867c-.033-.167.033-.3.167-.4.067-.033.1-.033.167-.033a1.627 1.627 0 0 1-.133-.433c-.067-.4 0-.833.2-1.2l.033-.1c.067-.133.233-.2.367-.133.033 0 .033.033.067.067l.1.1a3.956 3.956 0 0 0 2.333 1.267c.033-.4.233-.767.5-1.067a1.946 1.946 0 0 1 1.267-.567c.367.033.733.167 1.033.333.233-.067.5-.2.767-.3.133-.067.3-.033.4.067s.133.267.067.367c-.033.067-.033.1-.067.167.033.033.067.033.1.067.1.1.133.233.1.367-.1.333-.3.6-.6.8-.033 2.367-1.867 4.333-4.1 4.333zM4.833 10.3c.467.267 1.3.4 2.333.4 1 0 1.933-.433 2.6-1.167.7-.767 1.1-1.8 1.1-2.867 0-.1.067-.2.133-.233a.92.92 0 0 0 .4-.467c-.133.033-.267-.067-.3-.233 0-.067 0-.133.033-.2s.067-.1.1-.167c-.233.1-.467.2-.667.267-.067.033-.167 0-.233-.033a2.63 2.63 0 0 0-.9-.333 1.394 1.394 0 0 0-1.333 1.4.287.287 0 0 1-.267.267h-.067a4.45 4.45 0 0 1-2.667-1.333c-.1.233-.133.5-.1.767.067.267.2.533.4.733.1.1.1.267-.033.367-.067.067-.167.067-.233.067-.1-.033-.167-.067-.233-.1.167.367.433.667.767.867.133.067.167.233.067.367-.067.067-.133.133-.233.1a.97.97 0 0 1-.333-.067c.167.367.533.633.967.667.133.033.233.167.2.3 0 .067-.067.133-.133.2-.433.3-.9.433-1.367.433z"></path><path fill="#8a8b8a" d="M8 16c-4.4 0-8-3.6-8-8s3.6-8 8-8 8 3.6 8 8-3.6 8-8 8zM8 .667C3.967.667.667 3.967.667 8s3.3 7.333 7.333 7.333 7.333-3.3 7.333-7.333S12.033.667 8 .667z"></path></svg><svg width="16" height="16" viewBox="0 0 16 16" id="white-circle-info" y="1152"><title>white-circle-info</title><path fill="#fff" d="M8.001 0a8 8 0 1 0 0 16.002A8 8 0 1 0 8.001 0zm-1 3h2v2h-2zm3 10.001h-4v-1h1v-4h-1v-1h3v5h1z"></path></svg><svg width="16" height="16" viewBox="0 0 16 16" id="youtube-gray" y="1168"><title>youtube-gray</title><path fill="#8a8b8a" d="M9.269 7.998l-1.7-.933c-.167-.067-.333-.033-.433.133-.033.033-.033.1-.033.133v1.833c0 .167.133.3.3.3.067 0 .1 0 .133-.033l1.7-.9c.167-.067.2-.267.133-.433 0-.033-.067-.067-.1-.1zm-1.7.967v-1.4l1.267.7-1.267.7z"></path><path fill="#8a8b8a" d="M11.869 6.798a1.744 1.744 0 0 0-.333-.9 1.315 1.315 0 0 0-.833-.4h-.033c-1.033-.067-2.567-.067-2.6-.067 0 0-1.533 0-2.567.1H5.47c-.333 0-.633.167-.833.4-.2.267-.3.567-.333.867 0 .033-.067.633-.067 1.267v.567c0 .6.067 1.233.067 1.267.033.333.133.633.333.867.233.233.533.367.867.367h.1c.6.067 2.433.067 2.5.1 0 0 1.533 0 2.567-.1h.033c.3-.033.6-.167.8-.4.2-.267.3-.567.333-.867 0-.033.067-.633.067-1.267v-.533c.033-.633-.033-1.233-.033-1.267zm-.4 1.834c0 .567-.033 1.167-.067 1.2a1.46 1.46 0 0 1-.233.633.66.66 0 0 1-.533.233h-.033c-.967.067-2.467.067-2.533.067s-1.9-.033-2.467-.067h-.1c-.2 0-.433-.1-.567-.233a1.1 1.1 0 0 1-.2-.633c0-.033-.067-.633-.067-1.2v-.567c0-.567.033-1.167.067-1.2.033-.233.1-.433.233-.633.133-.167.333-.233.533-.267h.033c1-.067 2.5-.067 2.533-.067s1.533 0 2.533.067h.033c.2 0 .4.1.567.233.133.2.2.4.2.633 0 .033.067.633.067 1.2v.6z"></path><path fill="#8a8b8a" d="M8 16c-4.4 0-8-3.6-8-8s3.6-8 8-8 8 3.6 8 8-3.6 8-8 8zM8 .667C3.967.667.667 3.967.667 8s3.3 7.333 7.333 7.333 7.333-3.3 7.333-7.333S12.033.667 8 .667z"></path></svg></svg>